<svg width="114" height="33" viewBox="0 0 114 33" fill="none" xmlns="http://www.w3.org/2000/svg">
<path d="M47.0713 10.7285C47.568 11.084 48.1081 11.3665 48.6914 11.5762L47.9463 13.0049C47.641 12.9137 47.3424 12.7884 47.0508 12.6289C46.987 12.597 46.5381 12.3008 45.7041 11.7402C45.0479 12.0273 44.321 12.1709 43.5234 12.1709C41.9831 12.1709 40.7754 11.7174 39.9004 10.8105C39.0299 9.90365 38.5947 8.62988 38.5947 6.98926C38.5947 5.35319 39.0322 4.08171 39.9072 3.1748C40.7822 2.26335 41.9694 1.80762 43.4688 1.80762C44.9544 1.80762 46.1325 2.26335 47.0029 3.1748C47.8734 4.08171 48.3086 5.35319 48.3086 6.98926C48.3086 7.85514 48.1878 8.61621 47.9463 9.27246C47.764 9.77376 47.4723 10.2591 47.0713 10.7285ZM45.4443 9.58691C45.7041 9.28158 45.8978 8.91243 46.0254 8.47949C46.1576 8.04655 46.2236 7.5498 46.2236 6.98926C46.2236 5.83171 45.9684 4.9681 45.458 4.39844C44.9476 3.82422 44.2799 3.53711 43.4551 3.53711C42.6302 3.53711 41.9603 3.82422 41.4453 4.39844C40.9349 4.97266 40.6797 5.83626 40.6797 6.98926C40.6797 8.16048 40.9349 9.03776 41.4453 9.62109C41.9603 10.1999 42.6097 10.4893 43.3936 10.4893C43.6852 10.4893 43.9609 10.4414 44.2207 10.3457C43.8105 10.0768 43.3936 9.86719 42.9697 9.7168L43.5371 8.56152C44.2025 8.78939 44.8382 9.13118 45.4443 9.58691ZM58.7676 10.7764L57.6055 12.2598C57.0358 11.9818 56.4889 11.599 55.9648 11.1113C55.5592 11.4759 55.1286 11.7448 54.6729 11.918C54.2171 12.0911 53.6748 12.1777 53.0459 12.1777C51.7972 12.1777 50.8584 11.8268 50.2295 11.125C49.7419 10.5827 49.498 9.95833 49.498 9.25195C49.498 8.60938 49.6895 8.03288 50.0723 7.52246C50.4551 7.00749 51.027 6.56087 51.7881 6.18262C51.4463 5.77702 51.1888 5.39193 51.0156 5.02734C50.8424 4.6582 50.7559 4.30957 50.7559 3.98145C50.7559 3.37533 50.9974 2.86263 51.4805 2.44336C51.9681 2.01953 52.6608 1.80762 53.5586 1.80762C54.4245 1.80762 55.1012 2.02865 55.5889 2.4707C56.0765 2.91276 56.3203 3.4528 56.3203 4.09082C56.3203 4.49642 56.1995 4.88151 55.958 5.24609C55.7165 5.61068 55.2288 6.02311 54.4951 6.4834L55.8896 8.32227C56.0537 8.0306 56.195 7.65007 56.3135 7.18066L58.0498 7.57715C57.8766 8.19238 57.7262 8.64355 57.5986 8.93066C57.471 9.21322 57.3343 9.4502 57.1885 9.6416C57.4027 9.84212 57.6784 10.0632 58.0156 10.3047C58.3574 10.5417 58.6081 10.6989 58.7676 10.7764ZM53.5381 5.32812L54.0576 4.93164C54.4404 4.63542 54.6318 4.34147 54.6318 4.0498C54.6318 3.80371 54.5384 3.59408 54.3516 3.4209C54.1693 3.24772 53.9209 3.16113 53.6064 3.16113C53.3011 3.16113 53.0618 3.23861 52.8887 3.39355C52.7155 3.54395 52.6289 3.7194 52.6289 3.91992C52.6289 4.1569 52.7747 4.44401 53.0664 4.78125L53.5381 5.32812ZM52.7861 7.41309C52.3441 7.63639 52.0137 7.90527 51.7949 8.21973C51.5762 8.53418 51.4668 8.85547 51.4668 9.18359C51.4668 9.59831 51.6012 9.93783 51.8701 10.2021C52.1436 10.4619 52.5081 10.5918 52.9639 10.5918C53.2646 10.5918 53.554 10.5326 53.832 10.4141C54.11 10.2956 54.4131 10.0996 54.7412 9.82617L52.7861 7.41309ZM69.0557 12H66.8545L65.9795 9.72363H61.9736L61.1465 12H59L62.9033 1.97852H65.043L69.0557 12ZM65.3301 8.03516L63.9492 4.31641L62.5957 8.03516H65.3301ZM21.0811 27V16.9785H22.4072V25.8174H27.3428V27H21.0811ZM33.5088 26.1045C33.0531 26.4919 32.6133 26.7653 32.1895 26.9248C31.7702 27.0843 31.319 27.1641 30.8359 27.1641C30.0384 27.1641 29.4255 26.9704 28.9971 26.583C28.5687 26.1911 28.3545 25.6921 28.3545 25.0859C28.3545 24.7305 28.4342 24.4069 28.5938 24.1152C28.7578 23.819 28.9697 23.582 29.2295 23.4043C29.4938 23.2266 29.79 23.0921 30.1182 23.001C30.3597 22.9372 30.7243 22.8757 31.2119 22.8164C32.2054 22.6979 32.9368 22.5566 33.4062 22.3926C33.4108 22.224 33.4131 22.1169 33.4131 22.0713C33.4131 21.57 33.2969 21.2168 33.0645 21.0117C32.75 20.7337 32.2829 20.5947 31.6631 20.5947C31.0843 20.5947 30.6559 20.6973 30.3779 20.9023C30.1045 21.1029 29.9017 21.4606 29.7695 21.9756L28.5664 21.8115C28.6758 21.2965 28.8558 20.8818 29.1064 20.5674C29.3571 20.2484 29.7194 20.0046 30.1934 19.8359C30.6673 19.6628 31.2165 19.5762 31.8408 19.5762C32.4606 19.5762 32.9642 19.6491 33.3516 19.7949C33.7389 19.9408 34.0238 20.1253 34.2061 20.3486C34.3883 20.5674 34.516 20.8454 34.5889 21.1826C34.6299 21.3923 34.6504 21.7705 34.6504 22.3174V23.958C34.6504 25.1019 34.6755 25.8265 34.7256 26.1318C34.7803 26.4326 34.8851 26.722 35.04 27H33.7549C33.6273 26.7448 33.5452 26.4463 33.5088 26.1045ZM33.4062 23.3564C32.9596 23.5387 32.2897 23.6937 31.3965 23.8213C30.8906 23.8942 30.5329 23.9762 30.3232 24.0674C30.1136 24.1585 29.9518 24.293 29.8379 24.4707C29.724 24.6439 29.667 24.8376 29.667 25.0518C29.667 25.3799 29.79 25.6533 30.0361 25.8721C30.2868 26.0908 30.6514 26.2002 31.1299 26.2002C31.6038 26.2002 32.0254 26.0977 32.3945 25.8926C32.7637 25.6829 33.0348 25.3981 33.208 25.0381C33.3402 24.7601 33.4062 24.3499 33.4062 23.8076V23.3564ZM37.6992 27H36.5576V16.9785H37.7881V20.5537C38.3076 19.902 38.9707 19.5762 39.7773 19.5762C40.224 19.5762 40.6455 19.6673 41.042 19.8496C41.443 20.0273 41.7712 20.2803 42.0264 20.6084C42.2861 20.932 42.4889 21.3239 42.6348 21.7842C42.7806 22.2445 42.8535 22.7367 42.8535 23.2607C42.8535 24.5049 42.5459 25.4665 41.9307 26.1455C41.3154 26.8245 40.5771 27.1641 39.7158 27.1641C38.859 27.1641 38.1868 26.8063 37.6992 26.0908V27ZM37.6855 23.3154C37.6855 24.1859 37.804 24.8148 38.041 25.2021C38.4284 25.8356 38.9525 26.1523 39.6133 26.1523C40.151 26.1523 40.6159 25.9199 41.0078 25.4551C41.3997 24.9857 41.5957 24.2884 41.5957 23.3633C41.5957 22.4154 41.4066 21.7158 41.0283 21.2646C40.6546 20.8135 40.2012 20.5879 39.668 20.5879C39.1302 20.5879 38.6654 20.8226 38.2734 21.292C37.8815 21.7568 37.6855 22.4313 37.6855 23.3154ZM43.8994 23.3701C43.8994 22.0257 44.2731 21.0299 45.0205 20.3828C45.6449 19.8451 46.4059 19.5762 47.3037 19.5762C48.3018 19.5762 49.1175 19.9043 49.751 20.5605C50.3844 21.2122 50.7012 22.1146 50.7012 23.2676C50.7012 24.2018 50.5599 24.9378 50.2773 25.4756C49.9993 26.0088 49.5915 26.4235 49.0537 26.7197C48.5205 27.016 47.9372 27.1641 47.3037 27.1641C46.2874 27.1641 45.4648 26.8382 44.8359 26.1865C44.2116 25.5348 43.8994 24.596 43.8994 23.3701ZM45.1641 23.3701C45.1641 24.2998 45.3669 24.9971 45.7725 25.4619C46.1781 25.9222 46.6885 26.1523 47.3037 26.1523C47.9144 26.1523 48.4225 25.9199 48.8281 25.4551C49.2337 24.9902 49.4365 24.2816 49.4365 23.3291C49.4365 22.4313 49.2314 21.7523 48.8213 21.292C48.4157 20.8271 47.9098 20.5947 47.3037 20.5947C46.6885 20.5947 46.1781 20.8249 45.7725 21.2852C45.3669 21.7454 45.1641 22.4404 45.1641 23.3701ZM52.1367 27V19.7402H53.2441V20.8408C53.5267 20.3258 53.7865 19.9863 54.0234 19.8223C54.265 19.6582 54.5293 19.5762 54.8164 19.5762C55.2311 19.5762 55.6527 19.7083 56.0811 19.9727L55.6572 21.1143C55.3564 20.9365 55.0557 20.8477 54.7549 20.8477C54.486 20.8477 54.2445 20.9297 54.0303 21.0938C53.8161 21.2533 53.6634 21.4766 53.5723 21.7637C53.4355 22.2012 53.3672 22.6797 53.3672 23.1992V27H52.1367ZM61.5498 26.1045C61.0941 26.4919 60.6543 26.7653 60.2305 26.9248C59.8112 27.0843 59.36 27.1641 58.877 27.1641C58.0794 27.1641 57.4665 26.9704 57.0381 26.583C56.6097 26.1911 56.3955 25.6921 56.3955 25.0859C56.3955 24.7305 56.4753 24.4069 56.6348 24.1152C56.7988 23.819 57.0107 23.582 57.2705 23.4043C57.5348 23.2266 57.8311 23.0921 58.1592 23.001C58.4007 22.9372 58.7653 22.8757 59.2529 22.8164C60.2464 22.6979 60.9779 22.5566 61.4473 22.3926C61.4518 22.224 61.4541 22.1169 61.4541 22.0713C61.4541 21.57 61.3379 21.2168 61.1055 21.0117C60.791 20.7337 60.3239 20.5947 59.7041 20.5947C59.1253 20.5947 58.6969 20.6973 58.4189 20.9023C58.1455 21.1029 57.9427 21.4606 57.8105 21.9756L56.6074 21.8115C56.7168 21.2965 56.8968 20.8818 57.1475 20.5674C57.3981 20.2484 57.7604 20.0046 58.2344 19.8359C58.7083 19.6628 59.2575 19.5762 59.8818 19.5762C60.5016 19.5762 61.0052 19.6491 61.3926 19.7949C61.7799 19.9408 62.0648 20.1253 62.2471 20.3486C62.4294 20.5674 62.557 20.8454 62.6299 21.1826C62.6709 21.3923 62.6914 21.7705 62.6914 22.3174V23.958C62.6914 25.1019 62.7165 25.8265 62.7666 26.1318C62.8213 26.4326 62.9261 26.722 63.0811 27H61.7959C61.6683 26.7448 61.5863 26.4463 61.5498 26.1045ZM61.4473 23.3564C61.0007 23.5387 60.3307 23.6937 59.4375 23.8213C58.9316 23.8942 58.5739 23.9762 58.3643 24.0674C58.1546 24.1585 57.9928 24.293 57.8789 24.4707C57.765 24.6439 57.708 24.8376 57.708 25.0518C57.708 25.3799 57.8311 25.6533 58.0771 25.8721C58.3278 26.0908 58.6924 26.2002 59.1709 26.2002C59.6449 26.2002 60.0664 26.0977 60.4355 25.8926C60.8047 25.6829 61.0758 25.3981 61.249 25.0381C61.3812 24.7601 61.4473 24.3499 61.4473 23.8076V23.3564ZM67.292 25.8994L67.4697 26.9863C67.1234 27.0592 66.8135 27.0957 66.54 27.0957C66.0934 27.0957 65.7471 27.0251 65.501 26.8838C65.2549 26.7425 65.0817 26.5579 64.9814 26.3301C64.8812 26.0977 64.8311 25.6123 64.8311 24.874V20.6973H63.9287V19.7402H64.8311V17.9424L66.0547 17.2041V19.7402H67.292V20.6973H66.0547V24.9424C66.0547 25.2933 66.0752 25.5189 66.1162 25.6191C66.1618 25.7194 66.2324 25.7992 66.3281 25.8584C66.4284 25.9176 66.5697 25.9473 66.752 25.9473C66.8887 25.9473 67.0687 25.9313 67.292 25.8994ZM68.0439 23.3701C68.0439 22.0257 68.4176 21.0299 69.165 20.3828C69.7894 19.8451 70.5505 19.5762 71.4482 19.5762C72.4463 19.5762 73.262 19.9043 73.8955 20.5605C74.529 21.2122 74.8457 22.1146 74.8457 23.2676C74.8457 24.2018 74.7044 24.9378 74.4219 25.4756C74.1439 26.0088 73.736 26.4235 73.1982 26.7197C72.665 27.016 72.0817 27.1641 71.4482 27.1641C70.432 27.1641 69.6094 26.8382 68.9805 26.1865C68.3561 25.5348 68.0439 24.596 68.0439 23.3701ZM69.3086 23.3701C69.3086 24.2998 69.5114 24.9971 69.917 25.4619C70.3226 25.9222 70.833 26.1523 71.4482 26.1523C72.0589 26.1523 72.5671 25.9199 72.9727 25.4551C73.3783 24.9902 73.5811 24.2816 73.5811 23.3291C73.5811 22.4313 73.376 21.7523 72.9658 21.292C72.5602 20.8271 72.0544 20.5947 71.4482 20.5947C70.833 20.5947 70.3226 20.8249 69.917 21.2852C69.5114 21.7454 69.3086 22.4404 69.3086 23.3701ZM76.2812 27V19.7402H77.3887V20.8408C77.6712 20.3258 77.931 19.9863 78.168 19.8223C78.4095 19.6582 78.6738 19.5762 78.9609 19.5762C79.3757 19.5762 79.7972 19.7083 80.2256 19.9727L79.8018 21.1143C79.501 20.9365 79.2002 20.8477 78.8994 20.8477C78.6305 20.8477 78.389 20.9297 78.1748 21.0938C77.9606 21.2533 77.8079 21.4766 77.7168 21.7637C77.5801 22.2012 77.5117 22.6797 77.5117 23.1992V27H76.2812ZM80.9639 18.3936V16.9785H82.1943V18.3936H80.9639ZM80.9639 27V19.7402H82.1943V27H80.9639ZM88.8115 26.1045C88.3558 26.4919 87.916 26.7653 87.4922 26.9248C87.0729 27.0843 86.6217 27.1641 86.1387 27.1641C85.3411 27.1641 84.7282 26.9704 84.2998 26.583C83.8714 26.1911 83.6572 25.6921 83.6572 25.0859C83.6572 24.7305 83.737 24.4069 83.8965 24.1152C84.0605 23.819 84.2725 23.582 84.5322 23.4043C84.7965 23.2266 85.0928 23.0921 85.4209 23.001C85.6624 22.9372 86.027 22.8757 86.5146 22.8164C87.5081 22.6979 88.2396 22.5566 88.709 22.3926C88.7135 22.224 88.7158 22.1169 88.7158 22.0713C88.7158 21.57 88.5996 21.2168 88.3672 21.0117C88.0527 20.7337 87.5856 20.5947 86.9658 20.5947C86.387 20.5947 85.9587 20.6973 85.6807 20.9023C85.4072 21.1029 85.2044 21.4606 85.0723 21.9756L83.8691 21.8115C83.9785 21.2965 84.1585 20.8818 84.4092 20.5674C84.6598 20.2484 85.0221 20.0046 85.4961 19.8359C85.9701 19.6628 86.5192 19.5762 87.1436 19.5762C87.7633 19.5762 88.2669 19.6491 88.6543 19.7949C89.0417 19.9408 89.3265 20.1253 89.5088 20.3486C89.6911 20.5674 89.8187 20.8454 89.8916 21.1826C89.9326 21.3923 89.9531 21.7705 89.9531 22.3174V23.958C89.9531 25.1019 89.9782 25.8265 90.0283 26.1318C90.083 26.4326 90.1878 26.722 90.3428 27H89.0576C88.93 26.7448 88.848 26.4463 88.8115 26.1045ZM88.709 23.3564C88.2624 23.5387 87.5924 23.6937 86.6992 23.8213C86.1934 23.8942 85.8356 23.9762 85.626 24.0674C85.4163 24.1585 85.2546 24.293 85.1406 24.4707C85.0267 24.6439 84.9697 24.8376 84.9697 25.0518C84.9697 25.3799 85.0928 25.6533 85.3389 25.8721C85.5895 26.0908 85.9541 26.2002 86.4326 26.2002C86.9066 26.2002 87.3281 26.0977 87.6973 25.8926C88.0664 25.6829 88.3376 25.3981 88.5107 25.0381C88.6429 24.7601 88.709 24.3499 88.709 23.8076V23.3564Z" fill="white"/>
<path d="M102.578 15.75L93.3906 6.58594L96.1797 3.75L108.18 15.75L96.1797 27.75L93.3906 24.9375L102.578 15.75Z" fill="#FBBC05"/>
<path d="M16.4297 24.9375L13.6641 27.75L1.66406 15.75L13.6641 3.75L16.4297 6.58594L7.26562 15.75L16.4297 24.9375Z" fill="#FBBC05"/>
</svg>
