<?xml version="1.0" encoding="utf-8"?>
<!-- Generator: Adobe Illustrator 16.0.0, SVG Export Plug-In . SVG Version: 6.00 Build 0)  -->
<!DOCTYPE svg PUBLIC "-//W3C//DTD SVG 1.1//EN" "http://www.w3.org/Graphics/SVG/1.1/DTD/svg11.dtd">
<svg version="1.1" id="Layer_1" xmlns="http://www.w3.org/2000/svg" xmlns:xlink="http://www.w3.org/1999/xlink" x="0px" y="0px"
	 width="33.667px" height="34px" viewBox="-4.721 -5.724 33.667 34" enable-background="new -4.721 -5.724 33.667 34"
	 xml:space="preserve">
<path opacity="0.3" enable-background="new    " d="M14.12,4H9.88L8.05,6H4v12h16V6h-4.05L14.12,4z M12,17c-2.76,0-5-2.24-5-5
	s2.24-5,5-5s5,2.24,5,5S14.76,17,12,17z"/>
<circle fill="#FF009E" cx="12.093" cy="11.432" r="15.445"/>
<path fill="#FFFFFF" stroke="#FFFFFF" stroke-miterlimit="10" d="M17.663,5.812h-2.219l-1.281-1.399H9.964l-1.28,1.399H6.464
	c-0.77,0-1.399,0.631-1.399,1.4v8.399c0,0.769,0.629,1.396,1.399,1.396h11.199c0.769,0,1.397-0.628,1.397-1.396V7.212
	C19.06,6.443,18.431,5.812,17.663,5.812z M18.318,16.228H5.628V6.741H8.84l1.452-1.582h3.362l1.451,1.582h3.214V16.228z
	 M12.083,8.069c-1.694,0-3.071,1.417-3.071,3.161s1.376,3.162,3.071,3.162c1.696,0,3.074-1.417,3.074-3.162
	C15.156,9.485,13.78,8.069,12.083,8.069z M12.083,13.75c-1.384,0-2.518-1.135-2.518-2.52s1.134-2.52,2.518-2.52
	c1.388,0,2.521,1.134,2.521,2.52C14.604,12.614,13.472,13.75,12.083,13.75z"/>
</svg>
