<?xml version="1.0" encoding="utf-8"?>
<!-- Generator: Adobe Illustrator 23.0.5, SVG Export Plug-In . SVG Version: 6.00 Build 0)  -->
<svg version="1.1" id="Layer_1" xmlns="http://www.w3.org/2000/svg" xmlns:xlink="http://www.w3.org/1999/xlink" x="0px" y="0px"
	 viewBox="0 0 650 450" style="enable-background:new 0 0 650 450;" xml:space="preserve">
<style type="text/css">
	.st0{fill:#FFFFFF;}
	.st1{fill:#E8B1E8;}
	.st2{fill:#E88BD0;}
	.st3{fill:#EED0EF;}
	.st4{fill:#E8B1D9;}
	.st5{fill:#E88BC9;}
	.st6{fill:#D88BE8;}
	.st7{fill:#E88BD7;}
	.st8{fill:#EFD0E2;}
	.st9{fill:#EFD0E8;}
	.st10{fill:#E8B1E0;}
	.st11{fill:#F5A784;}
	.st12{fill:#141414;}
	.st13{fill:#0F0F0F;}
	.st14{fill:#E0855C;}
	.st15{fill:#050505;}
	.st16{fill:#FF009E;}
	.st17{fill:#D80592;}
	.st18{clip-path:url(#SVGID_2_);fill:#FF009E;}
	.st19{clip-path:url(#SVGID_4_);fill:#FF009E;}
	.st20{clip-path:url(#SVGID_6_);fill:#FF009E;}
	.st21{clip-path:url(#SVGID_8_);fill:#29AAC9;}
	.st22{clip-path:url(#SVGID_10_);fill:#FF009E;}
	.st23{clip-path:url(#SVGID_12_);fill:#FF009E;}
	.st24{clip-path:url(#SVGID_14_);fill:#FFE521;}
	.st25{fill:#EBD0EF;}
	.st26{fill:#ECD0EF;}
	.st27{fill:#3B2645;}
	.st28{fill:#E8B1D7;}
	.st29{fill:#F5A42A;}
	.st30{fill:#FFE521;}
	.st31{fill:#FFE47A;}
</style>
<rect x="-0.2" y="0.8" class="st0" width="650" height="450"/>
<g>
	<g>
		<path class="st1" d="M611.9,399.8H428.1c0.4-2.4,1.4-4.6,2.8-6.7c0.8-1.2,1.7-2.4,2.6-3.6c1.8-2.2,3.8-4.3,5.6-6.3
			c3.1-3.5,5.9-7.2,8.5-11.1c1.8-2.7,3.4-5.5,5-8.3c3.1-5.7,5.8-11.6,8.2-17.5c2.4-5.8,4.6-11.7,8.5-16.6c5-6.2,12.1-10.1,18.4-14.9
			c0.3-0.3,0.6-0.5,1-0.8c5.5-4.3,10.6-9.3,16.9-12.1c11.4-5,25.9-1.5,33.7,8.2c5.2,6.5,7.6,15.2,12.4,21.8c1.4,1.9,3,3.6,4.9,5
			c1.9,1.4,3.9,2.4,6.1,3.3c4.5,1.9,9.4,3.2,13.4,6c0.8,0.6,1.6,1.3,2.4,2c1.6,1.5,2.9,3.1,4.1,5c2.3,3.5,3.9,7.5,5.2,11.5
			c2.3,7,3.9,14.4,7.7,20.8c2,3.3,4.7,6.3,8,8.3c2.2,1.4,7.5,2.2,8.4,4.9C611.8,399.2,611.9,399.5,611.9,399.8z"/>
		<path class="st2" d="M578.2,385.3c-8.4,4.8-16.8,9.6-25.1,14.5h-26.1c-4.4-11.3-0.5-32.1,4.3-39.2c2.4-3.5,5.8-6.2,8.5-9.4
			c4.9-5.8,7.5-13.1,11.8-19.2c0.1-0.1,0.1-0.2,0.2-0.3c2.4-3.5,13.4-14.7,17.1-7.1c1.6,3.2-3.3,10.8-6.3,15.7
			c-0.8,1.2-1.4,2.3-1.8,3c-3.9,7.7-8,15.4-12.3,23c-2.5,4.5-4.9,10.7-1.3,14.3c1.5-6,3.2-12.2,7.4-16.8c2.4-2.6,5.5-4.5,8.6-6.3
			c2.2-1.3,10-7.3,15.2-9.4c1.8-0.8,3.3-1,4.1-0.3c1.2,1.1,0.9,3.1,0,5.3c-1.1,2.7-3.1,5.5-4,6.5c-3.2,3.6-7.4,6.2-11,9.5
			c-5.3,4.9-9.3,11.2-11.2,18.1c5.1-5.9,12-10.3,19.6-12.5c2.6-0.8,6-1,7.5,1.2C585.6,379.4,581.6,383.3,578.2,385.3z"/>
		<path class="st3" d="M537.4,399.8H241.2c1.1-0.9,2.1-1.9,3-3.1c2.3-3.4-0.2-4.3-0.1-8.5c0.2-11.3,1.3-24.2,10.2-31.3
			c3.9-3,8.7-4.5,13.5-6c4.8-1.6,9.6-3.2,13.2-6.6c9.9-9.4,6.8-27.7,17.4-36.2c7.9-6.3,19.6-4.1,29-8c10.4-4.2,16.2-15,22-24.5
			c5.8-9.6,13.7-19.6,24.8-20.6c12.8-1.2,24.3,10.3,37.1,8.8c5.1-0.6,10.3-3.2,15-1.3c7.3,3,7,13.4,10.9,20.3
			c4,7.1,12.5,10.3,20.5,12.1c8,1.8,16.5,3,22.9,8.1c3.7,3,6.2,6.8,8,11.1c5.4,12.6,5.3,29.3,14.8,39.6c6.9,7.4,17.7,10.2,24.6,17.7
			C534.9,378.8,536.5,389.5,537.4,399.8z"/>
		<path class="st4" d="M308.8,399.8H30.4c0-3.6,3.4-8.6,6.2-11.3c5-4.8,11.4-8.2,15.9-13.5c0.9-1.1,1.7-2.2,2.4-3.4
			c4-6.5,5-14.3,4.8-22.1c-0.1-3.2-0.4-6.3-0.8-9.4c-1.6-12-4.5-24.5-0.7-36.1c5.3-16.5,25.1-27.7,43.2-24.4
			c25.4,4.6,41.6,32.5,67.4,34.1c11.8,0.7,23-4.4,34.1-8.1c9.4-3.1,19.3-5.2,29.2-4.2c9.9,1,19.7,5.5,25.1,13.3
			c7.5,11,5,25.5,9.9,37.6c0.2,0.5,0.5,1.1,0.7,1.6c3.1,6.5,8.4,12.1,15,15.7c6.4,3.5,14.1,5.2,19.3,10.3
			C307.3,385.1,308.6,392.5,308.8,399.8z"/>
		<path class="st5" d="M97.7,350.5c-0.2,2-0.9,3.9-1.8,5.6c-0.3,0.5-0.6,1.1-0.9,1.6c-0.4,0.6-0.8,1.3-1.2,1.9
			c-1.8,2.8-3.7,5.7-4.1,9c-0.2,1.4-0.1,2.9-0.1,4.3c0,0.5,0,1.1-0.1,1.6c-0.1,0.7-0.2,1.4-0.4,2.1c-1.3,4.1-5.9,6.5-7.3,10.6
			c-0.8,2.3-0.5,4.7-0.3,7.1c0.1,1.5-0.1,3.5-0.7,5.4h-7.6c-2.4-4.6-2.2-9.5-7.4-13.1c-3-2-6.7-3.3-8.8-6.2c-1.7-2.4-1.8-5.4-2-8.4
			c0-0.5,0-0.9-0.1-1.4c0-0.3,0-0.6-0.1-0.9c-0.1-1.3-0.4-2.5-0.8-3.7c-1.6-4.3-5.8-7.1-8.4-11c-0.5-0.7-0.8-1.4-1.2-2.1
			c-0.2-0.4-0.3-0.8-0.5-1.2c-1.6-4.4-1.2-9.5,1.2-13.6c0.5-0.9,1.2-1.8,2-2.4c0.4-0.3,0.8-0.5,1.2-0.7c0.1,0,0.2,0,0.2-0.1
			c1.2-0.4,2.6-0.1,3.8,0.4c4,1.9,5.3,6.5,7.1,10.8c0.1,0.2,0.2,0.5,0.3,0.7c0.3,0.7,0.6,1.4,1,2c0.8,1.5,1.7,2.8,3,3.9
			c1.1,0.9,2.3,1.5,3.4,2.4c2,1.8,2.7,4.4,3.1,7.1c0.1,0.8,0.2,1.6,0.2,2.5c0,0.7,0.1,1.4,0.1,2.1c0.2,4.1,1.3,9,5.1,10.6
			c-0.3-3.3-0.5-6.6,0.4-9.7c0.2-0.6,0.4-1.2,0.6-1.8c0.1-0.3,0.2-0.5,0.4-0.8c1-1.9,2.6-3.5,3.6-5.3c1.5-2.6,2-5.6,2.8-8.4
			c0.1-0.5,0.3-1,0.4-1.4c0.1-0.4,0.2-0.7,0.4-1.1c1.4-3.6,4.8-7,8.6-6.2c0.2,0,0.4,0.1,0.6,0.2c0.6,0.2,1.1,0.5,1.6,0.9
			C96.9,345.3,97.9,348,97.7,350.5z"/>
		<path class="st6" d="M467.1,389.9c-1.2,0.7-2.6,0.9-3.8,1.4c-4,1.6-6.2,5.7-9.4,8.5h-6.3c-0.3-0.5-0.5-1-0.8-1.5
			c-0.9-1.5-2.5-2.7-4.3-3.1c-2.1-0.4-4.3,0.3-6.4,0.1c-2-0.1-3.9-0.9-5.3-2.3c-0.3-0.3-0.6-0.6-0.9-1c-0.5-0.6-0.9-1.2-0.9-1.9
			c-0.1-0.7,0.3-1.5,1-1.8c1-0.4,1.9,0.5,2.9,0.9c0.2,0.1,0.4,0.1,0.5,0.1c1.4,0.3,2.9-0.3,4.3-0.5c3.2-0.5,6.7,0.8,8.7,3.4
			c-1-2.1-2-4.1-2.5-6.4c-0.5-2.2-0.5-4.7,0.5-6.7c0.6-1.2,1.5-2.2,2-3.4c0.6-1.2,0.8-2.5,1.1-3.8c0.1-0.7,0.3-1.5,0.5-2.2
			c0.8-2.4,2.5-4.4,4.4-6.2c0.7-0.6,1.4-1.3,2-1.9c0.6-0.5,1.2-1,1.9-1.2c-0.3,3.3-0.6,6.7-0.9,10c-0.3,2.8-0.5,5.7-1.1,8.4
			c-0.9,3.8-2.4,7.5-2.4,11.4c0,0.4,0.1,0.8,0.4,0.9c0.5-1.8,1.8-3.3,3.4-4.1c1.2-0.5,2.5-0.7,3.7-1.3c1.2-0.6,2.1-1.5,3.2-2.2
			c1.4-1,3-1.6,4.7-1.9c0.6-0.1,1.2-0.1,1.6,0.2c0.3,0.2,0.5,0.6,0.6,1C470.5,385.6,469.4,388.6,467.1,389.9z"/>
		<path class="st7" d="M271.1,367.7c-0.3,5.6-2.4,11.6-5.8,16.1c-4.1,5.5-13.4,8.4-14,16h-4c-0.7-5.5-3.4-8.7-7.5-12.7
			c-2.3-2.2-4.4-4.9-3.5-8.1c0.2-0.5,1-0.8,1.4-0.2c1.6,2.9,3.1,4.9,5.6,7.1c1.4,1.3,2.8,2.5,4,4.1c-0.6-3.5-1.5-6.9-4-10.1
			c-0.6-0.7,0.3-1.6,1-1c3,2.6,5,6.3,5.9,10.3c2-5.4,5.9-10.5,9.5-14.1c0.7-0.7,1.8,0.2,1.4,1.1c-2,3.8-4.9,7-7,10.7
			c-1,1.7-1.7,3.5-2.2,5.3c1.5-1.7,3.4-3.2,5.3-4.7c3.7-2.8,6.6-5.5,8.7-9.6c1.7-3.3,2.5-7,4.2-10.3
			C270.2,366.8,271.1,367.1,271.1,367.7z"/>
		<path class="st8" d="M95.9,356.1c-0.3,0.5-0.6,1.1-0.9,1.6c-1.7,0-3.4-0.1-5.1,0.2h-0.1c-2.2,3.4-4.5,6.6-5.6,10.5
			c-0.5,1.8-0.8,3.6-1.1,5.5c1.1,0.7,2.1-0.1,4.2-0.5c0.7-0.1,1.5-0.3,2.2-0.3c0,0.5,0,1.1-0.1,1.6c-1.6,0.2-3.3,0.6-5,1.1
			c-0.9,0.3-1.3,0.5-1.9,0.3c-0.2,0.7-0.3,1.4-0.6,2c-0.9,2.7-2,5.3-2.8,8c-1.3,4.6-1.8,9.1-1.9,13.7h-1.9
			c-0.4-3.8-0.8-7.5-2.1-11.1c-1.7-4.7-4.7-8.8-7.4-13c-0.6,0.1-1.2-0.1-1.9-0.3c-1.4-0.4-3.5-1.7-4.7-2.1c-1.4-0.5-2.8-0.9-4.2-1.2
			c0-0.5,0-0.9-0.1-1.4c1.6,0.3,3.1,0.7,4.7,1.3c0.6,0.2,2.7,1.3,3.3,1.4c0.6,0,1,0,1.4-0.1c-0.6-1-1.2-1.9-1.7-2.9
			c-2.4-4.4-4.1-9-6.2-13.5c-2.3,0-5.5-2.2-7.3-2.8c-1.5-0.5-3-0.8-4.5-1.2c-0.2-0.4-0.3-0.8-0.5-1.2c0.7,0.1,1.3,0.2,2,0.4
			c2.9,0.6,6,2.4,8.9,2.8c0.2,0,0.3,0,0.4,0c-0.6-1.3-1.3-2.5-2.1-3.7c-1.7-2.7-3.2-5.4-4.2-8.3c-0.4-1-1-4.5-1.8-7
			c0.4-0.3,0.8-0.5,1.2-0.7c0.1,0,0.2,0,0.2-0.1c1.5,3.1,2.2,7.9,2.9,9.4c1.5,3.4,3.7,6.4,5.6,9.6c1.2-1.4,1.5-4.4,2.3-6.2
			c0.1-0.3,0.3-0.6,0.4-1c0.3,0.7,0.6,1.4,1,2c-0.7,1.7-1.4,3.4-2,5.2c-0.2,0.6-0.3,1.4-0.6,1.9c1.6,3.2,2.7,6.6,4.2,9.9
			c1,2.3,2.2,4.5,3.5,6.6c0.7-0.7,0.8-1.9,1.3-3.3c0.9-2.4,1.9-4.7,3.1-6.9c0.1,0.8,0.2,1.6,0.2,2.5c-0.1,0.1-0.1,0.3-0.2,0.4
			c-1.1,2.4-1.9,4.9-2.8,7.5c-0.1,0.4-0.2,1.2-0.4,1.8c2.4,4,5,7.9,6.7,12.2c1.2,3,1.8,6.1,2.3,9.3c0.2-2,0.4-3.9,0.8-5.8
			c1-5.1,3.2-9.9,4.5-15c-1.2-1.3-2.5-4.4-3.4-5.5c-0.6-0.7-1.3-1.3-1.9-1.9c0.2-0.6,0.4-1.2,0.6-1.8c2.1,1.6,3.9,4.2,5.1,6.3
			c0.1,0.1,0.2,0.3,0.3,0.4c1.1-6.1,3.1-9.9,6.4-15.1c0.1-0.2,0.2-0.3,0.3-0.5c-1.4-2.3-3.1-4.1-5.3-5.6c0.1-0.5,0.3-1,0.4-1.4
			c1.2,0.8,2.4,1.7,3.4,2.8c0.7,0.8,1.4,2.2,2.2,2.9c2.2-4.1,3.4-8.3,3.9-12.8c0.6,0.2,1.1,0.5,1.6,0.9c-0.3,2.9-1.1,5.7-2.2,8.5
			c-0.6,1.4-1.3,2.7-2.1,4c1.2,0.2,2.7-0.2,3.8-0.2C95,356.1,95.4,356.1,95.9,356.1z"/>
		<path class="st9" d="M460.2,389.1c-1.8,1.6-3.8,3.1-5.4,5c-1.6,1.8-2.4,3.6-2.8,5.8h-2.6c-0.5-1.8-1.2-3.5-2.9-4.6
			c-2-1.3-4.6-1.8-7-2.1c-0.2,0-0.3-0.4-0.1-0.5c2.5-0.5,6,0.5,8.1,2c0.8,0.5,1.4,1.2,1.8,2c-0.7-3.6-1.6-7.2-1.8-11
			c-0.3-6.8,3.7-11.5,5.4-17.8c0-0.1,0.1,0,0.1,0c-0.3,3-1.4,5.2-2.5,8c-1.6,4-2,7.8-1.4,12.1c0.4,3,1.4,6.1,1.9,9.3
			c0.3-0.9,0.7-1.9,1.4-2.8c1.8-2.5,4.4-4.6,7.1-5.9C460.1,388.4,460.5,388.8,460.2,389.1z"/>
	</g>
	<path class="st1" d="M145.6,408.3c-8.8-1.4-18.5-0.4-27.4-0.4c-4.5,0-9,0-13.5,0c-4.5,0-9.4-0.5-13.8,0.7c-0.9,0.2-0.9,1.6,0,1.8
		c4.4,1.1,9.3,0.6,13.8,0.7c4.5,0,9,0,13.5,0c8.9,0,18.6,1.1,27.4-0.4C146.8,410.5,146.8,408.5,145.6,408.3z"/>
	<path class="st10" d="M225.4,408.3c-8.8-1.4-18.5-0.4-27.4-0.4c-4.5,0-9,0-13.5,0c-4.5,0-9.4-0.5-13.8,0.7c-0.9,0.2-0.9,1.6,0,1.8
		c4.4,1.1,9.3,0.6,13.8,0.7c4.5,0,9,0,13.5,0c8.9,0,18.6,1.1,27.4-0.4C226.6,410.5,226.6,408.5,225.4,408.3z"/>
	<path class="st1" d="M578.6,408.3c-17-1.4-35.7-0.4-52.9-0.4c-8.7,0-17.4,0-26.1,0c-8.8,0-18.1-0.5-26.6,0.7
		c-1.8,0.2-1.8,1.6,0,1.8c8.5,1.1,17.9,0.6,26.6,0.7c8.7,0,17.4,0,26.1,0c17.3,0,35.9,1.1,52.9-0.4
		C580.9,410.5,580.9,408.5,578.6,408.3z"/>
	<path class="st10" d="M395.9,408.3c-19.9-1.4-41.7-0.4-61.8-0.4c-10.2,0-20.4,0-30.5,0c-10.2,0-21.1-0.5-31.1,0.6
		c-2,0.2-2,1.6,0,1.8c10,1.1,20.9,0.6,31.1,0.6c10.2,0,20.4,0,30.5,0c20.2,0,41.9,1,61.8-0.4C398.6,410.5,398.6,408.5,395.9,408.3z"
		/>
	<path class="st4" d="M73.4,285.9c-0.1,0-0.2,0-0.3-0.1c-0.9-0.8-1.9-1.7-2.8-2.6c-0.2-0.2-0.2-0.5,0-0.7c0.2-0.2,0.5-0.2,0.7,0
		c0.9,0.9,1.8,1.7,2.7,2.6c0.2,0.2,0.2,0.5,0,0.7C73.7,285.9,73.5,285.9,73.4,285.9z M68.1,280.6c-0.1,0-0.3-0.1-0.4-0.2
		c-0.8-1-1.6-1.9-2.4-3c-0.2-0.2-0.1-0.5,0.1-0.7c0.2-0.2,0.5-0.1,0.7,0.1c0.8,1,1.5,2,2.3,2.9c0.2,0.2,0.2,0.5-0.1,0.7
		C68.3,280.5,68.2,280.6,68.1,280.6z M63.6,274.6c-0.2,0-0.3-0.1-0.4-0.2c-0.7-1-1.3-2.1-2-3.2c-0.1-0.2,0-0.5,0.2-0.6
		s0.5,0,0.6,0.2c0.6,1.1,1.3,2.1,1.9,3.2c0.1,0.2,0.1,0.5-0.1,0.6C63.8,274.5,63.7,274.6,63.6,274.6z M513.8,269.6
		c-0.2,0-0.4-0.2-0.5-0.4c0-0.3,0.2-0.5,0.4-0.5c1.1-0.1,2.2-0.2,3.2-0.3c0.3,0,0.5,0.2,0.5,0.4s-0.2,0.5-0.4,0.5
		C516,269.4,515,269.5,513.8,269.6C513.9,269.6,513.8,269.6,513.8,269.6z M520.8,268.8c-0.2,0-0.4-0.2-0.5-0.4
		c0-0.3,0.2-0.5,0.4-0.5c1.2-0.2,2.5-0.3,3.7-0.5c0.3,0,0.5,0.1,0.5,0.4c0,0.3-0.1,0.5-0.4,0.5C523.3,268.5,522.1,268.6,520.8,268.8
		C520.8,268.8,520.8,268.8,520.8,268.8z M59.9,268c-0.2,0-0.3-0.1-0.4-0.3c-0.5-1.1-1.1-2.3-1.6-3.5c-0.1-0.2,0-0.5,0.3-0.6
		c0.2-0.1,0.5,0,0.6,0.3c0.5,1.1,1,2.3,1.5,3.4c0.1,0.2,0,0.5-0.2,0.6C60,268,60,268,59.9,268z M528.2,267.7c-0.2,0-0.4-0.2-0.5-0.4
		c0-0.3,0.1-0.5,0.4-0.5c1.2-0.2,2.5-0.4,3.7-0.6c0.3,0,0.5,0.1,0.5,0.4c0,0.3-0.1,0.5-0.4,0.5C530.8,267.3,529.5,267.5,528.2,267.7
		C528.3,267.7,528.3,267.7,528.2,267.7z M535.6,266.4c-0.2,0-0.4-0.1-0.5-0.4c0-0.3,0.1-0.5,0.4-0.5c1.2-0.3,2.4-0.5,3.7-0.8
		c0.3-0.1,0.5,0.1,0.6,0.4s-0.1,0.5-0.3,0.6C538.2,265.8,536.9,266.1,535.6,266.4C535.7,266.4,535.7,266.4,535.6,266.4z
		 M542.9,264.7c-0.2,0-0.4-0.1-0.5-0.4c-0.1-0.3,0.1-0.5,0.3-0.6c1.2-0.3,2.4-0.6,3.6-1c0.3-0.1,0.5,0.1,0.6,0.3s-0.1,0.5-0.3,0.6
		c-1.2,0.3-2.4,0.7-3.6,1C543,264.7,543,264.7,542.9,264.7z M550.2,262.7c-0.2,0-0.4-0.1-0.5-0.3c-0.1-0.3,0.1-0.5,0.3-0.6
		c1.2-0.4,2.4-0.7,3.6-1.1c0.3-0.1,0.5,0,0.6,0.3s0,0.5-0.3,0.6c-1.2,0.4-2.4,0.8-3.6,1.1C550.3,262.7,550.2,262.7,550.2,262.7z
		 M57,261.1c-0.2,0-0.4-0.1-0.4-0.3c-0.4-1.2-0.8-2.4-1.2-3.6c-0.1-0.3,0.1-0.5,0.3-0.6c0.3-0.1,0.5,0.1,0.6,0.3
		c0.3,1.2,0.7,2.4,1.1,3.5c0.1,0.2,0,0.5-0.3,0.6C57.1,261.1,57.1,261.1,57,261.1z M557.3,260.3c-0.2,0-0.4-0.1-0.4-0.3
		c-0.1-0.2,0-0.5,0.3-0.6c1.2-0.4,2.3-0.9,3.5-1.3c0.2-0.1,0.5,0,0.6,0.3s0,0.5-0.3,0.6c-1.2,0.5-2.3,0.9-3.5,1.3
		C557.4,260.3,557.3,260.3,557.3,260.3z M564.3,257.5c-0.2,0-0.3-0.1-0.4-0.3c-0.1-0.2,0-0.5,0.2-0.6c1.2-0.5,2.3-1,3.4-1.5
		c0.2-0.1,0.5,0,0.6,0.2c0.1,0.2,0,0.5-0.2,0.6c-1.1,0.5-2.3,1.1-3.4,1.6C564.4,257.5,564.3,257.5,564.3,257.5z M571.1,254.3
		c-0.2,0-0.3-0.1-0.4-0.3c-0.1-0.2,0-0.5,0.2-0.6c1.1-0.6,2.2-1.1,3.3-1.8c0.2-0.1,0.5,0,0.6,0.2c0.1,0.2,0,0.5-0.2,0.6
		c-1.1,0.6-2.2,1.2-3.3,1.8C571.2,254.3,571.2,254.3,571.1,254.3z M54.9,253.9c-0.2,0-0.4-0.1-0.5-0.4c-0.3-1.2-0.5-2.5-0.7-3.7
		c0-0.3,0.1-0.5,0.4-0.5c0.3,0,0.5,0.1,0.5,0.4c0.2,1.2,0.5,2.4,0.7,3.7c0.1,0.3-0.1,0.5-0.3,0.6C55,253.9,55,253.9,54.9,253.9z
		 M577.7,250.7c-0.2,0-0.3-0.1-0.4-0.2c-0.1-0.2-0.1-0.5,0.2-0.6c1.1-0.6,2.1-1.3,3.2-2c0.2-0.1,0.5-0.1,0.7,0.1s0.1,0.5-0.1,0.6
		c-1.1,0.7-2.1,1.4-3.2,2C577.8,250.7,577.7,250.7,577.7,250.7z M584,246.6c-0.2,0-0.3-0.1-0.4-0.2c-0.2-0.2-0.1-0.5,0.1-0.6
		c1-0.7,2-1.4,3-2.2c0.2-0.2,0.5-0.1,0.7,0.1c0.2,0.2,0.1,0.5-0.1,0.7c-1,0.8-2,1.5-3,2.2C584.2,246.6,584.1,246.6,584,246.6z
		 M53.7,246.5c-0.2,0-0.4-0.2-0.5-0.4c-0.2-1.2-0.3-2.5-0.3-3.8c0-0.3,0.2-0.5,0.4-0.5c0.3,0,0.5,0.2,0.5,0.4
		c0.1,1.2,0.2,2.5,0.3,3.7C54.1,246.2,54,246.5,53.7,246.5C53.7,246.5,53.7,246.5,53.7,246.5z M589.9,242.1c-0.1,0-0.3-0.1-0.4-0.2
		c-0.2-0.2-0.1-0.5,0.1-0.7c1-0.8,1.9-1.6,2.8-2.4c0.2-0.2,0.5-0.2,0.7,0s0.2,0.5,0,0.7c-0.9,0.8-1.9,1.7-2.9,2.5
		C590.2,242,590,242.1,589.9,242.1z M53.2,239c-0.3,0-0.5-0.2-0.5-0.5v-0.7c0-1,0-2.1,0.1-3.1c0-0.3,0.2-0.5,0.5-0.4
		c0.3,0,0.5,0.2,0.5,0.5c0,1-0.1,2-0.1,3v0.7C53.7,238.8,53.5,239,53.2,239z M595.5,237.1c-0.1,0-0.2-0.1-0.3-0.1
		c-0.2-0.2-0.2-0.5,0-0.7c0.9-0.9,1.8-1.8,2.6-2.7c0.2-0.2,0.5-0.2,0.7,0c0.2,0.2,0.2,0.5,0,0.7c-0.9,0.9-1.8,1.8-2.7,2.7
		C595.8,237,595.6,237.1,595.5,237.1z M600.7,231.6c-0.1,0-0.2,0-0.3-0.1c-0.2-0.2-0.2-0.5,0-0.7c0.8-0.9,1.6-1.9,2.4-2.9
		c0.2-0.2,0.5-0.2,0.7-0.1c0.2,0.2,0.2,0.5,0.1,0.7c-0.8,1-1.6,2-2.4,2.9C600.9,231.5,600.8,231.6,600.7,231.6z M53.5,231.5
		c-0.3,0-0.5-0.3-0.5-0.5c0.1-1.3,0.3-2.5,0.5-3.8c0-0.3,0.3-0.4,0.5-0.4c0.3,0,0.4,0.3,0.4,0.5c-0.2,1.2-0.3,2.5-0.5,3.7
		C54,231.3,53.8,231.5,53.5,231.5z M605.3,225.7c-0.1,0-0.2,0-0.3-0.1c-0.2-0.1-0.3-0.4-0.1-0.7c0.7-1,1.5-2,2.1-3.1
		c0.1-0.2,0.4-0.3,0.7-0.1c0.2,0.1,0.3,0.4,0.1,0.6c-0.7,1-1.4,2.1-2.2,3.1C605.6,225.6,605.5,225.7,605.3,225.7z M54.7,224.1
		C54.6,224.1,54.6,224.1,54.7,224.1c-0.3-0.1-0.5-0.3-0.5-0.6c0.3-1.2,0.5-2.5,0.9-3.7c0.1-0.3,0.3-0.4,0.6-0.3
		c0.3,0.1,0.4,0.3,0.3,0.6c-0.3,1.2-0.6,2.4-0.9,3.6C55.1,223.9,54.9,224.1,54.7,224.1z M609.5,219.4c-0.1,0-0.2,0-0.2-0.1
		c-0.2-0.1-0.3-0.4-0.2-0.6c0.6-1.1,1.3-2.2,1.8-3.3c0.1-0.2,0.4-0.3,0.6-0.2c0.2,0.1,0.3,0.4,0.2,0.6c-0.6,1.1-1.2,2.2-1.9,3.3
		C609.8,219.4,609.7,219.4,609.5,219.4z M56.6,216.8c0,0-0.1,0-0.2,0c-0.3-0.1-0.4-0.4-0.3-0.6c0.4-1.2,0.8-2.4,1.3-3.6
		c0.1-0.2,0.4-0.4,0.6-0.3s0.4,0.4,0.3,0.6c-0.5,1.1-0.9,2.3-1.3,3.5C57,216.7,56.8,216.8,56.6,216.8z M613,212.8
		c-0.1,0-0.1,0-0.2-0.1c-0.2-0.1-0.3-0.4-0.2-0.6c0.5-1.1,1-2.3,1.5-3.4c0.1-0.2,0.4-0.4,0.6-0.3c0.2,0.1,0.3,0.4,0.3,0.6
		c-0.5,1.1-1,2.3-1.5,3.5C613.4,212.7,613.2,212.8,613,212.8z M59.4,209.8c-0.1,0-0.1,0-0.2,0c-0.2-0.1-0.3-0.4-0.2-0.6
		c0.5-1.1,1.1-2.3,1.7-3.4c0.1-0.2,0.4-0.3,0.6-0.2s0.3,0.4,0.2,0.6c-0.6,1.1-1.2,2.2-1.7,3.3C59.7,209.7,59.5,209.8,59.4,209.8z
		 M615.9,205.9c0,0-0.1,0-0.2,0c-0.2-0.1-0.4-0.4-0.3-0.6c0.4-1.2,0.8-2.4,1.2-3.6c0.1-0.3,0.3-0.4,0.6-0.3c0.3,0.1,0.4,0.3,0.3,0.6
		c-0.3,1.2-0.7,2.4-1.2,3.6C616.3,205.8,616.1,205.9,615.9,205.9z M63,203.3c-0.1,0-0.2,0-0.3-0.1c-0.2-0.1-0.3-0.4-0.2-0.6
		c0.7-1.1,1.4-2.1,2.1-3.1c0.2-0.2,0.4-0.3,0.7-0.1c0.2,0.1,0.3,0.4,0.1,0.7c-0.7,1-1.4,2-2.1,3.1C63.3,203.2,63.1,203.3,63,203.3z
		 M407.4,202.5c-0.5,0-0.9,0-1.4,0c-0.3,0-0.5-0.2-0.5-0.5c0-0.3,0.2-0.4,0.5-0.5c1.3,0,2.5,0,3.7,0c0.3,0,0.5,0.2,0.5,0.5
		c0,0.3-0.2,0.5-0.5,0.5C408.9,202.5,408.1,202.5,407.4,202.5z M402.2,202.4c-1.3-0.1-2.5-0.2-3.8-0.3c-0.3,0-0.5-0.3-0.4-0.5
		c0-0.3,0.2-0.4,0.5-0.4c1.2,0.1,2.5,0.2,3.7,0.3c0.3,0,0.5,0.2,0.4,0.5C402.6,202.2,402.4,202.4,402.2,202.4z M413.5,202.3
		c-0.3,0-0.5-0.2-0.5-0.4c0-0.3,0.2-0.5,0.4-0.5c1.2-0.1,2.5-0.2,3.7-0.3c0.3,0,0.5,0.2,0.5,0.4c0,0.3-0.2,0.5-0.4,0.5
		C416,202.1,414.7,202.2,413.5,202.3L413.5,202.3z M394.7,201.7C394.7,201.7,394.7,201.7,394.7,201.7c-1.3-0.2-2.6-0.4-3.8-0.6
		c-0.3,0-0.4-0.3-0.4-0.5c0-0.3,0.3-0.4,0.5-0.4c1.2,0.2,2.5,0.4,3.7,0.6c0.3,0,0.4,0.3,0.4,0.5C395.1,201.5,395,201.7,394.7,201.7z
		 M420.9,201.6c-0.2,0-0.4-0.2-0.5-0.4c0-0.3,0.1-0.5,0.4-0.5c1.2-0.2,2.5-0.4,3.7-0.6c0.3,0,0.5,0.1,0.5,0.4c0,0.3-0.1,0.5-0.4,0.5
		C423.5,201.2,422.2,201.4,420.9,201.6C421,201.6,421,201.6,420.9,201.6z M387.3,200.4c0,0-0.1,0-0.1,0c-1.2-0.3-2.5-0.6-3.7-0.9
		c-0.3-0.1-0.4-0.3-0.3-0.6c0.1-0.3,0.3-0.4,0.6-0.3c1.2,0.3,2.4,0.6,3.6,0.9c0.3,0.1,0.4,0.3,0.4,0.6
		C387.7,200.3,387.5,200.4,387.3,200.4z M428.3,200.3c-0.2,0-0.4-0.1-0.5-0.4c0-0.3,0.1-0.5,0.4-0.6c1.2-0.3,2.4-0.6,3.6-0.9
		c0.3-0.1,0.5,0.1,0.6,0.3s-0.1,0.5-0.3,0.6c-1.2,0.3-2.4,0.6-3.7,0.9C428.4,200.3,428.4,200.3,428.3,200.3z M618,198.7
		c0,0-0.1,0-0.1,0c-0.3-0.1-0.4-0.3-0.3-0.6c0.3-1.2,0.5-2.4,0.7-3.6c0-0.3,0.3-0.4,0.5-0.4c0.3,0,0.4,0.3,0.4,0.5
		c-0.2,1.2-0.5,2.5-0.8,3.7C618.4,198.5,618.2,198.7,618,198.7z M380,198.5c0,0-0.1,0-0.1,0c-1.2-0.4-2.4-0.8-3.6-1.2
		c-0.2-0.1-0.4-0.4-0.3-0.6s0.4-0.4,0.6-0.3c1.2,0.4,2.4,0.8,3.5,1.2c0.3,0.1,0.4,0.3,0.3,0.6C380.4,198.4,380.3,198.5,380,198.5z
		 M435.6,198.4c-0.2,0-0.4-0.1-0.5-0.3c-0.1-0.3,0.1-0.5,0.3-0.6c1.2-0.4,2.4-0.7,3.6-1.1c0.3-0.1,0.5,0.1,0.6,0.3
		c0.1,0.3,0,0.5-0.3,0.6c-1.2,0.4-2.4,0.8-3.6,1.1C435.7,198.4,435.6,198.4,435.6,198.4z M67.4,197.2c-0.1,0-0.2,0-0.3-0.1
		c-0.2-0.2-0.2-0.5-0.1-0.7c0.8-1,1.7-1.9,2.5-2.8c0.2-0.2,0.5-0.2,0.7,0c0.2,0.2,0.2,0.5,0,0.7c-0.8,0.9-1.7,1.8-2.5,2.8
		C67.7,197.1,67.5,197.2,67.4,197.2z M373,196.1c-0.1,0-0.1,0-0.2,0c-1.2-0.5-2.3-1-3.5-1.5c-0.2-0.1-0.3-0.4-0.2-0.6
		c0.1-0.2,0.4-0.3,0.6-0.2c1.1,0.5,2.3,1,3.4,1.5c0.2,0.1,0.4,0.4,0.3,0.6C373.3,195.9,373.1,196.1,373,196.1z M442.7,196
		c-0.2,0-0.4-0.1-0.4-0.3c-0.1-0.2,0-0.5,0.3-0.6c0.7-0.3,1.4-0.5,2.1-0.8c0.5-0.2,0.9-0.4,1.4-0.6c0.2-0.1,0.5,0,0.6,0.3
		c0.1,0.2,0,0.5-0.3,0.6c-0.5,0.2-0.9,0.4-1.4,0.6c-0.7,0.3-1.4,0.6-2.1,0.8C442.8,196,442.8,196,442.7,196z M449.6,193
		c-0.2,0-0.4-0.1-0.4-0.3c-0.1-0.2,0-0.5,0.2-0.6c1.1-0.5,2.2-1.1,3.4-1.6c0.2-0.1,0.5,0,0.6,0.2c0.1,0.2,0,0.5-0.2,0.6
		c-1.1,0.6-2.3,1.1-3.4,1.6C449.8,193,449.7,193,449.6,193z M366.1,193c-0.1,0-0.1,0-0.2-0.1c-1.1-0.6-2.2-1.2-3.3-1.8
		c-0.2-0.1-0.3-0.4-0.2-0.6s0.4-0.3,0.6-0.2c1.1,0.6,2.2,1.2,3.3,1.8c0.2,0.1,0.3,0.4,0.2,0.6C366.4,192.9,366.3,193,366.1,193z
		 M72.6,191.8c-0.1,0-0.3-0.1-0.3-0.1c-0.2-0.2-0.2-0.5,0-0.7c0.9-0.8,1.9-1.6,2.9-2.5c0.2-0.2,0.5-0.1,0.7,0.1
		c0.2,0.2,0.1,0.5-0.1,0.7c-1,0.8-1.9,1.6-2.8,2.4C72.8,191.7,72.7,191.8,72.6,191.8z M619.3,191.3
		C619.3,191.3,619.2,191.3,619.3,191.3c-0.3,0-0.5-0.3-0.5-0.5c0.1-0.8,0.2-1.6,0.2-2.4c0-0.4,0.1-0.9,0.1-1.3
		c0-0.3,0.2-0.5,0.5-0.4c0.3,0,0.5,0.2,0.5,0.5c0,0.4,0,0.9-0.1,1.4c-0.1,0.8-0.1,1.6-0.2,2.4C619.7,191.1,619.5,191.3,619.3,191.3z
		 M456.3,189.6c-0.2,0-0.3-0.1-0.4-0.2c-0.1-0.2,0-0.5,0.2-0.6c1.1-0.6,2.2-1.2,3.2-1.9c0.2-0.1,0.5-0.1,0.6,0.2s0.1,0.5-0.2,0.6
		c-1.1,0.6-2.2,1.3-3.3,1.9C456.5,189.6,456.4,189.6,456.3,189.6z M359.6,189.3c-0.1,0-0.2,0-0.3-0.1c-1.1-0.7-2.1-1.4-3.2-2.1
		c-0.2-0.1-0.3-0.4-0.1-0.6c0.1-0.2,0.4-0.3,0.6-0.1c1,0.7,2,1.4,3.1,2c0.2,0.1,0.3,0.4,0.1,0.6
		C359.9,189.2,359.7,189.3,359.6,189.3z M78.4,187c-0.1,0-0.3-0.1-0.4-0.2c-0.2-0.2-0.1-0.5,0.1-0.7c1-0.8,2-1.5,3.1-2.2
		c0.2-0.1,0.5-0.1,0.7,0.1c0.2,0.2,0.1,0.5-0.1,0.6c-1,0.7-2,1.4-3,2.2C78.6,187,78.5,187,78.4,187z M462.8,185.8
		c-0.1,0-0.3-0.1-0.4-0.2c-0.1-0.2-0.1-0.5,0.1-0.6c1.1-0.7,2.1-1.4,3.1-2.1c0.2-0.1,0.5-0.1,0.7,0.1c0.1,0.2,0.1,0.5-0.1,0.7
		c-1,0.7-2,1.4-3.1,2.1C463,185.8,462.9,185.8,462.8,185.8z M353.4,185c-0.1,0-0.2,0-0.3-0.1c-1-0.8-2-1.6-2.9-2.4
		c-0.2-0.2-0.2-0.5,0-0.7c0.2-0.2,0.5-0.2,0.7-0.1c0.9,0.8,1.9,1.6,2.9,2.4c0.2,0.2,0.2,0.4,0.1,0.7C353.7,185,353.5,185,353.4,185z
		 M619.6,183.8c-0.3,0-0.5-0.2-0.5-0.4c0-1.2-0.2-2.5-0.3-3.7c0-0.3,0.2-0.5,0.4-0.5c0.3,0,0.5,0.1,0.5,0.4c0.2,1.3,0.3,2.5,0.3,3.8
		C620.1,183.6,619.9,183.8,619.6,183.8L619.6,183.8z M84.6,182.7c-0.2,0-0.3-0.1-0.4-0.2c-0.1-0.2-0.1-0.5,0.1-0.6l3.1-2.1
		c0.2-0.1,0.5-0.1,0.7,0.1c0.2,0.2,0.1,0.5-0.1,0.6l-3.1,2.1C84.7,182.7,84.6,182.7,84.6,182.7z M468.9,181.4
		c-0.1,0-0.3-0.1-0.4-0.2c-0.2-0.2-0.1-0.5,0.1-0.7c1-0.8,1.9-1.6,2.8-2.4c0.2-0.2,0.5-0.2,0.7,0s0.2,0.5,0,0.7
		c-0.9,0.8-1.9,1.7-2.9,2.5C469,181.3,469,181.4,468.9,181.4z M347.7,180.1c-0.1,0-0.2-0.1-0.3-0.1c-0.9-0.9-1.8-1.8-2.6-2.8
		c-0.2-0.2-0.1-0.5,0-0.7c0.2-0.2,0.5-0.1,0.7,0.1c0.8,0.9,1.7,1.8,2.5,2.7c0.2,0.2,0.2,0.5,0,0.7C348,180,347.9,180.1,347.7,180.1z
		 M90.8,178.5c-0.2,0-0.3-0.1-0.4-0.2c-0.2-0.2-0.1-0.5,0.1-0.6c1-0.7,2-1.4,3.1-2.2c0.2-0.1,0.5-0.1,0.7,0.1
		c0.2,0.2,0.1,0.5-0.1,0.7c-1,0.7-2,1.5-3.1,2.2C91,178.5,90.9,178.5,90.8,178.5z M618.7,176.3c-0.2,0-0.4-0.1-0.5-0.4
		c-0.2-1.2-0.5-2.4-0.9-3.6c-0.1-0.3,0.1-0.5,0.3-0.6s0.5,0.1,0.6,0.3c0.3,1.2,0.6,2.5,0.9,3.7C619.2,176,619.1,176.3,618.7,176.3
		C618.8,176.3,618.7,176.3,618.7,176.3z M474.4,176.3c-0.1,0-0.2,0-0.3-0.1c-0.2-0.2-0.2-0.5,0-0.7c0.9-0.9,1.7-1.9,2.5-2.8
		c0.2-0.2,0.5-0.2,0.7-0.1c0.2,0.2,0.2,0.5,0.1,0.7c-0.8,0.9-1.6,1.9-2.5,2.9C474.6,176.2,474.5,176.3,474.4,176.3z M342.8,174.4
		c-0.1,0-0.3-0.1-0.4-0.2c-0.7-1-1.5-2.1-2.1-3.1c-0.1-0.2-0.1-0.5,0.1-0.6s0.5-0.1,0.6,0.1c0.7,1.1,1.4,2.1,2.1,3.1
		c0.2,0.2,0.1,0.5-0.1,0.7C343,174.4,342.9,174.4,342.8,174.4z M96.8,174c-0.1,0-0.3-0.1-0.4-0.2c-0.2-0.2-0.1-0.5,0.1-0.7
		c0.8-0.6,1.6-1.3,2.3-1.9l0.5-0.5c0.2-0.2,0.5-0.1,0.7,0c0.2,0.2,0.2,0.5,0,0.7l-0.5,0.5c-0.7,0.6-1.5,1.3-2.4,2
		C97,174,96.9,174,96.8,174z M479.1,170.4c-0.1,0-0.2,0-0.3-0.1c-0.2-0.1-0.3-0.4-0.1-0.6l2.1-3.1c0.1-0.2,0.4-0.3,0.6-0.1
		c0.2,0.1,0.3,0.4,0.1,0.6l-2.1,3.1C479.4,170.4,479.2,170.4,479.1,170.4z M102.5,169.1c-0.1,0-0.3-0.1-0.3-0.1
		c-0.2-0.2-0.2-0.5,0-0.7c0.9-0.8,1.8-1.7,2.7-2.6c0.2-0.2,0.5-0.2,0.7,0c0.2,0.2,0.2,0.5,0,0.7c-0.9,0.9-1.8,1.7-2.7,2.6
		C102.7,169.1,102.6,169.1,102.5,169.1z M616.7,169.1c-0.2,0-0.4-0.1-0.4-0.3c-0.4-1.2-0.9-2.3-1.4-3.5c-0.1-0.2,0-0.5,0.3-0.6
		c0.2-0.1,0.5,0,0.6,0.3c0.5,1.2,1,2.4,1.4,3.5c0.1,0.2,0,0.5-0.3,0.6C616.8,169.1,616.8,169.1,616.7,169.1z M338.8,168.1
		c-0.2,0-0.3-0.1-0.4-0.3c-0.6-1.1-1.1-2.2-1.7-3.4c-0.1-0.2,0-0.5,0.2-0.6c0.2-0.1,0.5,0,0.6,0.2c0.5,1.1,1.1,2.3,1.7,3.3
		c0.1,0.2,0,0.5-0.2,0.6C338.9,168.1,338.9,168.1,338.8,168.1z M483.3,164.3c-0.1,0-0.2,0-0.3-0.1c-0.2-0.1-0.3-0.4-0.1-0.6
		c0.7-1,1.4-2.1,2.2-3.1c0.1-0.2,0.4-0.3,0.6-0.1s0.3,0.4,0.1,0.6c-0.7,1-1.4,2-2.1,3.1C483.6,164.2,483.5,164.3,483.3,164.3z
		 M107.9,163.9c-0.1,0-0.2-0.1-0.3-0.1c-0.2-0.2-0.2-0.5,0-0.7c0.9-0.9,1.8-1.8,2.6-2.7c0.2-0.2,0.5-0.2,0.7,0
		c0.2,0.2,0.2,0.5,0,0.7c-0.9,0.9-1.7,1.8-2.6,2.7C108.1,163.9,108,163.9,107.9,163.9z M613.8,162.2c-0.2,0-0.3-0.1-0.4-0.3
		c-0.5-1.1-1.2-2.2-1.8-3.3c-0.1-0.2,0-0.5,0.2-0.6s0.5-0.1,0.6,0.2c0.6,1.1,1.2,2.2,1.8,3.3c0.1,0.2,0,0.5-0.2,0.6
		C613.9,162.2,613.8,162.2,613.8,162.2z M335.6,161.3c-0.2,0-0.4-0.1-0.4-0.3c-0.5-1.1-0.9-2.3-1.3-3.5c-0.1-0.3,0-0.5,0.3-0.6
		c0.2-0.1,0.5,0.1,0.6,0.3c0.4,1.2,0.8,2.4,1.3,3.5c0.1,0.2,0,0.5-0.3,0.6C335.7,161.3,335.7,161.3,335.6,161.3z M113.1,158.5
		c-0.1,0-0.2,0-0.3-0.1c-0.2-0.2-0.2-0.5,0-0.7c0.8-0.9,1.7-1.9,2.5-2.8c0.2-0.2,0.5-0.2,0.7-0.1c0.2,0.2,0.2,0.5,0.1,0.7
		c-0.8,0.9-1.7,1.9-2.5,2.8C113.3,158.4,113.2,158.5,113.1,158.5z M487.7,158.1c-0.1,0-0.2,0-0.3-0.1c-0.2-0.1-0.3-0.4-0.1-0.7
		c0.7-1,1.5-2,2.3-3c0.2-0.2,0.5-0.3,0.7-0.1s0.3,0.4,0.1,0.7c-0.8,1-1.5,2-2.2,3C488,158.1,487.8,158.1,487.7,158.1z M610,155.7
		c-0.2,0-0.3-0.1-0.4-0.2c-0.7-1-1.4-2.1-2.1-3.1c-0.2-0.2-0.1-0.5,0.1-0.7c0.2-0.1,0.5-0.1,0.7,0.1c0.7,1,1.5,2.1,2.2,3.1
		c0.1,0.2,0.1,0.5-0.1,0.6C610.2,155.6,610.1,155.7,610,155.7z M333.2,154.2c-0.2,0-0.4-0.1-0.5-0.3c-0.4-1.2-0.7-2.4-1-3.6
		c-0.1-0.3,0.1-0.5,0.3-0.6s0.5,0.1,0.6,0.3c0.3,1.2,0.7,2.4,1,3.6c0.1,0.3-0.1,0.5-0.3,0.6C333.3,154.2,333.2,154.2,333.2,154.2z
		 M118,152.8c-0.1,0-0.2,0-0.3-0.1c-0.2-0.2-0.2-0.5-0.1-0.7c0.8-1,1.6-1.9,2.4-2.9c0.2-0.2,0.5-0.2,0.7-0.1
		c0.2,0.2,0.2,0.5,0.1,0.7c-0.8,1-1.6,2-2.4,2.9C118.3,152.7,118.1,152.8,118,152.8z M492.2,152.1c-0.1,0-0.2,0-0.3-0.1
		c-0.2-0.2-0.2-0.5-0.1-0.7c0.8-1,1.6-1.9,2.4-2.9c0.2-0.2,0.5-0.2,0.7-0.1c0.2,0.2,0.2,0.5,0,0.7c-0.8,0.9-1.6,1.9-2.4,2.9
		C492.5,152.1,492.4,152.1,492.2,152.1z M605.6,149.6c-0.1,0-0.3-0.1-0.4-0.2c-0.8-1-1.6-1.9-2.4-2.9c-0.2-0.2-0.2-0.5,0-0.7
		c0.2-0.2,0.5-0.2,0.7,0c0.8,0.9,1.7,1.9,2.5,2.9c0.2,0.2,0.1,0.5-0.1,0.7C605.8,149.6,605.7,149.6,605.6,149.6z M331.2,146.9
		c-0.2,0-0.4-0.1-0.5-0.4c-0.3-1.2-0.6-2.4-0.9-3.7c-0.1-0.3,0.1-0.5,0.4-0.6s0.5,0.1,0.6,0.4c0.3,1.2,0.6,2.4,0.9,3.6
		c0.1,0.3-0.1,0.5-0.3,0.6C331.3,146.9,331.3,146.9,331.2,146.9z M122.7,146.9c-0.1,0-0.2,0-0.3-0.1c-0.2-0.2-0.3-0.4-0.1-0.7
		c0.8-1,1.5-2,2.2-3c0.2-0.2,0.4-0.3,0.7-0.1c0.2,0.1,0.3,0.4,0.1,0.6c-0.7,1-1.5,2-2.2,3C122.9,146.8,122.8,146.9,122.7,146.9z
		 M497.1,146.4c-0.1,0-0.2,0-0.3-0.1c-0.2-0.2-0.2-0.5,0-0.7c0.9-0.9,1.8-1.9,2.6-2.7c0.2-0.2,0.5-0.2,0.7,0s0.2,0.5,0,0.7
		c-0.9,0.9-1.7,1.8-2.6,2.7C497.4,146.4,497.2,146.4,497.1,146.4z M600.6,144c-0.1,0-0.2-0.1-0.3-0.1c-0.9-0.9-1.8-1.8-2.7-2.6
		c-0.2-0.2-0.2-0.5,0-0.7c0.2-0.2,0.5-0.2,0.7,0c0.9,0.9,1.8,1.7,2.7,2.6c0.2,0.2,0.2,0.5,0,0.7C600.8,143.9,600.7,144,600.6,144z
		 M502.4,141.1c-0.1,0-0.3-0.1-0.4-0.1c-0.2-0.2-0.2-0.5,0-0.7c0.9-0.9,1.9-1.7,2.8-2.5c0.2-0.2,0.5-0.1,0.7,0.1
		c0.2,0.2,0.1,0.5-0.1,0.7c-0.9,0.8-1.9,1.6-2.8,2.5C502.6,141.1,502.5,141.1,502.4,141.1z M127,140.8c-0.1,0-0.2,0-0.3-0.1
		c-0.2-0.1-0.3-0.4-0.1-0.6c0.7-1,1.4-2.1,2.1-3.1c0.1-0.2,0.4-0.3,0.6-0.1s0.3,0.4,0.1,0.6c-0.7,1.1-1.4,2.1-2.1,3.1
		C127.3,140.7,127.2,140.8,127,140.8z M329.5,139.6c-0.2,0-0.4-0.1-0.5-0.4l-0.8-3.7c0-0.3,0.1-0.5,0.4-0.6s0.5,0.1,0.6,0.4l0.8,3.7
		c0,0.3-0.1,0.5-0.4,0.6C329.6,139.6,329.6,139.6,329.5,139.6z M595,138.9c-0.1,0-0.2,0-0.3-0.1c-1-0.8-1.9-1.6-2.9-2.3
		c-0.2-0.2-0.3-0.4-0.1-0.7s0.5-0.3,0.7-0.1c1,0.8,2,1.6,3,2.4c0.2,0.2,0.2,0.5,0.1,0.7C595.3,138.8,595.2,138.9,595,138.9z
		 M508.2,136.3c-0.1,0-0.3-0.1-0.4-0.2c-0.2-0.2-0.1-0.5,0.1-0.7c1-0.7,1.9-1.4,2.9-2.1l0.2-0.1c0.2-0.1,0.5-0.1,0.6,0.1
		c0.1,0.2,0.1,0.5-0.1,0.6l-0.2,0.1c-1,0.6-1.9,1.3-2.9,2C508.4,136.3,508.3,136.3,508.2,136.3z M131.1,134.4c-0.1,0-0.2,0-0.2-0.1
		c-0.2-0.1-0.3-0.4-0.2-0.6c0.6-1.1,1.3-2.1,1.9-3.2c0.1-0.2,0.4-0.3,0.6-0.2c0.2,0.1,0.3,0.4,0.2,0.6c-0.6,1.1-1.3,2.2-1.9,3.3
		C131.4,134.4,131.2,134.4,131.1,134.4z M589.1,134.3c-0.1,0-0.2,0-0.3-0.1c-1-0.7-2.1-1.4-3.1-2c-0.2-0.1-0.3-0.4-0.2-0.6
		c0.1-0.2,0.4-0.3,0.7-0.1c1.1,0.6,2.1,1.4,3.2,2.1c0.2,0.1,0.3,0.4,0.1,0.6C589.4,134.3,589.2,134.3,589.1,134.3z M327.9,132.3
		c-0.2,0-0.4-0.1-0.5-0.4c-0.3-1.2-0.5-2.4-0.8-3.7c-0.1-0.3,0.1-0.5,0.4-0.6c0.3-0.1,0.5,0.1,0.6,0.4c0.3,1.2,0.6,2.4,0.8,3.7
		c0.1,0.3-0.1,0.5-0.4,0.6C328,132.3,328,132.3,327.9,132.3z M514.4,132.1c-0.2,0-0.3-0.1-0.4-0.2c-0.1-0.2-0.1-0.5,0.2-0.6
		c1.1-0.6,2.2-1.3,3.3-1.8c0.2-0.1,0.5,0,0.6,0.2s0,0.5-0.2,0.6c-1.1,0.6-2.2,1.2-3.3,1.8C514.6,132.1,514.5,132.1,514.4,132.1z
		 M582.7,130.4c-0.1,0-0.2,0-0.2-0.1c-1.1-0.6-2.2-1.2-3.3-1.7c-0.2-0.1-0.3-0.4-0.2-0.6c0.1-0.2,0.4-0.3,0.6-0.2
		c1.1,0.5,2.3,1.1,3.4,1.7c0.2,0.1,0.3,0.4,0.2,0.6C583,130.3,582.9,130.4,582.7,130.4z M521.1,128.7c-0.2,0-0.3-0.1-0.4-0.3
		c-0.1-0.2,0-0.5,0.2-0.6c1.1-0.5,2.3-1,3.5-1.5c0.2-0.1,0.5,0,0.6,0.3c0.1,0.2,0,0.5-0.3,0.6c-1.2,0.4-2.3,0.9-3.4,1.4
		C521.2,128.7,521.2,128.7,521.1,128.7z M134.7,127.9c-0.1,0-0.1,0-0.2-0.1c-0.2-0.1-0.3-0.4-0.2-0.6c0.6-1.1,1.1-2.2,1.7-3.3
		c0.1-0.2,0.4-0.3,0.6-0.2c0.2,0.1,0.3,0.4,0.2,0.6c-0.6,1.1-1.1,2.3-1.7,3.4C135.1,127.8,134.9,127.9,134.7,127.9z M575.9,127.2
		c-0.1,0-0.1,0-0.2,0c-1.2-0.5-2.3-0.9-3.5-1.3c-0.3-0.1-0.4-0.3-0.3-0.6c0.1-0.2,0.3-0.4,0.6-0.3c1.2,0.4,2.4,0.8,3.5,1.3
		c0.2,0.1,0.4,0.4,0.3,0.6C576.3,127.1,576.1,127.2,575.9,127.2z M528.1,126c-0.2,0-0.4-0.1-0.5-0.3c-0.1-0.3,0-0.5,0.3-0.6
		c1.2-0.4,2.4-0.8,3.6-1.1c0.3-0.1,0.5,0.1,0.6,0.3s-0.1,0.5-0.3,0.6c-1.2,0.3-2.4,0.7-3.6,1.1C528.2,126,528.1,126,528.1,126z
		 M326.2,124.9c-0.2,0-0.4-0.1-0.5-0.3c-0.3-1.2-0.6-2.4-1-3.6c-0.1-0.3,0.1-0.5,0.3-0.6s0.5,0.1,0.6,0.3c0.3,1.2,0.7,2.4,1,3.6
		c0.1,0.3-0.1,0.5-0.3,0.6C326.3,124.9,326.3,124.9,326.2,124.9z M568.8,124.8c0,0-0.1,0-0.1,0c-1.2-0.3-2.4-0.6-3.6-0.9
		c-0.3-0.1-0.4-0.3-0.4-0.6c0-0.3,0.3-0.4,0.6-0.4c1.2,0.3,2.5,0.6,3.7,0.9c0.3,0.1,0.4,0.3,0.3,0.6
		C569.2,124.6,569,124.8,568.8,124.8z M535.3,124c-0.2,0-0.4-0.2-0.5-0.4c0-0.3,0.1-0.5,0.4-0.6c1.2-0.3,2.5-0.5,3.7-0.7
		c0.3,0,0.5,0.1,0.5,0.4s-0.1,0.5-0.4,0.5C537.9,123.5,536.6,123.7,535.3,124C535.4,124,535.4,124,535.3,124z M561.5,123.2
		C561.4,123.2,561.4,123.2,561.5,123.2c-1.3-0.2-2.5-0.4-3.8-0.5c-0.3,0-0.5-0.3-0.4-0.5c0-0.3,0.3-0.4,0.5-0.4
		c1.3,0.1,2.5,0.3,3.8,0.5c0.3,0,0.4,0.3,0.4,0.5C561.9,123,561.7,123.2,561.5,123.2z M542.7,122.8c-0.2,0-0.4-0.2-0.5-0.4
		c0-0.3,0.2-0.5,0.4-0.5c1.3-0.1,2.5-0.3,3.8-0.3c0.3,0,0.5,0.2,0.5,0.4c0,0.3-0.2,0.5-0.4,0.5C545.3,122.5,544,122.6,542.7,122.8
		C542.8,122.8,542.8,122.8,542.7,122.8z M554,122.4c-1.1,0-2.2-0.1-3.3-0.1h-0.4c-0.3,0-0.5-0.2-0.5-0.5s0.2-0.5,0.5-0.5h0.4
		c1.1,0,2.3,0,3.4,0.1c0.3,0,0.5,0.2,0.5,0.5C554.5,122.2,554.2,122.4,554,122.4z M138.1,121.2c-0.1,0-0.1,0-0.2,0
		c-0.2-0.1-0.3-0.4-0.2-0.6c0.5-1.1,1-2.3,1.5-3.4c0.1-0.2,0.4-0.3,0.6-0.3c0.2,0.1,0.4,0.4,0.3,0.6c-0.5,1.2-1,2.3-1.5,3.4
		C138.4,121.1,138.2,121.2,138.1,121.2z M324.1,117.7c-0.2,0-0.4-0.1-0.5-0.3c-0.4-1.2-0.8-2.4-1.2-3.5c-0.1-0.2,0-0.5,0.3-0.6
		s0.5,0,0.6,0.3c0.4,1.1,0.8,2.3,1.2,3.6c0.1,0.3-0.1,0.5-0.3,0.6C324.3,117.7,324.2,117.7,324.1,117.7z M141,114.3
		c-0.1,0-0.1,0-0.2,0c-0.2-0.1-0.4-0.4-0.3-0.6c0.4-1.2,0.9-2.3,1.3-3.5c0.1-0.3,0.4-0.4,0.6-0.3c0.3,0.1,0.4,0.3,0.3,0.6
		c-0.4,1.2-0.9,2.4-1.3,3.5C141.3,114.1,141.2,114.3,141,114.3z M321.6,110.7c-0.2,0-0.4-0.1-0.4-0.3c-0.5-1.2-1-2.3-1.5-3.4
		c-0.1-0.2,0-0.5,0.2-0.6c0.2-0.1,0.5,0,0.6,0.2c0.5,1.1,1.1,2.3,1.6,3.4c0.1,0.2,0,0.5-0.3,0.6
		C321.7,110.7,321.6,110.7,321.6,110.7z M143.4,107.2c-0.1,0-0.1,0-0.1,0c-0.3-0.1-0.4-0.3-0.3-0.6c0.4-1.2,0.7-2.4,1.1-3.6
		c0.1-0.3,0.3-0.4,0.6-0.3s0.4,0.3,0.3,0.6c-0.3,1.2-0.7,2.4-1.1,3.6C143.8,107,143.6,107.2,143.4,107.2z M318.2,103.9
		c-0.2,0-0.3-0.1-0.4-0.2c-0.6-1.1-1.3-2.1-2-3.2c-0.1-0.2-0.1-0.5,0.1-0.7c0.2-0.1,0.5-0.1,0.6,0.1c0.7,1.1,1.4,2.1,2,3.2
		c0.1,0.2,0,0.5-0.2,0.6C318.4,103.9,318.3,103.9,318.2,103.9z M145.4,99.9c0,0-0.1,0-0.1,0c-0.3-0.1-0.4-0.3-0.4-0.6
		c0.3-1.2,0.6-2.4,0.8-3.7c0.1-0.3,0.3-0.4,0.6-0.4c0.3,0.1,0.4,0.3,0.4,0.6c-0.3,1.2-0.5,2.5-0.8,3.7
		C145.8,99.8,145.6,99.9,145.4,99.9z M314.1,97.7c-0.1,0-0.3-0.1-0.4-0.2c-0.8-1-1.5-1.9-2.4-2.9c-0.2-0.2-0.1-0.5,0-0.7
		c0.2-0.2,0.5-0.2,0.7,0.1c0.8,0.9,1.6,1.9,2.4,2.9c0.2,0.2,0.1,0.5-0.1,0.7C314.3,97.7,314.2,97.7,314.1,97.7z M146.9,92.6
		C146.9,92.6,146.9,92.6,146.9,92.6c-0.3-0.1-0.5-0.3-0.5-0.6c0.2-1.2,0.4-2.5,0.6-3.7c0-0.3,0.3-0.4,0.5-0.4c0.3,0,0.4,0.3,0.4,0.5
		c-0.2,1.3-0.4,2.5-0.6,3.7C147.4,92.4,147.2,92.6,146.9,92.6z M309.2,92c-0.1,0-0.2-0.1-0.3-0.1c-0.9-0.9-1.8-1.7-2.7-2.6
		c-0.2-0.2-0.2-0.5,0-0.7c0.2-0.2,0.5-0.2,0.7,0c0.9,0.8,1.9,1.7,2.7,2.6c0.2,0.2,0.2,0.5,0,0.7C309.4,92,309.3,92,309.2,92z
		 M303.6,87c-0.1,0-0.2,0-0.3-0.1c-1-0.8-2-1.5-3-2.3c-0.2-0.2-0.3-0.4-0.1-0.7c0.1-0.2,0.4-0.3,0.7-0.1c1,0.7,2,1.5,3,2.3
		c0.2,0.2,0.2,0.5,0.1,0.7C303.9,86.9,303.7,87,303.6,87z M147.9,85.1c-0.3,0-0.5-0.3-0.5-0.5c0.1-1.2,0.2-2.5,0.3-3.7
		c0-0.3,0.2-0.5,0.5-0.4s0.4,0.2,0.4,0.5c-0.1,1.3-0.2,2.5-0.3,3.8C148.4,84.9,148.2,85.1,147.9,85.1z M297.5,82.6
		c-0.1,0-0.2,0-0.3-0.1c-1-0.7-2.1-1.3-3.2-1.9c-0.2-0.1-0.3-0.4-0.2-0.6c0.1-0.2,0.4-0.3,0.6-0.2c1.1,0.6,2.2,1.3,3.2,2
		c0.2,0.1,0.3,0.4,0.1,0.7C297.8,82.5,297.7,82.6,297.5,82.6z M291,78.9c-0.1,0-0.1,0-0.2-0.1c-1.1-0.6-2.2-1.1-3.4-1.6
		c-0.2-0.1-0.3-0.4-0.2-0.6c0.1-0.2,0.4-0.3,0.6-0.2c1.1,0.5,2.3,1.1,3.4,1.7c0.2,0.1,0.3,0.4,0.2,0.6
		C291.3,78.8,291.2,78.9,291,78.9z M150.1,78.8c-1.1,0-2.2,0-3.3-0.1c-0.3,0-0.5-0.2-0.4-0.5c0-0.3,0.2-0.5,0.5-0.4
		c1,0.1,2.1,0.1,3.2,0.1h0.5c0.3,0,0.5,0.2,0.5,0.5s-0.2,0.5-0.5,0.5L150.1,78.8z M154.4,78.7c-0.3,0-0.5-0.2-0.5-0.4
		c0-0.3,0.2-0.5,0.4-0.5c1.3-0.1,2.5-0.2,3.7-0.3c0.3,0,0.5,0.2,0.5,0.4c0,0.3-0.2,0.5-0.4,0.5C156.9,78.6,155.6,78.7,154.4,78.7
		L154.4,78.7z M143.1,78.4C143.1,78.4,143.1,78.4,143.1,78.4c-1.3-0.2-2.6-0.4-3.8-0.6c-0.3-0.1-0.4-0.3-0.4-0.6
		c0.1-0.3,0.3-0.4,0.6-0.4c1.2,0.2,2.4,0.4,3.7,0.6c0.3,0,0.4,0.3,0.4,0.5C143.6,78.3,143.4,78.4,143.1,78.4z M161.9,78.1
		c-0.2,0-0.5-0.2-0.5-0.4c0-0.3,0.1-0.5,0.4-0.5c0,0,2.5-0.3,3.7-0.4c0.3,0,0.5,0.2,0.5,0.4s-0.1,0.5-0.4,0.5
		C164.4,77.8,163.2,77.9,161.9,78.1C161.9,78.1,161.9,78.1,161.9,78.1z M148.4,77.6c-0.3,0-0.5-0.2-0.5-0.5c0-1,0.1-2.1,0.1-3.1
		v-0.6c0-0.3,0.2-0.5,0.5-0.5s0.5,0.2,0.5,0.5V74c0,1.1,0,2.1-0.1,3.2C148.9,77.4,148.7,77.6,148.4,77.6z M169.3,77.2
		c-0.2,0-0.4-0.2-0.5-0.4c0-0.3,0.1-0.5,0.4-0.5c1.2-0.2,2.5-0.3,3.7-0.5c0.3,0,0.5,0.1,0.5,0.4s-0.1,0.5-0.4,0.5
		C171.9,76.8,170.6,77,169.3,77.2C169.4,77.2,169.3,77.2,169.3,77.2z M135.8,76.9c-0.1,0-0.1,0-0.1,0c-0.5-0.2-1.1-0.3-1.6-0.5
		c-0.7-0.2-1.3-0.5-2-0.8c-0.2-0.1-0.3-0.4-0.2-0.6c0.1-0.2,0.4-0.3,0.6-0.2c0.6,0.3,1.3,0.5,1.9,0.8c0.5,0.2,1,0.4,1.5,0.5
		c0.3,0.1,0.4,0.3,0.3,0.6C136.2,76.8,136,76.9,135.8,76.9z M176.8,76.1c-0.2,0-0.4-0.2-0.5-0.4c0-0.3,0.1-0.5,0.4-0.5
		c1.2-0.2,2.5-0.4,3.7-0.6c0.3,0,0.5,0.1,0.5,0.4s-0.1,0.5-0.4,0.5C179.3,75.8,178.1,75.9,176.8,76.1
		C176.8,76.1,176.8,76.1,176.8,76.1z M284.1,75.7c-0.1,0-0.1,0-0.2,0c-1.1-0.5-2.3-0.9-3.5-1.3c-0.2-0.1-0.4-0.4-0.3-0.6
		s0.4-0.4,0.6-0.3c1.2,0.4,2.4,0.9,3.5,1.4c0.2,0.1,0.4,0.4,0.3,0.6C284.5,75.6,284.3,75.7,284.1,75.7z M184.2,75
		c-0.2,0-0.4-0.2-0.5-0.4c0-0.3,0.1-0.5,0.4-0.5c1.2-0.2,2.5-0.4,3.7-0.6c0.3,0,0.5,0.1,0.5,0.4s-0.1,0.5-0.4,0.5
		C186.7,74.5,185.5,74.8,184.2,75C184.2,74.9,184.2,75,184.2,75z M128.9,73.8c-0.1,0-0.2,0-0.2-0.1c-1.1-0.7-2.1-1.4-3.1-2.2
		c-0.2-0.2-0.2-0.5-0.1-0.7s0.5-0.2,0.7-0.1c0.9,0.8,2,1.5,3,2.1c0.2,0.1,0.3,0.4,0.2,0.6C129.3,73.7,129.1,73.8,128.9,73.8z
		 M191.6,73.7c-0.2,0-0.4-0.2-0.5-0.4c0-0.3,0.1-0.5,0.4-0.5l3.7-0.6c0.3,0,0.5,0.1,0.5,0.4s-0.1,0.5-0.4,0.5L191.6,73.7
		C191.6,73.7,191.6,73.7,191.6,73.7z M277.1,73.2c0,0-0.1,0-0.1,0c-1.2-0.4-2.4-0.7-3.6-1.1c-0.3-0.1-0.4-0.3-0.3-0.6
		s0.3-0.4,0.6-0.3c1.2,0.3,2.4,0.7,3.6,1.1c0.3,0.1,0.4,0.3,0.3,0.6C277.5,73.1,277.3,73.2,277.1,73.2z M199,72.5
		c-0.2,0-0.4-0.2-0.5-0.4c0-0.3,0.1-0.5,0.4-0.5c1.2-0.2,2.5-0.4,3.7-0.6c0.3,0,0.5,0.1,0.5,0.4s-0.1,0.5-0.4,0.5
		C201.5,72.1,200.3,72.3,199,72.5C199,72.5,199,72.5,199,72.5z M206.4,71.3c-0.2,0-0.4-0.2-0.5-0.4c0-0.3,0.1-0.5,0.4-0.5
		c1.2-0.2,2.5-0.4,3.7-0.6c0.3,0,0.5,0.1,0.5,0.4s-0.1,0.5-0.4,0.5C208.9,71,207.7,71.1,206.4,71.3
		C206.5,71.3,206.4,71.3,206.4,71.3z M269.8,71.2c0,0-0.1,0-0.1,0c-1.2-0.3-2.4-0.6-3.6-0.8c-0.3-0.1-0.4-0.3-0.4-0.6
		c0-0.3,0.3-0.4,0.5-0.4c1.2,0.3,2.5,0.5,3.7,0.8c0.3,0.1,0.4,0.3,0.4,0.6C270.3,71,270,71.2,269.8,71.2z M213.9,70.3
		c-0.2,0-0.4-0.2-0.5-0.4c0-0.3,0.1-0.5,0.4-0.5c1.2-0.2,2.5-0.3,3.7-0.5c0.3,0,0.5,0.2,0.5,0.4s-0.1,0.5-0.4,0.5
		C216.4,69.9,215.1,70.1,213.9,70.3C213.9,70.3,213.9,70.3,213.9,70.3z M148.4,70.1c-0.3,0-0.5-0.2-0.5-0.5c0-1.2-0.1-2.4-0.1-3.8
		c0-0.3,0.2-0.5,0.4-0.5c0.3,0,0.5,0.2,0.5,0.4c0.1,1.3,0.1,2.6,0.1,3.8C148.9,69.9,148.7,70.1,148.4,70.1L148.4,70.1z M262.5,69.7
		C262.5,69.7,262.4,69.7,262.5,69.7c-1.3-0.2-2.5-0.4-3.8-0.6c-0.3,0-0.4-0.3-0.4-0.5c0-0.3,0.3-0.4,0.5-0.4
		c1.3,0.2,2.5,0.3,3.7,0.6c0.3,0,0.4,0.3,0.4,0.5C262.9,69.5,262.7,69.7,262.5,69.7z M221.3,69.3c-0.2,0-0.4-0.2-0.5-0.4
		c0-0.3,0.2-0.5,0.4-0.5c1.3-0.1,2.5-0.3,3.7-0.4c0.3,0,0.5,0.2,0.5,0.4c0,0.3-0.2,0.5-0.4,0.5C223.8,69.1,222.6,69.2,221.3,69.3
		C221.3,69.3,221.3,69.3,221.3,69.3z M123.1,69.1c-0.1,0-0.3-0.1-0.3-0.2c-0.9-0.9-1.7-1.9-2.4-3c-0.2-0.2-0.1-0.5,0.1-0.7
		c0.2-0.2,0.5-0.1,0.7,0.1c0.7,1,1.5,1.9,2.3,2.8c0.2,0.2,0.2,0.5,0,0.7C123.3,69.1,123.2,69.1,123.1,69.1z M255,68.7
		c-1.3-0.1-2.5-0.2-3.8-0.3c-0.3,0-0.4-0.2-0.4-0.5c0-0.3,0.3-0.5,0.5-0.4c1.3,0.1,2.5,0.2,3.8,0.3c0.3,0,0.4,0.3,0.4,0.5
		C255.5,68.5,255.3,68.7,255,68.7z M228.8,68.7c-0.2,0-0.4-0.2-0.5-0.4c0-0.3,0.2-0.5,0.4-0.5c1.3-0.1,2.5-0.2,3.8-0.3
		c0.3,0,0.5,0.2,0.5,0.4s-0.2,0.5-0.4,0.5C231.3,68.5,228.8,68.7,228.8,68.7z M236.3,68.2c-0.3,0-0.5-0.2-0.5-0.4
		c0-0.3,0.2-0.5,0.4-0.5c1.3-0.1,2.5-0.1,3.8-0.1c0.3,0,0.5,0.2,0.5,0.5c0,0.3-0.2,0.5-0.5,0.5C238.8,68.1,236.3,68.2,236.3,68.2z
		 M247.6,68.2c-0.5,0-3-0.1-3.8-0.1c-0.3,0-0.5-0.2-0.5-0.5s0.2-0.4,0.5-0.5c0.8,0,3.3,0.1,3.8,0.1c0.3,0,0.5,0.2,0.4,0.5
		C248,68,247.8,68.2,247.6,68.2z M118.8,63c-0.2,0-0.3-0.1-0.4-0.3c-0.6-1.2-1-2.4-1.3-3.6c-0.1-0.3,0.1-0.5,0.3-0.6
		s0.5,0.1,0.6,0.3c0.3,1.2,0.7,2.3,1.2,3.4c0.1,0.2,0,0.5-0.2,0.6C119,63,118.9,63,118.8,63z M148,62.6c-0.2,0-0.4-0.2-0.5-0.4
		c-0.1-1.3-0.3-2.5-0.4-3.7c0-0.3,0.1-0.5,0.4-0.5c0.3,0,0.5,0.1,0.5,0.4c0.2,1.2,0.3,2.4,0.4,3.8C148.5,62.3,148.3,62.6,148,62.6
		C148,62.6,148,62.6,148,62.6z M117,55.8c-0.3,0-0.5-0.2-0.5-0.5c0-0.2,0-0.4,0-0.6c0-1.1,0.1-2.2,0.4-3.3c0.1-0.3,0.3-0.4,0.6-0.4
		c0.3,0,0.4,0.3,0.4,0.6c-0.2,1-0.3,2.1-0.3,3.1c0,0.2,0,0.3,0,0.5C117.5,55.5,117.3,55.8,117,55.8L117,55.8z M146.9,55.2
		c-0.2,0-0.4-0.2-0.5-0.4c-0.3-1.3-0.6-2.5-0.9-3.6c-0.1-0.3,0.1-0.5,0.3-0.6s0.5,0.1,0.6,0.3c0.4,1.1,0.7,2.4,1,3.7
		c0.1,0.3-0.1,0.5-0.4,0.6C147,55.2,147,55.2,146.9,55.2z M118.5,48.5c-0.1,0-0.1,0-0.2,0c-0.2-0.1-0.3-0.4-0.2-0.6
		c0.5-1.2,1.2-2.3,2-3.3c0.2-0.2,0.4-0.3,0.7-0.1c0.2,0.2,0.3,0.5,0.1,0.7c-0.7,1-1.4,2-1.9,3.1C118.9,48.4,118.7,48.5,118.5,48.5z
		 M144.6,48c-0.2,0-0.3-0.1-0.4-0.3c-0.6-1.2-1.2-2.2-1.9-3.2c-0.1-0.2-0.1-0.5,0.1-0.7c0.2-0.2,0.5-0.1,0.7,0.1
		c0.7,1,1.4,2.1,1.9,3.3c0.1,0.2,0,0.5-0.2,0.6C144.8,48,144.7,48,144.6,48z M123,42.5c-0.1,0-0.3-0.1-0.4-0.2
		c-0.2-0.2-0.2-0.5,0.1-0.7c1-0.9,2.1-1.6,3.2-2.2c0.2-0.1,0.5,0,0.6,0.2c0.1,0.2,0,0.5-0.2,0.6c-1.1,0.5-2.1,1.2-3,2
		C123.2,42.5,123.1,42.5,123,42.5z M140.2,42.1c-0.1,0-0.2,0-0.3-0.1c-0.9-0.8-2-1.4-3.1-1.9c-0.2-0.1-0.4-0.4-0.2-0.6
		c0.1-0.2,0.4-0.3,0.6-0.2c1.2,0.5,2.3,1.2,3.3,2c0.2,0.2,0.2,0.5,0.1,0.7C140.4,42,140.3,42.1,140.2,42.1z M129.6,39.2
		c-0.2,0-0.4-0.2-0.5-0.4c-0.1-0.3,0.1-0.5,0.4-0.5c1.3-0.2,2.6-0.3,3.9-0.1c0.3,0,0.4,0.3,0.4,0.5c0,0.3-0.3,0.4-0.5,0.4
		C132.1,38.9,130.9,39,129.6,39.2C129.7,39.2,129.7,39.2,129.6,39.2z"/>
	<g>
		<path class="st11" d="M219.3,295l-39-1.7c0.1-1.4,0.3-2.7,0.6-4c0.9-4.2,2.6-8,3.8-12.2c1.5-5.6-1.9-16.6-3.5-21.9
			c-1.6-5.3-0.5-13.2-0.5-13.2c1.3-1.5,9.4-3.5,12.3-4.6c0.5-0.2,0.9-0.4,1-0.5c0.5-0.6,0.5-3.2,0.5-4.9c0-0.8,0-1.4,0-1.4l0.5-0.4
			l8.5,1.3c0,0-0.3,1.6,0.1,3c0.2,0.7,0.5,1.3,1.2,1.6c0.4,0.2,0.9,0.3,1.5,0.4c0,0,0.1,0,0.1,0c1.3,0.3,2.9,0.3,4,0.4
			c0.9,0,1.5,0,1.5,0s2.4,3.7,4.4,9.7c0.5,1.4,0.9,3,1.3,4.6c1.4,6.5,1.7,28.5,1.7,38.7C219.3,293,219.3,295,219.3,295z"/>
		<path class="st11" d="M200.3,408.5c-1.3,0.9-12.7,0-12.8-0.8c-0.1-0.9-0.3-1.6-0.4-2.3c0-0.1,0-0.1,0-0.2c0-5.6-1.4-18.8-1.4-18.8
			s6-3.9,8.3-0.7c0,0-2.9,18.3-0.2,19.7c0.1,0.1,0.2,0.1,0.4,0.2c1.5,0.6,4.5,1.6,6,1.7C200.1,407.2,201.6,407.6,200.3,408.5z"/>
		<path d="M200.3,408.5c-1.3,0.9-12.7,0-12.8-0.8c-0.1-0.9-0.3-1.6-0.4-2.3c0-0.1,0-0.1,0-0.2c1.5,0.3,4.1,0.6,7.1,0.3
			c1.5,0.6,4.5,1.6,6,1.7C200.1,407.2,201.6,407.6,200.3,408.5z"/>
		<path class="st11" d="M217,401.7c-1.5,0-10.6-7-10.2-7.8c0.4-0.8,0.7-1.5,1-2.1c0-0.1,0-0.1,0.1-0.2c3.1-4.7,6.8-20.4,6.8-20.4
			s7.7,0.6,7.9,4.5c0,0-10.7,17-9.2,19.7c0.1,0.1,0.1,0.2,0.2,0.4c0.9,1.4,2.8,3.9,4,4.7C217.6,400.5,218.5,401.7,217,401.7z"/>
		<path d="M217,401.7c-1.5,0-10.6-7-10.2-7.8c0.4-0.8,0.7-1.5,1-2.1c0-0.1,0.1-0.1,0.1-0.2c1.1,1.1,3,2.8,5.7,4.2
			c0.9,1.4,2.8,3.9,4,4.7C217.6,400.5,218.5,401.7,217,401.7z"/>
		<path class="st12" d="M215.5,390.3c-0.9,1.3-6.9-1.5-6.2-4c8.3-31.8,13.5-36.1,13.5-36.1c0.6-1.1,0.5-2.4-0.2-3.5
			c-9.9-14.7-19.7-33.5-19.7-33.5c0.2,7.5-2.6,34.8-3.3,42.3c-0.6,7.5-5.1,42.5-5.9,43c-5,2.6-8,0-8,0s-4.4-19-2.9-29.5
			c1.6-10.5-1.2-25.3-2.5-39.4c-1.2-13.4-1.3-22.8-0.9-29.3c0.6-10.9,2.4-13.7,2.4-13.7c11.3,2.6,26.4,2.4,33.6,2
			c2.5-0.1,4-0.2,4-0.2s1.2,3.3,1.5,3.9c4.5,12.1,17.8,48.2,18.6,54.8C240.3,354.9,215.5,390.3,215.5,390.3z"/>
		<path class="st13" d="M220.2,290.5l-4.9-2c-7.1,0.3-22.3,0.5-33.6-2c0,0-1.8,2.7-2.4,13.7c8.4,0.5,28.8,0.5,41.4-7.9L220.2,290.5z
			"/>
		<path class="st11" d="M248.9,198.4c0,0-0.1-3.2,0.8-5c1.2-2.3,11.2-2,11.2-2s1.7,2.6-1.5,3.3c-5.1,1.1-4.7,5.6-4.7,5.6
			S248.7,200.1,248.9,198.4z"/>
		<path class="st14" d="M203.6,234.4c-6.2,1.7-8.1-0.3-9.1-2.4c0-0.8,0-1.4,0-1.4l0.5-0.4l8.5,1.3
			C203.5,231.4,203.2,233,203.6,234.4z"/>
		<path class="st15" d="M204,225.2c3.9-1.8,2.1-6.7,1.6-9.9c-0.2-1.2-0.4-2.4-1.1-3.3c-0.8-1.2-2.3-1.8-3.7-2
			c-1.6-0.2-3.4,0.2-4.6,1.2c-1.1,0.9-1.6,2.5-2.6,3.5c-1.6,1.8-4.6,2.2-5.6,4.4c-0.4,0.8-0.4,1.8-0.4,2.6c0.3,3.5,2.3,7,6.3,6.8
			c2.5-0.1,4.9-0.9,7.2-1.6c0.5-0.2,1.1-0.3,1.6-0.6C203.4,225.9,203.2,225.6,204,225.2z"/>
		<path class="st14" d="M205.4,221.4c0,0,1.1-1.9,2.8-0.5c1.7,1.4-0.1,5-1.9,5.5C206.2,226.4,205.3,222.1,205.4,221.4z"/>
		<path class="st11" d="M204,216.6c1.1,0.8,1.9,4,2.4,6.3c1.5,7.1-0.2,9.7-3.8,10.8c-3.6,1.1-7.7,0.3-9.6-6.2c-1-3.3-2-6.2-1-7.9
			C193.3,217.2,200.6,214.2,204,216.6z"/>
		<path class="st11" d="M193.3,226.5c0,0-1.6-2.8-3.1-0.9c-1.5,1.9,1.7,5.7,4.4,4.9C194.5,230.5,194.3,227.4,193.3,226.5z"/>
		<path class="st14" d="M191.2,226.8c0.4,0,0.9,0.3,1.2,0.5c0.4,0.2,0.8,0.5,1,0.9c0.1,0.1-0.1,0.2-0.2,0.1
			c-0.3-0.2-0.5-0.4-0.8-0.6c-0.1,0.2-0.3,0.4-0.4,0.5c-0.1,0.1-0.3-0.1-0.3-0.2c0.1-0.2,0.2-0.3,0.4-0.5c-0.3-0.2-0.7-0.3-1-0.5
			C191,227,191.1,226.8,191.2,226.8z"/>
		<path class="st15" d="M203,222.8c0,0,0.7,0.1,0.4-1c-0.3-1-0.7-0.8-0.7-0.8s-0.4,0.1-0.2,0.9C202.7,222.9,203,222.8,203,222.8z"/>
		<path class="st15" d="M196.9,224.4c0,0,0.7,0.1,0.4-1c-0.3-1-0.7-0.8-0.7-0.8s-0.4,0.1-0.2,0.9
			C196.6,224.5,196.9,224.4,196.9,224.4z"/>
		<path class="st14" d="M200.9,226.7c0.3-0.1,1.1-0.1,1.1-0.4c0.1-0.3-0.7-1.9-0.9-2.1c-0.4-1-0.8-1.6-1.3-2.8
			c0-0.1,0.1-0.1,0.1-0.1c1,1.5,1.7,3.5,2.4,5.1c0,0.1,0,0.2-0.1,0.2c-0.5,0.1-0.9,0.3-1.4,0.3C200.9,227,200.8,226.8,200.9,226.7z"
			/>
		<path class="st15" d="M201.7,219.6c0.4-0.3,1.2-0.5,1.6-0.1c0.1,0.1,0,0.2-0.1,0.2c-0.2,0-0.4,0-0.7,0c-0.2,0-0.5,0.1-0.7,0.2
			C201.7,220.1,201.5,219.8,201.7,219.6z"/>
		<path class="st15" d="M195.5,221.8c0.1-0.7,1.2-0.9,1.8-0.6c0.1,0.1,0.1,0.3,0,0.3c-0.3,0.1-0.6,0.1-0.9,0.2
			c-0.3,0.1-0.4,0.2-0.6,0.3C195.7,222.1,195.5,221.9,195.5,221.8z"/>
		<path class="st0" d="M204.1,227.8c0,0-1.7,2-4.4,1.3c0,0,0.6,1.4,2.8,1C203.9,229.7,204.1,227.8,204.1,227.8z"/>
		<path class="st11" d="M182.4,250.8c-1-0.7-2-1.5-3-2.4c-11-10.7-17.8-36.7-17.7-39.9c0.1-4.6,1.4-11,2.7-16.3
			c0.2-0.7,0.4-1.5,0.5-2.1c0.5-1.9,0.9-3.6,1.3-4.9c0.5-1.8,0.9-2.9,0.9-2.9s4.5-3.1,5.9,0.2c0,0-0.6,3.3-0.7,4.7
			c-0.1,0.9-0.4,4.7-0.5,5.4c-0.5,6.3-1.2,14.5-1,16.7c0.2,2.8,10.4,20.6,21,27.8c0.1,0.1,0.1,0.1,0.2,0.1
			C193.9,238.2,198,261.1,182.4,250.8z"/>
		<path class="st11" d="M167.8,184.3c0,0-0.6-1.6-1.6-3.6c-1-1.9-3.1-6.2-3-7.8c0,0,0.1-0.3,0.3-0.7c0-0.1,0.1-0.1,0.1-0.2
			c0.2-0.4,0.6-0.8,1-1.1c0,0,0.1-0.1,0.1-0.1c0.4-0.2,0.8-0.4,1.3-0.6c0,0,0.1,0,0.1,0c0.4-0.1,0.8-0.1,1.3-0.1
			c0,0,2.1,4.4,3.3,5.5c0,0-0.6-2.9,0.2-3.6l0.6-0.1c0,0,1,3.1,1.5,4.4c1.4,3.3-0.3,6.6-0.3,6.6S169.9,185.8,167.8,184.3z"/>
		<path class="st14" d="M166.1,170.3c0,0,0.1,0,0.1,0c0.8,2,1.9,3.9,2.9,5.8c0,0,0,0.1-0.1,0.1C167.6,174.5,166.7,172.4,166.1,170.3
			z"/>
		<path class="st14" d="M164.7,171c0,0,0.1-0.1,0.1-0.1c0.8,2,1.9,3.9,2.9,5.8c0,0,0,0.1-0.1,0C166.2,175.1,165.3,173.1,164.7,171z"
			/>
		<path class="st14" d="M163.5,172.2c0-0.1,0.1-0.1,0.1-0.2c0.8,1.9,1.8,3.7,2.8,5.5c0,0,0,0.1-0.1,0
			C165,176.1,164.1,174.2,163.5,172.2z"/>
		<path class="st16" d="M255.9,199.4c-0.4,4.3-6.2,22.8-10.5,31.8c-1.2,2.5-13.4,10.1-21.3,14.9c-2.8,1.7-6.5,3.9-6.7,4.1
			c0.1,0.4,0.1,0.7,0.1,0.9c0,0.1,0,0.2-0.1,0.2c1.4,6.1,2.6,25.8,2.7,36.6c0,0.7,0,1.4,0,2c-18.2,7.8-34.4,2.1-40.1-0.8
			c0.9-4.2,3.3-7.7,4.4-11.9c1.5-5.6-2.6-20.6-6.3-29.1c-0.2-0.4-0.3-0.8-0.4-1.2c-10.2-11.4-16.4-35.3-16.3-38.5
			c0.2-4.6,1.4-11,2.7-16.3c2.2,0.1,5.1,0.3,7.4,0.3c-0.5,6.3-1.2,14.5-1,16.7c0.2,2.8,10.4,20.6,21,27.8c0.1,0,0.1,0.1,0.2,0.1
			c0.1,0.1,0.3,0.3,0.4,0.6c0.2-0.1,0.4-0.1,0.6-0.2c2,3.1,7,10,11.1,8.5c3-1.1,3-4.9,2.5-7.7c-0.1-0.2-0.1-0.4-0.1-0.6
			c0-0.1-0.1-0.3-0.1-0.4c0-0.1,0-0.2-0.1-0.3c0-0.2-0.1-0.4-0.1-0.5c0,0,0.1,0,0.1,0c0.2,0,0.5-0.1,0.9-0.2
			c0.6-0.1,1.4-0.4,2.4-0.7l0.1,0.1c2.8-0.9,7.1-2.3,12.1-4.3c0.5-0.2,0.9-0.4,1.4-0.6c4.8-1.9,7.4-2.9,12.4-5.5
			c0,0,7.5-13.7,12.8-27.1C252.6,199.6,253.8,199.1,255.9,199.4z"/>
		<path class="st17" d="M217.6,251.1c1.4,6.1,2.6,25.8,2.7,36.6c-3.9-1.7-11.6-4.4-11.6-18.6c0-19.2-0.7-29-1.5-32.9
			c0.6-0.1,1.4-0.4,2.4-0.7l0.1,0.1c2.8-0.9,7.1-2.3,12.1-4.3l2.4,14.6c-2.8,1.7-6.5,3.9-6.7,4.1c0.1,0.4,0.1,0.7,0.1,0.9
			C217.7,251.1,217.6,251.1,217.6,251.1z"/>
	</g>
	<g>
		<path class="st11" d="M87.2,302.6c0,0-0.6,1-3.2,3c-1.6,1.2-5.3,3.5-5.9,4.8c0,0,0,0.3,0,0.7c0,0.1,0,0.1,0,0.2
			c0.1,0.4,0.2,0.8,0.4,1.3c0,0,0,0.1,0.1,0.1c0.2,0.3,0.5,0.7,0.8,1c0,0,0.1,0,0.1,0.1c0.3,0.2,0.6,0.5,1,0.6c0,0,3.5-2.8,4.9-3.2
			c0,0-1.6,2.2-1.3,3l0.5,0.3c0,0,2-2.2,3-3c2.4-2.1,2.8-5.4,2.8-5.4S89.4,302.3,87.2,302.6z"/>
		<path class="st14" d="M79.4,313.8C79.4,313.8,79.4,313.8,79.4,313.8c1.5-1.3,3.2-2.4,4.8-3.6c0,0,0-0.1,0-0.1
			C82.3,310.9,80.8,312.3,79.4,313.8z"/>
		<path class="st14" d="M78.5,312.7c0,0,0,0.1,0.1,0.1c1.4-1.4,3.1-2.5,4.7-3.6c0,0,0-0.1,0-0.1C81.4,309.9,79.8,311.2,78.5,312.7z"
			/>
		<path class="st14" d="M78.1,311.2c0,0.1,0,0.1,0,0.2c1.4-1.3,2.9-2.3,4.5-3.4c0,0,0-0.1,0-0.1C80.8,308.6,79.3,309.8,78.1,311.2z"
			/>
		<path class="st11" d="M116.5,243.2c0,0-3.8-1.2-7.6,6.6c-3.8,7.9-6.3,24.6-8.9,30.9c-2.6,6.3-14.9,25-14.9,25l3.6,2.4
			c0,0,14.2-17.3,18.1-25C110.8,275.6,128.7,241.7,116.5,243.2z"/>
		<path class="st11" d="M162.7,336.4c-1.3,5.4-7.8,16.6-13.7,26.1c-5.5,8.8-10.5,16.1-10.6,16.2c-1.5,2.4-2.6,4.4-3,5.8
			c-0.1,0.4,0.1,1.3,0.5,2.2c0.6,1.5,1.6,3.3,3,4.5c0,0,1,1.4-0.7,1.2c-1.7-0.2-9-7.4-8.5-8.1c0.5-0.8,1-1.6,1.4-2.3
			c1.1-2,1.7-3.3,2-4c0,0,0.4-1.1,1.1-2.9c0,0,1.6-7.5,4.6-16.2c2.6-7.7,6.1-16.4,10.4-21.8c0,0-8.9-9.5-18.2-20.1
			c-6.1-6.9-12.3-14.4-16.3-20c-2.2-3-3.4-6-1.2-8.7c1.1-1.4,3.2-2.7,6.4-3.9c9.7-3.6,14.3-5.5,14.3-5.5S165.2,326,162.7,336.4z"/>
		<path class="st11" d="M130.9,317.1c-0.1,0.3-0.1,0.5-0.1,0.7c-1.2,6.1-12.8,35.9-14.4,40.4c-0.7,2-4,10.7-7.4,19.8
			c-4.1,10.9-8.3,22.3-8.5,23.5c-0.1,0.5,0.3,1.2,0.8,2.1c0.8,1.4,2.1,3,3.7,4c0,0,1.2,1.2-0.5,1.3c-1.7,0.1-10-5.9-9.7-6.7
			c0.4-0.9,0.7-1.7,1-2.5c0.8-2.1,1.2-3.5,1.3-4.3c0,0,0.2-1.1,0.6-2.9c0,0,0.8-7.3,2-15.8c1.2-8.5,2.8-18.1,4.5-22.7
			c1.4-3.9,4-6.1,4.9-16.3c0.9-10.2,0-46.9,0-46.9c0-0.8,0.9-2,4.3-2.4c2.1-0.3,5.3-0.3,9.8,0.3
			C134.7,290.2,132.2,310.2,130.9,317.1z"/>
		<path class="st15" d="M110.4,228.9c0.4,1.9,1.3,3.6,2.6,4.7c2,1.6,4.7,2.3,7.2,2.1c2.9-0.2,6-1,7.7-3.5c1.9-2.8,3.9-5.6,3.7-9.1
			c-0.2-2.5-1.7-4.9-3.7-6.3c-2.5-1.8-4.9-3.5-8.1-2c0.7-1.4,1.2-3,1-4.6c-0.2-1.6-1-3.2-2.4-4c-1.7-1-4.1-0.6-5.6,0.7
			c-1.5,1.3-2.2,3.4-2.1,5.4c0.1,2.1,1.5,4.6,3.9,4.6C110.7,218.7,109.3,224.4,110.4,228.9z"/>
		<path class="st11" d="M109.1,290.8l28.2,3.1c0,0-0.8-10.9-3.7-22.9c-2-8.2-0.1-8.8,0-11.4c0.1-2.6-4.6-7.2-6.2-10.6
			c-1.3-2.7-2.7-5-2.7-8.3c0-0.8,0.1-1.6,0.2-2.5c0,0-4.7-6.4-7.2-2.5c-0.1,0.1-0.1,0.5-0.1,1.2c-0.1,1.6-0.3,4.4-1.6,5.4
			c0,0-6.2,3.5-5.3,12.2c0.9,8.7,5.6,17.2,3.9,20.7C112.9,278.7,109.1,281.4,109.1,290.8z"/>
		<path class="st14" d="M117.6,237c1.9,2.8,5.1,3.6,7.1,3.8c0-0.8,0.1-1.6,0.2-2.5c0,0-4.7-6.4-7.2-2.5
			C117.6,235.9,117.6,236.3,117.6,237z"/>
		<path d="M129.7,384.3c-0.5,0.8,6.8,8,8.5,8.1c1.7,0.1,0.7-1.2,0.7-1.2c-1.4-1.2-2.4-3-3-4.5c-0.3-0.1-2.9-1.6-4.9-4.7
			C130.7,382.7,130.2,383.5,129.7,384.3z"/>
		<path d="M94.8,402.3c-0.3,0.8,7.9,6.8,9.7,6.7c1.7-0.1,0.5-1.3,0.5-1.3c-1.6-1-2.9-2.6-3.7-4c-0.3-0.1-3.1-1.2-5.5-3.9
			C95.6,400.5,95.2,401.4,94.8,402.3z"/>
		<path class="st11" d="M128.6,224.2c0.7,1.1,1,3,1,5.3c0.2,7-3.1,9.5-5.4,9.5c-2.3,0-7.3-1-8-7.4c-0.4-3.2-0.4-5.9,0.4-7.6
			C118.2,220.5,125.4,219.6,128.6,224.2z"/>
		<path class="st15" d="M126.5,230c0,0,0.6,0.2,0.5-0.8c-0.1-1-0.5-0.8-0.5-0.8s-0.4,0-0.3,0.8C126.2,230,126.5,230,126.5,230z"/>
		<path class="st15" d="M120.8,230.1c0,0,0.6,0.2,0.5-0.8c-0.1-1-0.5-0.8-0.5-0.8s-0.4,0-0.3,0.8
			C120.5,230.1,120.8,230.1,120.8,230.1z"/>
		<path class="st14" d="M123.3,232.3c0.3-0.1,1,0.1,1.2-0.2c0.1-0.3-0.4-1.9-0.4-2.2c-0.1-0.3-0.2-0.6-0.2-0.8c0,0,0.1,0,0.1-0.1
			c0.1,0,0.1-0.1,0.2-0.1c0.3,1.1,0.5,2.3,0.8,3.3c0,0.1-0.1,0.2-0.1,0.2c-0.4,0-0.9,0.1-1.3,0.1
			C123.2,232.6,123.2,232.3,123.3,232.3z"/>
		<path class="st15" d="M125.8,226.8c0.4-0.2,1.2-0.3,1.6,0.2c0.1,0.1,0,0.2-0.1,0.2c-0.2,0-0.4-0.1-0.6-0.1c-0.2,0-0.4,0-0.7,0.1
			C125.7,227.2,125.6,226.9,125.8,226.8z"/>
		<path class="st15" d="M119.9,227.4c0.3-0.6,1.3-0.7,1.8-0.3c0.1,0.1,0,0.3-0.1,0.3c-0.3,0.1-0.6,0-0.8,0c-0.2,0-0.4,0.1-0.7,0.2
			C120,227.7,119.8,227.5,119.9,227.4z"/>
		<path class="st14" d="M122.6,233.9c0.4,0.2,0.7,0.4,1.2,0.5c0.4,0,0.8-0.2,1.2,0c0.1,0,0.1,0.1,0.1,0.1c-0.3,0.4-1,0.5-1.5,0.4
			c-0.5,0-1.1-0.2-1.3-0.7C122.2,234.1,122.4,233.8,122.6,233.9z"/>
		<path class="st15" d="M123.2,222c-0.1,0.5-0.4,1-0.8,1.3c-0.4,0.3-1,0.4-1.5,0.5c-0.5,0.1-1.1,0.3-1.3,0.8
			c-0.2,0.3-0.1,0.7-0.2,1.1c-0.1,0.5-0.4,1-0.9,1.3c-0.4,0.3-0.9,0.3-1.3,0.7c-0.2,0.3-0.3,0.6-0.4,1s-0.5,0.6-0.8,0.4
			c-0.6-1.1-1.2-2.2-1.3-3.4c-0.3-1.9,0.6-3.9,2-5.2s3.5-1.6,5.3-1.3C123.3,219.6,123.5,220.7,123.2,222z"/>
		<path class="st11" d="M116.7,230.1c0,0-1.1-2.9-2.8-1.4c-1.7,1.5,0.6,5.6,3.3,5.3C117.2,234.1,117.6,231.1,116.7,230.1z"/>
		<path class="st14" d="M114.8,230.1c0.4,0.1,0.8,0.4,1,0.7c0.3,0.3,0.6,0.6,0.8,1c0,0.1-0.1,0.2-0.2,0.1c-0.2-0.2-0.4-0.4-0.6-0.7
			c-0.2,0.2-0.3,0.3-0.5,0.4c-0.2,0.1-0.3-0.1-0.2-0.3c0.1-0.2,0.3-0.3,0.4-0.4c-0.3-0.2-0.6-0.4-0.8-0.6
			C114.6,230.1,114.6,230,114.8,230.1z"/>
		<path class="st12" d="M162.7,336.4c-1.3,5.4-7.8,16.6-13.7,26.1c-3.5-0.6-7-1.9-10.3-3.5c2.6-7.7,6.1-16.4,10.4-21.8
			c0,0-8.9-9.5-18.2-20.1c-0.1,0.3-0.1,0.5-0.1,0.7c-0.2,1.1-0.8,3-1.5,5.3c-3.5,10.7-11.6,31.4-12.9,35.1c-0.7,2-4,10.7-7.4,19.8
			c-2.6,0.3-6.1-0.1-9.2-1.2c1.2-8.5,2.8-18.1,4.5-22.7c1.4-3.9,4-6.1,4.9-16.3c0.8-9,0.6-18.1,0.4-27.2c-0.1-3-0.1-5.9-0.2-8.9
			c0-1.4,0-2.9,0-4.4c0-1.6,0-3.2-0.2-4.8c-0.7-5.6,1.2-11.3,4.8-15.7c0.1-0.2,0.3-0.3,0.5-0.4c0.2-0.1,0.5,0,0.7,0
			c3.3,0.8,6.4,2.4,9.7,3c3.2,0.6,6.8,0.7,10.1,0.5c0.2,0,0.4,0,0.6,0.1c0.1,0.1,0.2,0.2,0.2,0.3c3.4,6.5,7.5,12.6,11.2,19
			c5.7,9.7,12.1,20,15.2,30.9C162.6,332.1,163.2,334.4,162.7,336.4z"/>
		<path class="st11" d="M155.3,234.9c0,0,1.3-2.9,2.6-5.8c0.8-1.7,3-5.3,2.9-6.7c0,0-0.1-0.3-0.3-0.6c0-0.1-0.1-0.1-0.1-0.1
			c-0.2-0.3-0.5-0.6-0.9-0.9c0,0-0.1-0.1-0.1-0.1c-0.3-0.2-0.7-0.4-1.1-0.5c0,0-0.1,0-0.1,0c-0.3-0.1-0.7-0.1-1.2-0.1
			c0,0-1.7,3.9-2.7,4.9c0,0,0.4-2.6-0.2-3.1l-0.6-0.1c0,0-0.8,2.7-1.2,3.9c-1.1,2.9,0,5.8,0,5.8S153.4,236.2,155.3,234.9z"/>
		<path class="st14" d="M158.2,220.2c0,0-0.1,0-0.1,0c-0.6,1.8-1.6,3.4-2.4,5.2c0,0,0,0.1,0.1,0C157,223.9,157.7,222.1,158.2,220.2z
			"/>
		<path class="st14" d="M159.4,220.8c0,0-0.1,0-0.1-0.1c-0.6,1.8-1.6,3.4-2.4,5.2c0,0,0,0.1,0.1,0
			C158.2,224.4,158.9,222.6,159.4,220.8z"/>
		<path class="st14" d="M160.5,221.9c0-0.1-0.1-0.1-0.1-0.1c-0.6,1.7-1.5,3.3-2.3,4.9c0,0,0,0.1,0.1,0
			C159.3,225.3,160,223.6,160.5,221.9z"/>
		<g>
			<g>
				<defs>
					<path id="SVGID_1_" d="M140,287c0.1,1.3-1.2,1.6-2.2,2c-6.6,2.8-14.2,3.1-20.9,0.8c-2.4-0.8-4.6-1.2-7-1.8
						c-0.3-0.1-0.6-0.2-0.9-0.4c-0.5-0.5-0.5-1.2-0.3-1.9c0.5-2.3,1.6-4,2.8-6.1c0.9-1.5,1.4-2.8,1.7-4.2c0.9-4.1-0.5-7.9-1.6-12.5
						c-0.1-0.4-0.2-0.7-0.3-1.1c-0.7-2.9-1.3-5.6-1.4-7.2c0-0.3,0-0.5,0-0.7v-0.2c-0.1-1.6,0-3,0.2-4.2c0.1-0.4,0.2-0.7,0.2-1.1
						c1.5-5.6,5.5-6.1,5.5-6.1l9.1,3.2c0,0,2.1,1.1,5,3.8c0.3,0.3,0.6,0.6,1,0.9c0.5,0.5,1,1.1,1.6,1.7c1.3,1.4,2.1,3,2.6,4.4
						c0.1,0.3,0.2,0.5,0.3,0.8c0.2,0.7,0.4,1.4,0.5,2c0.1,0.7,0.1,1.3,0.2,1.8c-0.3,1.1-0.6,2.1-0.8,3.2c-0.2,1.2-0.5,2.4-0.6,3.7
						c-0.1,0.8-0.1,1.6-0.1,2.3c0.5,5.6,1.8,10.3,4.6,15.1C139.7,285.7,140,286.3,140,287z"/>
				</defs>
				<clipPath id="SVGID_2_">
					<use xlink:href="#SVGID_1_"  style="overflow:visible;"/>
				</clipPath>
				<rect x="95.5" y="203.2" class="st18" width="42" height="42"/>
			</g>
			<g>
				<defs>
					<path id="SVGID_3_" d="M140,287c0.1,1.3-1.2,1.6-2.2,2c-6.6,2.8-14.2,3.1-20.9,0.8c-2.4-0.8-4.6-1.2-7-1.8
						c-0.3-0.1-0.6-0.2-0.9-0.4c-0.5-0.5-0.5-1.2-0.3-1.9c0.5-2.3,1.6-4,2.8-6.1c0.9-1.5,1.4-2.8,1.7-4.2c0.9-4.1-0.5-7.9-1.6-12.5
						c-0.1-0.4-0.2-0.7-0.3-1.1c-0.7-2.9-1.3-5.6-1.4-7.2c0-0.3,0-0.5,0-0.7v-0.2c-0.1-1.6,0-3,0.2-4.2c0.1-0.4,0.2-0.7,0.2-1.1
						c1.5-5.6,5.5-6.1,5.5-6.1l9.1,3.2c0,0,2.1,1.1,5,3.8c0.3,0.3,0.6,0.6,1,0.9c0.5,0.5,1,1.1,1.6,1.7c1.3,1.4,2.1,3,2.6,4.4
						c0.1,0.3,0.2,0.5,0.3,0.8c0.2,0.7,0.4,1.4,0.5,2c0.1,0.7,0.1,1.3,0.2,1.8c-0.3,1.1-0.6,2.1-0.8,3.2c-0.2,1.2-0.5,2.4-0.6,3.7
						c-0.1,0.8-0.1,1.6-0.1,2.3c0.5,5.6,1.8,10.3,4.6,15.1C139.7,285.7,140,286.3,140,287z"/>
				</defs>
				<clipPath id="SVGID_4_">
					<use xlink:href="#SVGID_3_"  style="overflow:visible;"/>
				</clipPath>
				<rect x="95.5" y="245.1" class="st19" width="42" height="42"/>
			</g>
			<g>
				<defs>
					<path id="SVGID_5_" d="M140,287c0.1,1.3-1.2,1.6-2.2,2c-6.6,2.8-14.2,3.1-20.9,0.8c-2.4-0.8-4.6-1.2-7-1.8
						c-0.3-0.1-0.6-0.2-0.9-0.4c-0.5-0.5-0.5-1.2-0.3-1.9c0.5-2.3,1.6-4,2.8-6.1c0.9-1.5,1.4-2.8,1.7-4.2c0.9-4.1-0.5-7.9-1.6-12.5
						c-0.1-0.4-0.2-0.7-0.3-1.1c-0.7-2.9-1.3-5.6-1.4-7.2c0-0.3,0-0.5,0-0.7v-0.2c-0.1-1.6,0-3,0.2-4.2c0.1-0.4,0.2-0.7,0.2-1.1
						c1.5-5.6,5.5-6.1,5.5-6.1l9.1,3.2c0,0,2.1,1.1,5,3.8c0.3,0.3,0.6,0.6,1,0.9c0.5,0.5,1,1.1,1.6,1.7c1.3,1.4,2.1,3,2.6,4.4
						c0.1,0.3,0.2,0.5,0.3,0.8c0.2,0.7,0.4,1.4,0.5,2c0.1,0.7,0.1,1.3,0.2,1.8c-0.3,1.1-0.6,2.1-0.8,3.2c-0.2,1.2-0.5,2.4-0.6,3.7
						c-0.1,0.8-0.1,1.6-0.1,2.3c0.5,5.6,1.8,10.3,4.6,15.1C139.7,285.7,140,286.3,140,287z"/>
				</defs>
				<clipPath id="SVGID_6_">
					<use xlink:href="#SVGID_5_"  style="overflow:visible;"/>
				</clipPath>
				<rect x="95.5" y="287.1" class="st20" width="42" height="42"/>
			</g>
			<g>
				<defs>
					<path id="SVGID_7_" d="M140,287c0.1,1.3-1.2,1.6-2.2,2c-6.6,2.8-14.2,3.1-20.9,0.8c-2.4-0.8-4.6-1.2-7-1.8
						c-0.3-0.1-0.6-0.2-0.9-0.4c-0.5-0.5-0.5-1.2-0.3-1.9c0.5-2.3,1.6-4,2.8-6.1c0.9-1.5,1.4-2.8,1.7-4.2c0.9-4.1-0.5-7.9-1.6-12.5
						c-0.1-0.4-0.2-0.7-0.3-1.1c-0.7-2.9-1.3-5.6-1.4-7.2c0-0.3,0-0.5,0-0.7v-0.2c-0.1-1.6,0-3,0.2-4.2c0.1-0.4,0.2-0.7,0.2-1.1
						c1.5-5.6,5.5-6.1,5.5-6.1l9.1,3.2c0,0,2.1,1.1,5,3.8c0.3,0.3,0.6,0.6,1,0.9c0.5,0.5,1,1.1,1.6,1.7c1.3,1.4,2.1,3,2.6,4.4
						c0.1,0.3,0.2,0.5,0.3,0.8c0.2,0.7,0.4,1.4,0.5,2c0.1,0.7,0.1,1.3,0.2,1.8c-0.3,1.1-0.6,2.1-0.8,3.2c-0.2,1.2-0.5,2.4-0.6,3.7
						c-0.1,0.8-0.1,1.6-0.1,2.3c0.5,5.6,1.8,10.3,4.6,15.1C139.7,285.7,140,286.3,140,287z"/>
				</defs>
				<clipPath id="SVGID_8_">
					<use xlink:href="#SVGID_7_"  style="overflow:visible;"/>
				</clipPath>
				<rect x="137.5" y="203.2" class="st21" width="42" height="42"/>
			</g>
			<g>
				<defs>
					<path id="SVGID_9_" d="M140,287c0.1,1.3-1.2,1.6-2.2,2c-6.6,2.8-14.2,3.1-20.9,0.8c-2.4-0.8-4.6-1.2-7-1.8
						c-0.3-0.1-0.6-0.2-0.9-0.4c-0.5-0.5-0.5-1.2-0.3-1.9c0.5-2.3,1.6-4,2.8-6.1c0.9-1.5,1.4-2.8,1.7-4.2c0.9-4.1-0.5-7.9-1.6-12.5
						c-0.1-0.4-0.2-0.7-0.3-1.1c-0.7-2.9-1.3-5.6-1.4-7.2c0-0.3,0-0.5,0-0.7v-0.2c-0.1-1.6,0-3,0.2-4.2c0.1-0.4,0.2-0.7,0.2-1.1
						c1.5-5.6,5.5-6.1,5.5-6.1l9.1,3.2c0,0,2.1,1.1,5,3.8c0.3,0.3,0.6,0.6,1,0.9c0.5,0.5,1,1.1,1.6,1.7c1.3,1.4,2.1,3,2.6,4.4
						c0.1,0.3,0.2,0.5,0.3,0.8c0.2,0.7,0.4,1.4,0.5,2c0.1,0.7,0.1,1.3,0.2,1.8c-0.3,1.1-0.6,2.1-0.8,3.2c-0.2,1.2-0.5,2.4-0.6,3.7
						c-0.1,0.8-0.1,1.6-0.1,2.3c0.5,5.6,1.8,10.3,4.6,15.1C139.7,285.7,140,286.3,140,287z"/>
				</defs>
				<clipPath id="SVGID_10_">
					<use xlink:href="#SVGID_9_"  style="overflow:visible;"/>
				</clipPath>
				<rect x="137.5" y="245.1" class="st22" width="42" height="42"/>
			</g>
			<g>
				<defs>
					<path id="SVGID_11_" d="M140,287c0.1,1.3-1.2,1.6-2.2,2c-6.6,2.8-14.2,3.1-20.9,0.8c-2.4-0.8-4.6-1.2-7-1.8
						c-0.3-0.1-0.6-0.2-0.9-0.4c-0.5-0.5-0.5-1.2-0.3-1.9c0.5-2.3,1.6-4,2.8-6.1c0.9-1.5,1.4-2.8,1.7-4.2c0.9-4.1-0.5-7.9-1.6-12.5
						c-0.1-0.4-0.2-0.7-0.3-1.1c-0.7-2.9-1.3-5.6-1.4-7.2c0-0.3,0-0.5,0-0.7v-0.2c-0.1-1.6,0-3,0.2-4.2c0.1-0.4,0.2-0.7,0.2-1.1
						c1.5-5.6,5.5-6.1,5.5-6.1l9.1,3.2c0,0,2.1,1.1,5,3.8c0.3,0.3,0.6,0.6,1,0.9c0.5,0.5,1,1.1,1.6,1.7c1.3,1.4,2.1,3,2.6,4.4
						c0.1,0.3,0.2,0.5,0.3,0.8c0.2,0.7,0.4,1.4,0.5,2c0.1,0.7,0.1,1.3,0.2,1.8c-0.3,1.1-0.6,2.1-0.8,3.2c-0.2,1.2-0.5,2.4-0.6,3.7
						c-0.1,0.8-0.1,1.6-0.1,2.3c0.5,5.6,1.8,10.3,4.6,15.1C139.7,285.7,140,286.3,140,287z"/>
				</defs>
				<clipPath id="SVGID_12_">
					<use xlink:href="#SVGID_11_"  style="overflow:visible;"/>
				</clipPath>
				<rect x="137.5" y="287.1" class="st23" width="42" height="42"/>
			</g>
		</g>
		<g>
			<g>
				<defs>
					<path id="SVGID_13_" d="M120,213.4c-2.1,1.3-3.9,2.4-6.4,2.6c-0.5,0.1-0.8,0.9-0.1,1c2.6,0.4,5.1-1.1,7.1-2.6
						C121.3,214,120.7,213,120,213.4z"/>
				</defs>
				<clipPath id="SVGID_14_">
					<use xlink:href="#SVGID_13_"  style="overflow:visible;"/>
				</clipPath>
				<rect x="95.5" y="203.2" class="st24" width="42" height="42"/>
			</g>
		</g>
		<path class="st17" d="M136.2,260.8c-0.3,1.1-0.6,2.1-0.8,3.2c-0.2,1.2-0.5,2.4-0.6,3.7c-19.3-5-22.5-15.6-22.5-15.6l-0.5-0.4
			c-0.4-2.4,17.5,4.6,24.3,7.4C136.1,259.8,136.1,260.4,136.2,260.8z"/>
		<path class="st11" d="M114.3,255c0,0-6.6-4.7-0.1-10.6c4.2-3.8,21.5,13.6,29,10.6c1.1-0.4,9.8-26.2,9.8-26.2l4,1.1
			c0,0-3.5,27.9-8.4,32.1C144.1,265.9,130.1,266,114.3,255z"/>
		<path d="M130.9,317.1c-0.1,0.3-0.1,0.5-0.1,0.7c-0.2,1.1-0.8,3-1.5,5.3c-3.9-1.5-13.7-5.8-19.8-12.6c-0.1-3-0.1-5.9-0.2-8.9
			c0-1.4,0-2.9,0-4.4C111,300.8,116,307,130.9,317.1z"/>
	</g>
	<path class="st25" d="M506.9,185.7c-19.1,0-38.2,0-57.2,0c-15.4,0-63.6,2.3-68-2c-9.9-9.5,19.4-12.1,23.4-9.2
		c-5.5-3.9-7.8-11.7-5.3-17.9s9.6-10.3,16.2-9.3c11.6,1.8,17,15.5,26.8,21.9c-2.5-5.9,3.8-12.8,10.2-12.2
		c6.4,0.6,11.2,6.5,12.5,12.8c3.7-2.2,7.8-4.4,12-3.8c4.2,0.6,8,5.5,5.8,9.2c10-0.1,20,1,29.7,3.3c2.6,0.6,5.7,1.8,6,4.5
		C519.6,187.2,511.1,186.6,506.9,185.7z"/>
	<path class="st26" d="M99.9,129.9c14.8,0,29.7,0,44.5,0c11.9,0,49.5,1.8,52.9-1.5c7.7-7.4-15.1-9.4-18.2-7.2
		c4.3-3,6.1-9.1,4.1-13.9c-1.9-4.8-7.5-8-12.6-7.2c-9,1.4-13.2,12.1-20.9,17c2-4.6-3-10-7.9-9.5c-5,0.4-8.7,5.1-9.7,10
		c-2.9-1.7-6-3.4-9.3-2.9c-3.3,0.5-6.2,4.3-4.5,7.2c-7.8-0.1-15.5,0.8-23.1,2.5c-2,0.5-4.4,1.4-4.7,3.5
		C90.1,131.1,96.6,130.6,99.9,129.9z"/>
	<g>
		<path class="st11" d="M486.2,409.3c1.3,0.9,13.1,0,13.2-0.8c0.1-0.9,0.3-1.7,0.4-2.4c0-0.1,0-0.1,0-0.2c-1-7.4-2.4-18.4-2.4-18.4
			s-5.6-0.7-8,2.6c0,0,6.3,14.5,3.5,15.9c-0.1,0.1-0.2,0.1-0.4,0.2c-1.5,0.7-4.6,1.7-6.1,1.7C486.4,408,484.9,408.4,486.2,409.3z"/>
		<path d="M486.2,409.3c1.3,0.9,13.1,0,13.2-0.8c0.1-0.9,0.3-1.7,0.4-2.4c0-0.1,0-0.1,0-0.2c-1.5,0.3-4.2,0.7-7.3,0.3
			c-1.5,0.7-4.6,1.7-6.1,1.7C486.4,408,484.9,408.4,486.2,409.3z"/>
		<path class="st11" d="M568.1,408.2c-1.3,0.9-13.1,0-13.2-0.8c-0.1-0.9-0.3-1.7-0.4-2.4c0-0.1,0-0.1,0-0.2c-0.5-3.4-6-13.8-6-13.8
			s5.1-4.4,7.5-1.1c0,0,2.6,13.6,5.4,15c0.1,0.1,0.2,0.1,0.4,0.2c1.5,0.7,4.6,1.7,6.2,1.7C567.9,406.9,569.4,407.3,568.1,408.2z"/>
		<path d="M568.1,408.2c-1.3,0.9-13.1,0-13.2-0.8c-0.1-0.9-0.3-1.7-0.4-2.4c0-0.1,0-0.1,0-0.2c1.5,0.3,4.2,0.7,7.3,0.3
			c1.5,0.7,4.6,1.7,6.2,1.7C567.9,406.9,569.4,407.3,568.1,408.2z"/>
		<path class="st12" d="M568.6,392.1c0,0-12.7,5.9-21.9,1.6c0,0-0.2-0.4-0.7-1.2c-0.2-0.3-0.3-0.6-0.5-1c-0.9-1.8-2.3-4.7-3.7-8.4
			c-0.1-0.3-0.3-0.7-0.4-1c-1.2-3-2.4-6.6-3.6-10.6c-0.1-0.3-0.2-0.6-0.3-1c-1-3.5-1.9-7.4-2.6-11.5c-0.1-0.4-0.1-0.8-0.2-1.1
			c-0.3-1.9-0.6-3.9-0.8-5.9c0,0-0.3-1.2-2.6-5.3c-0.2-0.3-0.4-0.6-0.6-1c-0.9-1.5-1.9-3.3-3.3-5.4c-0.5-0.8-1-1.6-1.5-2.5
			c-0.2-0.4-0.4-0.8-0.7-1.1c-2.2-3.8-4.7-8.5-7-13.1c-0.2-0.4-0.4-0.7-0.5-1.1c-1.2-2.5-2.4-5-3.5-7.4c-0.2-0.4-0.4-0.8-0.5-1.2
			c-1.9-4.3-3.3-8-3.7-10.2c0,0-2.1,4.9-6.2,15.3c-0.2,0.5-8.4,21.9-10.5,27.6c-0.1,0.4-0.2,0.8-0.3,1.2c0,0.4,0,0.8,0.1,1.1
			c0,0.3,0.1,0.5,0.2,0.8l17,43.4c0,0-11.3,3.1-23.1-1c0,0-0.1-0.3-0.3-0.9c-0.1-0.3-0.3-0.8-0.5-1.3c-0.8-2.2-2.1-6.1-3.5-10.9
			c-0.1-0.4-0.2-0.8-0.4-1.2c-0.8-2.8-1.6-5.9-2.4-9.1c-0.1-0.5-0.2-1-0.3-1.4c-0.8-3.7-1.5-7.5-2-11.3c0-0.3-0.1-0.6-0.1-0.8
			c-0.4-3.8-0.7-7.4-0.5-10.9c0,0,3.1-17.3,3.1-17.6c0.8-4.2,1.7-8.7,2.8-13c0.1-0.5,0.3-1.1,0.4-1.6c0.8-3.4,1.7-6.7,2.5-9.7
			c0.1-0.4,0.2-0.8,0.3-1.1c0.6-2,1.2-3.8,1.9-5.4c1-2.5,2-4.4,3-5.5c2-2.1,6.8-2.8,12.3-2.7c0.5,0,1,0,1.6,0.1
			c5.5,0.3,11.6,1.4,16.8,2.9c0.3,0.1,0.7,0.2,1,0.3c4.7,1.4,8.4,3,10.1,4.6c0.5,0.5,0.8,0.9,0.9,1.3c0.1,0.2,8.5,27.7,8.7,28.2
			c1.2,3.5,2.3,6.8,3.3,9.3c0.1,0.3,0.2,0.6,0.3,0.9c0,0.1,0.1,0.2,0.1,0.3c1,2.6,2.6,7.1,4.5,12.4c0.1,0.3,8.9,24.9,9,25.3
			c1.4,3.7,2.8,7.1,4,10.1c0.1,0.2,0.2,0.4,0.2,0.5C565.9,388,567.5,391.2,568.6,392.1z"/>
		<path d="M536.3,304.8c-4.5,1.4-11,2.2-18.3-0.9c-5.8-2.4-12.2-4.6-19.7-4.2c-5.1,0.3-8.4-2.3-10.1-4.1c1-2.5,2-4.4,3-5.5
			c2-2.1,6.8-2.8,12.3-2.7c0.5,0,1,0,1.6,0.1c5.5,0.3,11.6,1.4,16.8,2.9c0.3,0.1,0.7,0.2,1,0.3c4.7,1.4,8.4,3,10.1,4.6
			c0.5,0.5,0.8,0.9,0.9,1.3C534,296.9,534.9,300.2,536.3,304.8z"/>
		<path class="st11" d="M506.4,239.7c-0.2,3-5,13.9-9.8,23.5c-3.5,7-6.9,13.4-8.5,15.5c-6.8,9-23.1,21.8-23.1,21.8s-4.3-2-3.4-6.2
			c0,0,15.9-18.7,18.1-22.5c1.2-2,3.6-7.4,6.1-13.1c2.3-5.2,4.6-10.6,5.9-13.9c2.5-6.1,8.8-13.8,13-9.8
			C506,236.4,506.5,238,506.4,239.7z"/>
		<path class="st11" d="M466.5,299c0,0-1.5,1.5-3,3.5c-1.6,2-5.1,6.4-6.8,7.1c0,0-0.4,0-0.9,0c-0.1,0-0.2,0-0.2,0
			c-0.5-0.1-1.1-0.2-1.7-0.6c0,0-0.1,0-0.1-0.1c-0.4-0.3-0.9-0.6-1.3-1.1c0,0-0.1-0.1-0.1-0.1c-0.3-0.4-0.6-0.8-0.8-1.4
			c0,0,3.6-4.4,4.3-6.3c0,0-2.9,2.1-3.9,1.6l-0.4-0.6c0,0,2.8-2.6,4-3.9c2.8-3.1,7.2-3.1,7.2-3.1S467,296.1,466.5,299z"/>
		<path class="st14" d="M452.4,307.9c0,0-0.1-0.1-0.1-0.1c1.8-1.9,3.2-3.9,4.8-6c0,0,0.1,0,0.1,0
			C456.1,304.2,454.3,306.1,452.4,307.9z"/>
		<path class="st14" d="M453.8,309c0,0-0.1,0-0.1-0.1c1.8-1.9,3.2-3.9,4.8-6c0,0,0.1,0,0.1,0C457.4,305.4,455.7,307.3,453.8,309z"/>
		<path class="st14" d="M455.7,309.6c-0.1,0-0.2,0-0.2,0c1.7-1.8,3-3.8,4.5-5.7c0,0,0.1,0,0.1,0C459.1,306.2,457.5,308,455.7,309.6z
			"/>
		<path class="st17" d="M506.4,239.7c-0.2,3-6.2,17.1-11,26.8c-4.5,0.8-8.4-1.1-10.8-4.8c2.3-5.2,5.8-13.4,7.1-16.7
			c2.5-6.1,8.8-13.8,13-9.8C506,236.4,506.5,238,506.4,239.7z"/>
		<path class="st15" d="M489.5,245.7l-4.9,1.4c-0.6,0.2-1.3-0.2-1.4-0.8l-3.1-11.4c-0.2-0.6,0.2-1.3,0.8-1.4l4.9-1.4
			c0.6-0.2,1.3,0.2,1.4,0.8l3.1,11.4C490.5,244.9,490.1,245.6,489.5,245.7z"/>
		<path class="st16" d="M536.2,297.7c0,0-0.7,0.2-1.9,0.5c-0.5,0.1-1.2,0.2-1.9,0.3c-0.7,0.1-1.4,0.2-2.1,0.2
			c-1.8,0.1-3.9,0.1-5.8-0.3c-2.4-0.6-4.8-1.5-7.2-2.2c-0.5-0.1-1-0.3-1.5-0.4c-2.5-0.7-5.1-1.1-7.8-0.7c-2.6,0.4-6.1,0.7-9.5,0.6
			c-0.6,0-1.2-0.1-1.8-0.1c-2.8-0.3-5.4-0.9-7.4-2.1c-0.8-0.5-1.6-1.1-2.2-1.9c0,0,3.8-5.9,6.1-11.4c1.1-2.6,1.8-5,1.8-6.9
			c0,0,1.4-20,1.4-20.3c0.1-1.4,2.4-15.4,3.6-17.7c0.2-0.3,0.5-0.5,0.9-0.7c2.3-0.7,7.6,0.6,10.1,0.7c0,0.1,0,0.2,0,0.3l0,0.2
			c-0.4,2.9,0.7,6.2-0.3,9.6c-1.4,4.5,8.6-4.8,12.4-8.7c0.2-0.2,0.4-0.4,0.6-0.6c0.2-0.2,0.4-0.4,0.5-0.5c0-0.1,0.1-0.1,0.2-0.2
			c8.4,0.8,10.7,2,10.8,2c1.2,0.8,1.4,2,1.3,3.7c-0.3,2.4-1.4,5.8-2.4,10.5c-0.7,3.5-1.5,7.7-2.3,12.7c-0.5,3.3-0.6,6.5-0.4,9.7
			C531.7,286.7,536.2,297.7,536.2,297.7z"/>
		<path class="st11" d="M511.9,251.1c3.6-5.6,8.6-11.5,11.1-14.5c0.2-0.2,1.1-1.4,1.2-1.4c-0.7,0-1.3,0-1.7-0.1
			c-0.2-0.1-0.3-0.2-0.4-0.3c0,0,0,0,0,0c-0.3-0.9-0.3-3.6-0.1-5.6c0-0.8,0.1-1.5,0.1-1.9c0,0,0-0.1,0-0.1c0-0.3,0-0.5,0-0.5
			c0-0.1,0-0.3,0-0.4c0-0.1,0-0.2-0.1-0.3c-0.4-1.6-2.8-1.2-5.1-0.4c-1.1,0.4-2.2,0.9-3,1.3c-0.5,0.2-0.9,0.5-1.2,0.6
			c-0.3,0.1-0.4,0.2-0.4,0.2s0,0.3,0.1,0.7c0.1,0.6,0.2,1.5,0.3,2.4c0,0.3,0.1,0.7,0.1,1c0,1.5-0.1,2.9-0.8,3.3
			c-0.2,0.1-0.6,0.1-1.1,0.1c0,0.1,0,0.2,0,0.3l0,0.2C510.3,239.7,509.3,255.1,511.9,251.1z"/>
		<path class="st14" d="M512.3,227.6c0,0,0,0.3,0.1,0.7c0.1,0.6,0.2,1.5,0.3,2.4c0,0.3,0.1,0.7,0.1,1c1.8,0.6,3.2,0.6,4.5,0.4
			c0.4-0.1,0.7-0.2,1-0.3c1.8-0.6,3-1.9,3.6-2.7c0-0.8,0.1-1.5,0.1-1.9c0,0,0-0.1,0-0.1c0-0.3,0-0.5,0-0.5c0-0.1,0-0.3,0-0.4
			c0-0.1,0-0.2-0.1-0.3c-0.4-1.6-2.8-1.2-5.1-0.4c-1.1,0.4-2.2,0.9-3,1.3c-0.5,0.2-0.9,0.5-1.2,0.6
			C512.5,227.5,512.3,227.6,512.3,227.6z"/>
		<path class="st27" d="M512.7,217.1c-0.5-0.2-1.3-0.3-1.7,0.2c-0.1,0.1,0,0.2,0.1,0.2c0.2,0,0.4-0.1,0.7-0.1c0.3,0,0.5,0,0.7,0.1
			C512.7,217.5,512.9,217.2,512.7,217.1z"/>
		<path class="st27" d="M519.5,217.7c-0.3-0.7-1.4-0.7-1.9-0.3c-0.1,0.1,0,0.3,0.1,0.3c0.3,0.1,0.6,0,0.9,0c0.3,0,0.5,0.1,0.7,0.2
			C519.4,217.9,519.6,217.8,519.5,217.7z"/>
		<path class="st15" d="M509,220.6c-0.5-0.8-0.9-1.6-1-2.6c-0.1-1.4,0.1-2.9,0-4.3c-0.2-2-1.2-4.2-0.3-6c0.8-1.4,2.8-2.1,4.2-1.3
			c1,0.6,1.9,1.8,3.1,1.6c0.6-0.1,1-0.6,1.5-0.8c0.9-0.5,2.1-0.4,2.9,0.2c1,0.8,1.4,2.1,2.5,2.8c0.9,0.6,2.1,0.6,3,1.2
			c0.9,0.6,1.4,1.6,1.6,2.6c0.4,2.4-0.4,5.1-1.1,7.4c-0.1,0.4-0.2,1.8-0.8,1.8c-0.2,0-0.3-0.2-0.3-0.2c-0.2,0-0.4,0-0.6,0
			c-3.3-0.2-6.6-0.4-9.9-0.8c-1.5-0.1-2.8,0.2-4-0.8C509.5,221.2,509.2,220.9,509,220.6z"/>
		<path class="st14" d="M509.5,220.1c0,0-1.5-1.7-2.9,0c-1.5,1.7,1,5.1,2.9,5.2C509.5,225.3,509.7,220.8,509.5,220.1z"/>
		<path class="st11" d="M508.7,221.5c0,1,0,1.8,0.1,2.6c0,0.1,0,0.1,0,0.2c0,0,0,0.1,0,0.1c0,0.2,0.1,0.9,0.1,0.9
			c0.3,1.5,0.7,2.6,1.4,3.5c0.6,0.9,1.5,1.4,2.4,1.8c0.5,0.2,1.1,0.3,1.8,0.4c0.5,0.1,1,0.1,1.6,0.1c0.4,0,0.8-0.1,1.2-0.1
			c1.9-0.4,3.7-1.5,4.8-3.8c0.1-0.2,0.2-0.4,0.3-0.6c0.2-0.5,0.4-1.1,0.5-1.7c0.1-0.3,0.2-0.6,0.2-1c0-0.2,0.1-0.4,0.1-0.6
			c0-0.1,0-0.2,0-0.2c0,0,0,0,0-0.1c0.1-0.8,0.2-1.6,0.3-2.3c0.3-2.5,0.3-4.7-0.7-5.9c-1.7-2-8.1-2.7-11.6-0.7
			c-0.4,0.2-0.8,0.5-1.1,0.8c-0.1,0.1-0.1,0.1-0.2,0.2c-0.1,0.1-0.1,0.2-0.2,0.3c-0.3,0.5-0.5,1.1-0.6,1.9c-0.1,0.3-0.1,0.6-0.1,0.9
			c0,0.4-0.1,0.9-0.1,1.3c0,0.4,0,0.8,0,1.3v0.1C508.7,221.1,508.6,221.3,508.7,221.5z"/>
		<path class="st11" d="M522.6,222c0,0,1.2-3.1,3-1.5c1.8,1.6-0.7,6.3-3.5,6C522.1,226.6,521.7,223.1,522.6,222z"/>
		<path class="st14" d="M524.8,222c-0.4,0.1-0.8,0.5-1.1,0.7c-0.3,0.3-0.7,0.6-0.8,1.1c0,0.1,0.1,0.2,0.2,0.1
			c0.2-0.2,0.4-0.5,0.7-0.7c0.2,0.2,0.3,0.4,0.5,0.4c0.2,0.1,0.3-0.1,0.2-0.3c-0.1-0.2-0.3-0.3-0.5-0.4c0.3-0.2,0.7-0.4,0.9-0.7
			C525,222.1,524.9,221.9,524.8,222z"/>
		<path class="st15" d="M512,220.6c0,0-0.6,0.2-0.5-0.9c0.1-1,0.5-0.9,0.5-0.9s0.4,0,0.4,0.9C512.3,220.6,512,220.6,512,220.6z"/>
		<path class="st15" d="M518.5,220.6c0,0-0.7,0.2-0.5-0.9c0.1-1,0.5-0.9,0.5-0.9s0.5,0,0.4,0.9C518.8,220.6,518.5,220.6,518.5,220.6
			z"/>
		<path class="st14" d="M514.9,223.6c-0.3-0.1-1.1,0.1-1.2-0.2c-0.1-0.3,0.4-2,0.5-2.3c0.3-1.1,0.5-1.8,0.8-3.1c0-0.1-0.1-0.1-0.1,0
			c-0.8,1.7-1,3.8-1.5,5.7c0,0.1,0,0.2,0.2,0.2c0.5,0,1,0.1,1.4,0.1C515,223.9,515.1,223.7,514.9,223.6z"/>
		<path class="st0" d="M512.9,225.3c0,0,2.2,0.8,4.2,0c0,0-0.9,1.4-2.4,1.5S512.9,225.3,512.9,225.3z"/>
		<path class="st15" d="M512.8,216.8c-0.5-0.2-1.3-0.3-1.6,0.2c-0.1,0.1,0,0.2,0.1,0.2c0.2,0,0.4-0.1,0.6-0.1c0.2,0,0.5,0,0.7,0.1
			C512.9,217.2,513,216.9,512.8,216.8z"/>
		<path class="st15" d="M519.9,217.1c-0.3-0.6-1.4-0.7-1.8-0.3c-0.1,0.1,0,0.3,0.1,0.3c0.3,0.1,0.6,0,0.8,0c0.3,0,0.5,0.1,0.7,0.2
			C519.8,217.4,519.9,217.2,519.9,217.1z"/>
		<path class="st11" d="M485.5,250.8c0,0-1.2-1.4-2.8-3c-1.6-1.6-5.3-5.1-5.7-6.7c0,0,0-0.3,0.1-0.8c0-0.1,0-0.1,0-0.2
			c0.1-0.4,0.3-0.9,0.7-1.4c0,0,0-0.1,0.1-0.1c0.3-0.4,0.6-0.7,1.1-1c0,0,0.1-0.1,0.1-0.1c0.4-0.2,0.8-0.4,1.3-0.6
			c0,0,3.6,3.6,5.2,4.4c0,0-1.6-2.8-1.1-3.6l0.6-0.3c0,0,2,2.8,3.1,3.9c2.5,2.8,2.1,6.7,2.1,6.7S488.1,251.5,485.5,250.8z"/>
		<path class="st14" d="M479,237.4c0,0,0.1-0.1,0.1-0.1c1.5,1.8,3.2,3.2,4.9,4.8c0,0,0,0.1,0,0.1C481.9,241.1,480.3,239.3,479,237.4
			z"/>
		<path class="st14" d="M477.8,238.6c0,0,0.1-0.1,0.1-0.1c1.5,1.8,3.2,3.2,4.9,4.8c0,0,0,0.1,0,0.1
			C480.7,242.2,479.1,240.4,477.8,238.6z"/>
		<path class="st14" d="M477.1,240.2c0-0.1,0-0.1,0-0.2c1.4,1.6,3.1,3,4.7,4.5c0,0,0,0.1,0,0.1C479.9,243.6,478.4,242,477.1,240.2z"
			/>
		<path class="st17" d="M536.2,240.9c-0.3,2.4-1.4,5.8-2.4,10.5c-0.7,3.5-1.5,7.7-2.3,12.7c-0.5,3.3-0.6,6.5-0.4,9.7
			c-1,0.7-2.2,1.4-3.4,2c-13.4,7.1-18.2,1.3-18.2,1.3l9.4-9.7l11.7-20.5L536.2,240.9z"/>
		<path class="st11" d="M532.2,260c-1.1,1.9-2.3,3.6-3.5,5.2c-7.7,9.9-16.6,13.3-20.8,11.4c-6.8-3.2-18.6-19.7-21.8-24.5
			c-1.1-1.7-1.8-2.7-1.8-2.7s2.2-3.7,5.8-2.5c0,0,0.6,0.7,1.7,1.8c4.1,4.2,17.6,14.7,20.1,16.5c0.8,0.6,2.9-2.7,5.5-7.3
			c5-8.6,12-21.8,16.3-21.2C536.6,237.2,542.7,242.4,532.2,260z"/>
		<path class="st16" d="M532.2,260c-1.1,1.9-2.3,3.6-3.5,5.2c-6.4-1.9-9.7-5.1-11.3-7.3c5-8.6,12-21.8,16.3-21.2
			C536.6,237.2,542.7,242.4,532.2,260z"/>
	</g>
	<g>
		<path class="st28" d="M93,219.5c5.6-3.4,9-8,9-13c0-10.6-15.3-19.2-34.2-19.2s-34.2,8.6-34.2,19.2s15.3,19.2,34.2,19.2
			c6.1,0,11.9-0.9,16.8-2.5c4.3,7.3,13.7,7.8,13.7,7.8C93.8,228.3,93.1,222.5,93,219.5z"/>
		<g>
			<path class="st0" d="M51.2,207c0-0.4,0.1-0.7,0.2-1c0.1-0.3,0.3-0.6,0.5-0.8c0.2-0.2,0.5-0.4,0.8-0.5c0.3-0.1,0.7-0.2,1-0.2
				c0.4,0,0.8,0.1,1.1,0.2c0.3,0.1,0.6,0.3,0.8,0.5c0.2,0.2,0.4,0.5,0.5,0.8s0.2,0.6,0.2,1s-0.1,0.7-0.2,1c-0.1,0.3-0.3,0.6-0.5,0.8
				c-0.2,0.2-0.5,0.4-0.8,0.5c-0.3,0.1-0.7,0.2-1.1,0.2c-0.4,0-0.7-0.1-1-0.2s-0.6-0.3-0.8-0.5c-0.2-0.2-0.4-0.5-0.5-0.8
				C51.3,207.7,51.2,207.4,51.2,207z"/>
			<path class="st0" d="M65.3,207c0-0.4,0.1-0.7,0.2-1c0.1-0.3,0.3-0.6,0.5-0.8c0.2-0.2,0.5-0.4,0.8-0.5c0.3-0.1,0.7-0.2,1-0.2
				c0.4,0,0.8,0.1,1.1,0.2c0.3,0.1,0.6,0.3,0.8,0.5s0.4,0.5,0.5,0.8s0.2,0.6,0.2,1s-0.1,0.7-0.2,1c-0.1,0.3-0.3,0.6-0.5,0.8
				c-0.2,0.2-0.5,0.4-0.8,0.5c-0.3,0.1-0.7,0.2-1.1,0.2c-0.4,0-0.7-0.1-1-0.2s-0.6-0.3-0.8-0.5s-0.4-0.5-0.5-0.8
				C65.4,207.7,65.3,207.4,65.3,207z"/>
			<path class="st0" d="M79.5,207c0-0.4,0.1-0.7,0.2-1c0.1-0.3,0.3-0.6,0.5-0.8c0.2-0.2,0.5-0.4,0.8-0.5c0.3-0.1,0.7-0.2,1-0.2
				c0.4,0,0.8,0.1,1.1,0.2c0.3,0.1,0.6,0.3,0.8,0.5s0.4,0.5,0.5,0.8s0.2,0.6,0.2,1s-0.1,0.7-0.2,1c-0.1,0.3-0.3,0.6-0.5,0.8
				c-0.2,0.2-0.5,0.4-0.8,0.5c-0.3,0.1-0.7,0.2-1.1,0.2c-0.4,0-0.7-0.1-1-0.2s-0.6-0.3-0.8-0.5s-0.4-0.5-0.5-0.8
				S79.5,207.4,79.5,207z"/>
		</g>
	</g>
	<g>
		<path class="st29" d="M233.1,285.5c-8.5,0.6-15.8-6.1-15.8-14.7c0-2.2,0-4.3,0.1-6.4c0.2-6.6,1-12.7,2.4-18.4s3.4-11,6-16
			s6-10,10-15c3-3.9,5.8-7.7,8.4-11.4s4.7-7.4,6.4-11.1c1.8-3.7,3.1-7.5,3.9-11.4c0.9-3.9,1.1-8,0.8-12.4
			c-1.6-20.4-8.9-30.1-22.1-29.1c-2.3,0.2-4.7,0.9-7,2.3c-2.4,1.4-4.4,3.4-6.3,6.1c-1.8,2.7-3.2,6.1-4.2,10.1l0,0.1
			c-2.1,8.6-9.4,14.8-18.2,15.5l-12.5,0.9c-12.9,1-23.3-10.4-21.1-23.1c0.6-3.2,1.3-6.2,2.2-9.1c3.1-9.7,7.7-17.9,13.7-24.5
			c6.1-6.6,13.4-11.8,21.9-15.4c8.5-3.7,17.9-5.9,28.2-6.7c11.3-0.8,21.4,0,30.6,2.5c9.1,2.5,17,6.6,23.6,12.2
			c6.6,5.7,12,12.8,15.9,21.5c4,8.7,6.4,18.8,7.3,30.5c0.6,7.9,0,15.3-1.7,21.9c-1.7,6.6-4.1,13-7.2,18.9c-3.1,6-6.8,11.8-11,17.4
			c-4.3,5.7-8.7,11.4-13.1,17.3c-2.5,3.4-4.5,6.7-6,10.1c-1.5,3.3-2.7,6.8-3.5,10.3c-0.8,3.6-1.3,7.4-1.5,11.4c0,0,0,0.1,0,0.1
			c-0.3,7.5-6.1,13.5-13.6,14.1L233.1,285.5z M217.4,343.2c-0.3-4,0.1-7.8,1.2-11.4s2.8-6.6,5-9.3c2.3-2.7,5.1-4.9,8.4-6.6
			c3.4-1.7,7.2-2.8,11.5-3.1c4.4-0.3,8.4,0.1,12,1.3c3.6,1.2,6.7,3,9.3,5.3c2.6,2.3,4.8,5.1,6.4,8.5c1.6,3.3,2.6,7,2.9,11
			s-0.1,7.8-1.2,11.4c-1.1,3.5-2.8,6.7-5,9.4s-5.1,5-8.5,6.6s-7.3,2.7-11.7,3c-4.3,0.3-8.2-0.1-11.8-1.2s-6.7-2.9-9.4-5.3
			s-4.8-5.2-6.4-8.6C218.7,350.9,217.8,347.2,217.4,343.2z"/>
		<path class="st30" d="M227.3,285.5c-8.5,0.6-15.8-6.1-15.8-14.7c0-2.2,0-4.3,0.1-6.4c0.2-6.6,1-12.7,2.4-18.4s3.4-11,6-16
			s6-10,10-15c3-3.9,5.8-7.7,8.4-11.4s4.7-7.4,6.4-11.1c1.8-3.7,3.1-7.5,3.9-11.4c0.9-3.9,1.1-8,0.8-12.4
			c-1.6-20.4-8.9-30.1-22.1-29.1c-2.3,0.2-4.7,0.9-7,2.3c-2.4,1.4-4.4,3.4-6.3,6.1c-1.8,2.7-3.2,6.1-4.2,10.1l0,0.1
			c-2.1,8.6-9.4,14.8-18.2,15.5l-12.5,0.9c-12.9,1-23.3-10.4-21.1-23.1c0.6-3.2,1.3-6.2,2.2-9.1c3.1-9.7,7.7-17.9,13.7-24.5
			c6.1-6.6,13.4-11.8,21.9-15.4c8.5-3.7,17.9-5.9,28.2-6.7c11.3-0.8,21.4,0,30.6,2.5c9.1,2.5,17,6.6,23.6,12.2
			c6.6,5.7,12,12.8,15.9,21.5c4,8.7,6.4,18.8,7.3,30.5c0.6,7.9,0,15.3-1.7,21.9c-1.7,6.6-4.1,13-7.2,18.9c-3.1,6-6.8,11.8-11,17.4
			c-4.3,5.7-8.7,11.4-13.1,17.3c-2.5,3.4-4.4,6.7-6,10.1c-1.5,3.3-2.7,6.8-3.5,10.3c-0.8,3.6-1.3,7.4-1.5,11.4c0,0,0,0.1,0,0.1
			c-0.3,7.5-6.1,13.5-13.6,14.1L227.3,285.5z M211.7,343.2c-0.3-4,0.1-7.8,1.2-11.4s2.8-6.6,5-9.3c2.3-2.7,5.1-4.9,8.4-6.6
			c3.4-1.7,7.2-2.8,11.5-3.1c4.4-0.3,8.4,0.1,12,1.3c3.6,1.2,6.7,3,9.3,5.3c2.6,2.3,4.8,5.1,6.4,8.5c1.6,3.3,2.6,7,2.9,11
			s-0.1,7.8-1.2,11.4c-1.1,3.5-2.8,6.7-5,9.4s-5.1,5-8.4,6.6c-3.4,1.7-7.3,2.7-11.7,3c-4.3,0.3-8.2-0.1-11.8-1.2s-6.7-2.9-9.4-5.3
			s-4.8-5.2-6.4-8.6C212.9,350.9,212,347.2,211.7,343.2z"/>
		<path class="st31" d="M192.8,114.7c0.8-1-0.7-2.4-1.7-1.7c-5.6,3.8-10.3,9.4-14.7,14.5c-3.9,4.6-7.4,9.6-8.9,15.5
			c-1.3,4.9-1.2,10.5,1.5,14.9c1.8,2.9,5.2,5.8,8.7,4.3c0.2-0.1,0.3-0.5,0.1-0.7c-4-3.1-7-5.2-7.5-10.8c-0.5-5.1,1.4-10.2,4.1-14.5
			C179.3,128,187.1,122.3,192.8,114.7z"/>
		<path class="st31" d="M232.9,355.2c-6.3-3.8-10.4-8.3-10.6-16.1c-0.1-7.6,3.7-13.6,9.5-18c0.6-0.5,0.3-1.4-0.5-1.2
			c-16.5,3.8-16.7,35.5,1,37.6C233.6,357.7,233.9,355.8,232.9,355.2z"/>
	</g>
	<g>
		<path class="st1" d="M556.6,152.7c-15.3,5.6-23.2,22.6-17.5,38c2,5.3,5.3,9.8,9.5,13c0.7,2.4,1.5,8.3-3.9,13.5c0,0,9-1.4,11.8-9.1
			c6.4,2.4,13.7,2.6,20.6,0.1c15.3-5.6,23.2-22.6,17.5-38S571.9,147.1,556.6,152.7z"/>
		<path class="st0" d="M587.6,171.3H546c-0.5,0-1-0.4-1-1s0.5-1,1-1h41.6c0.5,0,1,0.4,1,1C588.6,170.8,588.2,171.3,587.6,171.3z"/>
		<path class="st0" d="M587.6,178.2H546c-0.5,0-1-0.4-1-1s0.5-1,1-1h41.6c0.5,0,1,0.4,1,1S588.2,178.2,587.6,178.2z"/>
		<path class="st0" d="M587.6,185.1H546c-0.5,0-1-0.4-1-1s0.5-1,1-1h41.6c0.5,0,1,0.4,1,1S588.2,185.1,587.6,185.1z"/>
		<path class="st0" d="M571.3,192H546c-0.5,0-1-0.4-1-1s0.5-1,1-1h25.3c0.5,0,1,0.4,1,1C572.3,191.5,571.8,192,571.3,192z"/>
	</g>
	<g>
		<path class="st29" d="M392,342.1c0.5-4,1.5-7.7,3.3-11s4-6.1,6.7-8.3c2.7-2.2,5.9-3.9,9.5-5c3.6-1.1,7.6-1.4,12-0.9
			c4.3,0.5,8.1,1.6,11.4,3.5c3.3,1.9,6,4.2,8.2,6.9s3.7,6,4.7,9.6s1.2,7.5,0.8,11.5c-0.5,4-1.5,7.7-3.3,10.9c-1.7,3.3-3.9,6-6.7,8.2
			c-2.7,2.2-5.9,3.9-9.5,4.9c-3.6,1-7.6,1.3-11.9,0.8c-4.4-0.5-8.2-1.6-11.6-3.4c-3.3-1.8-6.1-4.1-8.2-6.8s-3.7-5.9-4.7-9.5
			C391.9,350,391.6,346.2,392,342.1z M426.8,288.4c-12-1.3-20.8-11.9-19.8-24L418,124c1-12.6,12.2-21.9,24.8-20.5l9.2,1
			c12.5,1.4,21.5,12.9,19.6,25.4l-20.1,139.4C449.7,281.3,438.8,289.8,426.8,288.4z"/>
		<path class="st30" d="M387.2,342.1c0.5-4,1.5-7.7,3.3-11s4-6.1,6.7-8.3c2.7-2.2,5.9-3.9,9.5-5c3.6-1.1,7.6-1.4,12-0.9
			c4.3,0.5,8.1,1.6,11.4,3.5c3.3,1.9,6,4.2,8.2,6.9s3.7,6,4.7,9.6s1.2,7.5,0.8,11.5c-0.5,4-1.5,7.7-3.3,10.9c-1.7,3.3-3.9,6-6.7,8.2
			c-2.7,2.2-5.9,3.9-9.5,4.9c-3.6,1-7.6,1.3-11.9,0.8c-4.4-0.5-8.2-1.6-11.6-3.4c-3.3-1.8-6.1-4.1-8.2-6.8s-3.7-5.9-4.7-9.5
			C387,350,386.7,346.2,387.2,342.1z M421.9,288.4c-12-1.3-20.8-11.9-19.8-24l11-140.5c1-12.6,12.2-21.9,24.8-20.5l9.2,1
			c12.5,1.4,21.5,12.9,19.6,25.4l-20.1,139.4C444.8,281.3,433.9,289.8,421.9,288.4z"/>
		<path class="st31" d="M411,361.7c-6.7-4.3-11.6-10.9-11.1-19.2c0.5-8.2,6-13,11.7-18.1c0.3-0.2,0.1-0.7-0.3-0.7
			c-8.6,1.1-14.3,10.7-14.8,18.8c-0.6,9.2,4.9,18.4,13.4,21.9C411.5,365.1,412.4,362.6,411,361.7z"/>
		<path class="st31" d="M433.6,112c-13.6,1.7-13.2,17.8-14.3,28.1c-0.9,8.6-1.9,17.1-2.8,25.7c-1,8.8-2.5,17.8-2.4,26.7
			c0,0.7,1.1,0.9,1.2,0.2c3.2-13.4,3.5-28,5-41.7c0.8-7.3,1.4-14.5,2.3-21.8c1-7.9,3.6-13,11.2-16.2
			C434.4,112.8,434.1,111.9,433.6,112z"/>
	</g>
	<g>
		<path class="st11" d="M327.6,401.3c0,0,0.5,1.2,1,3.7c0,0.2,0.1,0.4,0.1,0.6c0.1,0.7,0.3,1.5,0.4,2.4c0.1,0.8,11.7,1.6,13,0.8
			c1.3-0.9-0.2-1.3-0.2-1.3c-1.6,0-5.2-1.1-6.4-1.9c-3.4-2.2-3.6-15.1-3.6-15.1C328,380.5,320.8,370.7,327.6,401.3z"/>
		<path class="st11" d="M275.7,408.6c1.3,0.9,13.1,0,13.3-0.8c0.1-0.9,0.3-1.7,0.4-2.4c0-0.1,0-0.1,0-0.2c0.5-3.5,1.2-9.7,1.2-9.7
			s-3.2-3.4-5.5-0.1c0,0,0.3,8.5-2.5,9.9c-0.1,0.1-0.2,0.1-0.4,0.2c-1.5,0.7-4.6,1.7-6.2,1.7C275.9,407.3,274.4,407.7,275.7,408.6z"
			/>
		<path class="st12" d="M333.7,397.5c0,0-3.5,2.6-8.9,0.5c0,0-5.1-23.2-9.5-43.6c-0.5-2.4-8.4-23.2-11.7-32.2c-0.8-2-1.3-3.5-1.4-4
			c-0.2-0.7-0.7-1.3-1.4-1.5c-0.8-0.3-1.8-0.1-2.2,2.2c-0.1,0.4-0.2,1.5-0.4,3.1c-1.5,14.8-6.4,75-6.4,75s-4.5,0.9-7.8-0.7
			c0,0-3.5-45.7-4-75.5c0-2,0-3.9,0-5.8c0-5.5,0.1-10,0.4-12.9l37.3-1.5c0,0,9.6,47.2,10.3,52C329.4,361.6,333.7,397.5,333.7,397.5z
			"/>
		<path d="M328.5,405c0,0.2,0.1,0.4,0.1,0.6c0.1,0.7,0.3,1.5,0.4,2.4c0.1,0.8,11.7,1.6,13,0.8c1.3-0.9-0.2-1.3-0.2-1.3
			c-1.6,0-5.2-1.1-6.4-1.9C333.9,405.8,331.3,406,328.5,405z"/>
		<path d="M275.7,408.6c1.3,0.9,13.1,0,13.3-0.8c0.1-0.9,0.3-1.7,0.4-2.4c0-0.1,0-0.1,0-0.2c-1.5,0.3-4.2,0.7-7.3,0.3
			c-1.5,0.7-4.6,1.7-6.2,1.7C275.9,407.3,274.4,407.7,275.7,408.6z"/>
		<path d="M321.8,321.4c-5.5,0.7-12,0.9-18.3,0.8c-0.8-2-1.3-3.5-1.4-4c-0.2-0.7-0.7-1.3-1.4-1.5c-0.8-0.3-1.8-0.1-2.2,2.2
			c-0.1,0.4-0.2,1.5-0.4,3.1c-7.4-0.3-14.1-0.9-18.2-1.3c0-2,0-3.9,0-5.8c0-5.5,0.1-10,0.4-12.9l37-1.5l0.9,2.8
			C318.9,307.2,320.3,313.9,321.8,321.4z"/>
		<path class="st11" d="M308.9,258.8c-2.1-4.1,55.5-26.6,27.1-38.9c-9.3-4-27.5-7.6-27.5-7.6s-2.8,3.2-0.6,6.3
			c0,0,19.3,6.5,22.4,8.8s-17.9,10.5-27.2,12.2C297.3,240.6,309.6,260.1,308.9,258.8z"/>
		<path class="st11" d="M310.2,212.7c0,0-1.7-0.6-3.8-1.6c-2.1-1-6.6-3.2-8.3-3c0,0-0.3,0.1-0.7,0.4c-0.1,0-0.1,0.1-0.2,0.1
			c-0.4,0.3-0.8,0.6-1.1,1.1c0,0-0.1,0.1-0.1,0.1c-0.2,0.4-0.5,0.8-0.6,1.4c0,0.1,0,0.1,0,0.1c-0.1,0.4-0.1,0.9-0.1,1.4
			c0,0,4.7,2.1,5.9,3.3c0,0-3.1-0.5-3.8,0.3l-0.1,0.7c0,0,3.3,0.9,4.7,1.5c3.5,1.4,7-0.4,7-0.4S311.8,214.9,310.2,212.7z"/>
		<path class="st15" d="M285.5,224.3c-0.1-0.2-0.2-0.4-0.2-0.8c-0.2-1.7-0.2-3.5,0-5.2c0.1-1,0.3-2,0.7-2.9c0.8-1.6,2.4-2.8,4-3.5
			c3.4-1.7,7.3-2.4,11.1-2c0.9,0.1,1.8,0.2,2.5,0.6s1.4,1.2,1.5,2c0.1,0.6-0.1,1.1-0.2,1.7c-1,3.7,0.1,7.4-1.1,10.9
			c-0.4,1.1-0.5,1.3-1.1,1.2c-3.4-0.2-6.8-0.5-10.2-0.8c-2-0.2-4-0.3-5.9-0.8C286,224.7,285.7,224.6,285.5,224.3z"/>
		<path class="st14" d="M303,223.3c0,0,1.5-1.9,3.1,0c1.5,1.9-1.1,5.4-3.1,5.6C303,228.8,302.8,224.1,303,223.3z"/>
		<path class="st11" d="M275.8,244.2c0.9,2.2,4.4,10.8,5.5,17.8c0.6,3.7,2.9,16.5,2.9,16.5c13.1,3.6,27.6,0,27.6,0
			s7.9-33.3,1.8-37.2c-1-0.7-2.9-1.1-4.9-1.4c-3.7-0.5-7.9-0.5-7.9-0.5l-0.2-1.9c0,0-0.5-4.7-0.5-4.7c-6.4,1.3-10.9-2.7-10.9-2.7
			c0.2,1.1,0.4,2.8,0.5,4.4c0.1,1,0.1,1.9,0.1,2.7c0,1.4,0,2.5,0,2.5c-1.8,0-3.5,0.2-5.1,0.5c-4.5,0.9-7.6,2.5-8.8,3.2
			C275.8,243.5,275.6,243.9,275.8,244.2z"/>
		<path class="st14" d="M289.4,230c1.7,7.7,9.4,7.1,11.2,6.1l-0.3-3.5C293.9,234,289.4,230,289.4,230z"/>
		<path class="st11" d="M302.7,217.9c1,1.1,1.1,3.5,1.2,6.1c0.3,8-2.1,10.6-6.3,11c-4.1,0.4-8.4-1.1-9.3-8.6
			c-0.4-3.7-0.9-7.2,0.4-8.8C290.8,215.2,299.5,214.6,302.7,217.9z"/>
		<path class="st11" d="M288.9,225.3c0,0-1.3-3.3-3.2-1.6c-2,1.8,0.8,6.8,3.8,6.4C289.5,230.2,289.9,226.5,288.9,225.3z"/>
		<path class="st11" d="M278.2,243.3c-1.5,0.2-2.8,1.1-3.6,2.3c-2.5,3.8-7.9,32.2-7.9,37.9c0,10.1,4.8,28.1,4.8,28.1
			s4.2,0.9,5.8-2.6c0,0-1.3-22-0.9-25.9s4.2-19.3,5.9-25.8C283.8,251.7,283.5,242.7,278.2,243.3z"/>
		<path class="st14" d="M286.6,225.3c0.4,0.1,0.9,0.5,1.2,0.8c0.3,0.3,0.7,0.7,0.9,1.1c0,0.1-0.1,0.2-0.2,0.1
			c-0.3-0.2-0.5-0.5-0.7-0.8c-0.2,0.2-0.3,0.4-0.6,0.5c-0.2,0.1-0.3-0.2-0.2-0.3c0.1-0.2,0.3-0.3,0.5-0.5c-0.3-0.2-0.7-0.4-1-0.7
			C286.4,225.4,286.5,225.3,286.6,225.3z"/>
		<path class="st15" d="M300.4,223.8c0,0,0.7,0.3,0.6-1c-0.1-1.1-0.6-1-0.6-1s-0.5,0-0.4,1C300,223.8,300.4,223.8,300.4,223.8z"/>
		<path class="st15" d="M293.3,223.8c0,0,0.7,0.3,0.6-1c-0.1-1.1-0.6-1-0.6-1s-0.5,0-0.4,1S293.3,223.8,293.3,223.8z"/>
		<path class="st14" d="M297.2,227.1c0.4-0.1,1.2,0.2,1.3-0.2c0.1-0.3-0.4-2.2-0.5-2.5c-0.3-1.2-0.6-1.9-0.8-3.3
			c0-0.1,0.1-0.1,0.1,0c0.8,1.8,1.1,4.1,1.6,6.1c0,0.1,0,0.2-0.2,0.2c-0.5,0-1,0.1-1.5,0.1C297.1,227.4,297,227.1,297.2,227.1z"/>
		<path class="st15" d="M299.6,220.1c0.5-0.3,1.4-0.3,1.8,0.2c0.1,0.1,0,0.2-0.1,0.2c-0.3,0-0.5-0.1-0.7-0.1c-0.3,0-0.5,0-0.8,0.1
			C299.5,220.6,299.4,220.2,299.6,220.1z"/>
		<path class="st15" d="M292.3,220.7c0.3-0.7,1.5-0.8,2-0.3c0.1,0.1,0,0.3-0.1,0.3c-0.3,0.1-0.6,0-1,0c-0.3,0-0.5,0.1-0.8,0.2
			C292.4,221,292.2,220.8,292.3,220.7z"/>
		<path class="st16" d="M322.6,317.7c1,5.7-45.3-2-45.1-4.5c1.7-16.8,3.1-44,3.1-44s0-1.4,0-3.7c0,0.2,0,0.3,0,0.3l-2,8.6
			c-7.5,0.4-12-3.3-12-3.3s2.4-10.6,5.2-20.4c2-6.9,5.7-9.3,7.4-10.1c0.1-0.1,0.4-0.2,0.6-0.2c0.2-0.1,0.3-0.1,0.3-0.1
			c2.4-0.6,7.6-0.9,7.6-0.9s-1.3,7.1,7.2,7.8c9.6,0.8,9.1-8.2,9.1-8.2s18.8-6,21.9-8.1c0,0,4.8,6.2,6.8,13.3c0,0-11.6,5.8-17.2,13
			c0,1.1-0.1,1.7-0.1,1.7S316.5,282.1,322.6,317.7z"/>
		<path class="st11" d="M271.3,309.7c0,0,0.3,1.8,0.3,4.1c0.1,2.3,0.2,7.4,1,8.8c0,0,0.2,0.2,0.6,0.5c0.1,0,0.1,0.1,0.2,0.1
			c0.4,0.2,0.9,0.4,1.5,0.5c0,0,0.1,0,0.1,0c0.4,0,1,0,1.5-0.1c0,0,0.1,0,0.1,0c0.4-0.1,0.9-0.3,1.3-0.5c0,0-0.2-5.1,0.3-6.8
			c0,0,0.9,3,1.9,3.2l0.6-0.2c0,0-0.6-3.4-0.8-4.9c-0.4-3.7-3.5-6.1-3.5-6.1S272.5,307.3,271.3,309.7z"/>
		<path class="st14" d="M276.6,323.6c0,0,0.1,0,0.1,0c-0.3-2.3-0.2-4.6-0.2-6.9c0,0-0.1-0.1-0.1,0C276,319,276.2,321.4,276.6,323.6z
			"/>
		<path class="st14" d="M275,323.7c0,0,0.1,0,0.1,0c-0.3-2.3-0.2-4.6-0.2-6.9c0,0-0.1-0.1-0.1,0C274.4,319.1,274.5,321.5,275,323.7z
			"/>
		<path class="st14" d="M273.3,323.1c0.1,0,0.1,0.1,0.2,0.1c-0.2-2.2-0.1-4.3-0.1-6.5c0,0-0.1-0.1-0.1,0
			C272.7,318.8,272.9,321,273.3,323.1z"/>
		<path class="st14" d="M299.6,229.4c-0.8,0-1.5,0.4-2.2,0.4c-0.6,0-1.4-0.3-2,0c0.5,0.5,1.5,0.5,2.1,0.5c0.7,0,1.6-0.1,2.2-0.6
			C299.8,229.6,299.7,229.4,299.6,229.4z"/>
		<path class="st17" d="M332.7,244.2c0,0-11.6,5.8-17.2,13l-1.1-7.7L332.7,244.2z"/>
	</g>
	<g>
		<path class="st11" d="M392.9,407.5c-1.8-0.4-3.5-1.4-4.7-2.3c-0.8-0.6-1.4-1.2-1.5-1.6c-0.3-1.3-0.3-5.1-0.2-7.7
			c0.5-25.2,6.3-50.1,3.8-75.4c-0.5-5.7-1.4-11.5-4-16.5c-0.3-0.5-0.6-1.1-1.1-1.4c-0.8-0.5-1.8-0.5-2.7-0.3c-3.3,0.7-6,3.3-7.5,6.4
			c-1.5,3.1-1.9,6.5-1.9,9.9c0,4.8,0.8,9.5,2.3,14.1c0.8,2.3,1.7,4.6,2,7c0.3,2.7-0.7,4.9-1.1,7.5c-0.6,3.8-0.3,8.1-0.2,12
			c0.1,14,3,27.5,5.6,41.1c0.1,0.8,0.2,2,0.2,3.5c0,0.8,0,1.6,0,2.6c0,0.9,9.5,3.4,11.1,2.7C394.4,408.2,392.9,407.5,392.9,407.5z"
			/>
		<path d="M381.9,406.2c0,0.9,9.5,3.4,11.1,2.7c1.5-0.7,0-1.4,0-1.4c-1.8-0.4-3.5-1.4-4.7-2.3c-0.3,0-3.2,0-6.3-1.5
			C381.9,404.4,381.9,405.3,381.9,406.2z"/>
		<path class="st11" d="M365.9,407.6c-1.7-0.7-3.2-2-4.2-3.1c-0.6-0.7-1.1-1.4-1.2-1.8c-0.1-1.3,0.6-5,1.2-7.6
			c5-24.7,15.1-48.2,17.3-73.5c0.5-5.7,0.7-11.5-1-17c-0.2-0.6-0.4-1.2-0.8-1.6c-0.6-0.7-1.7-0.8-2.6-0.8c-3.4,0.1-6.5,2.2-8.5,4.9
			c-2,2.7-3,6.1-3.6,9.4c-0.8,4.7-0.9,9.5-0.3,14.3c0.3,2.4,0.9,4.8,0.7,7.3c-0.2,2.7-1.6,4.7-2.4,7.1c-1.3,3.6-1.7,7.9-2.4,11.7
			c-2.4,13.8-1.9,27.6-1.8,41.5c-0.1,0.8-0.2,2-0.4,3.5c-0.1,0.8-0.3,1.6-0.5,2.5c-0.2,0.9,8.8,5,10.4,4.6
			C367.2,408.5,365.9,407.6,365.9,407.6z"/>
		<path d="M355.2,404.3c-0.2,0.9,8.8,5,10.4,4.6c1.6-0.4,0.3-1.4,0.3-1.4c-1.7-0.7-3.2-2-4.2-3.1c-0.3,0-3.1-0.5-6-2.6
			C355.6,402.5,355.4,403.4,355.2,404.3z"/>
		<path class="st11" d="M391.5,266.7c-0.7,2.4,0.7,15,0.7,15s-13.2,4.6-21.9-0.9c0,0-2.1-16.3-4.6-22.8l0.3-11.2c0,0,5.3-1,7-3
			c0-0.1,0.1-0.1,0.1-0.2c0.9-1.2,0.8-4.9,0.6-7.6c-0.1-1.9-0.3-3.4-0.3-3.4s9.2,3.3,9.4,4.9c0,0,0,0.1,0,0.2c0,0.3-0.1,0.9-0.1,1.7
			c0,1.9,0.1,4.7,1.5,4.9c0.4,0,0.7-0.1,1.1-0.1c1.8-0.1,3.6-0.1,3.6-0.1s3.7,9.1,6.5,12.8C398.1,260.3,392.2,264.3,391.5,266.7z"/>
		<path class="st16" d="M398.9,344.5c-2.7-8.7-1.9-18.5-2.8-27.5c-0.9-5.2-0.8-10.6-1.4-15.9c-0.7-5.7-1.3-11.4-1.9-17.1
			c-0.3-3.1-0.8-6.4-0.9-9.7c-0.1-2.8,0.1-5.5,0.8-8c0.5-1.8,3.3-3.8,3.4-6.3c0-0.8-0.2-1.6-0.9-2.5c-1.8-2.3-3-4.9-4.2-7.5
			c-0.5-1.2-0.9-2.6-1.7-3.7c-0.6-0.9-0.8-2.5-1.9-2.8c-0.4-0.1-0.9,0-1.3,0.1c-0.5,0.1-0.9,0.2-1.4,0.3c-0.4,0.1-1,0.1-1.3,0.4
			c-2.6,2.2-5.9,2.3-7.1,2.1c-1.4-0.3-2.7-0.9-3.6-2c-1.1,0-2.2,0.3-3.2,0.8c-1.1,0.6-2,1.7-3.1,2.3c-0.6,0.3-0.6,0.3-0.6,1
			c0,0.5-0.2,8.6-0.3,10.3c-0.1,2.1,1.8,5.2,2.2,7.3c0.4,1.8,0.5,3.5,0.4,5.3c-0.3,4.1-0.1,9.2-2,13c-1.8,3.7-3.9,6.5-4.7,10.7
			c-1.6,7.8-1.1,15.8-2.4,23.6c-0.2,1-0.4,2.1-0.7,3.1c-2,7.7-6.3,14.6-9.3,22c-0.2,0.4-0.3,0.8-0.2,1.3c0.3,1.2,2,1,3.2,0.6
			c3-0.9,5.9-0.4,8.7,0.6c2.5,0.9,4.7,2.7,7.4,3.1c3.5,0.5,6.8-1.7,10.3-2.3c4.9-0.9,11.1,0.5,15.6,2.4
			C398.3,351.3,400.3,348.9,398.9,344.5z"/>
		<path class="st11" d="M426.9,251.6c0,0,2.2-1.9,4.4-3.8c1.3-1.1,4.6-3.3,5-4.5c0,0,0-0.3,0-0.6c0-0.1,0-0.1,0-0.2
			c-0.1-0.3-0.2-0.7-0.4-1.1c0,0,0-0.1-0.1-0.1c-0.2-0.3-0.4-0.6-0.8-0.8c0,0-0.1,0-0.1-0.1c-0.3-0.2-0.6-0.4-0.9-0.5
			c0,0-3,2.6-4.2,3c0,0,1.4-2,1-2.7l-0.4-0.3c0,0-1.7,2-2.5,2.8c-2,2-2.3,4.9-2.3,4.9S424.9,252,426.9,251.6z"/>
		<path class="st14" d="M435.1,240.5C435,240.5,435,240.5,435.1,240.5c-1.3,1.2-2.7,2.2-4.1,3.3c0,0,0,0.1,0,0.1
			C432.6,243.1,433.9,241.9,435.1,240.5z"/>
		<path class="st14" d="M435.9,241.4c0,0,0-0.1-0.1-0.1c-1.2,1.3-2.6,2.3-4,3.4c0,0,0,0.1,0,0.1C433.5,244,434.8,242.8,435.9,241.4z
			"/>
		<path class="st14" d="M436.3,242.8c0-0.1,0-0.1,0-0.2c-1.2,1.2-2.5,2.1-3.8,3.2c0,0,0,0.1,0,0.1C434,245.1,435.3,244,436.3,242.8z
			"/>
		<path class="st11" d="M388.2,230.8c0,0.2,0,0.3,0,0.5c-0.4,4.1-2,5.8-5.5,6.3c-2.6,0.4-8.3-0.5-9.7-7.8c-0.7-3.6-0.9-6.7-0.2-8.6
			c1.5-4.1,9.2-8.7,13.2-3.8c0.9,1.1,1.8,6.4,2,9C388.2,228.1,388.2,229.6,388.2,230.8z"/>
		<path class="st15" d="M354.3,263.9c-0.2-2.8,1.3-5.4,2.3-7.9s1.7-5.7,0.1-8c-0.6-0.9-1.5-1.5-2-2.4c-0.7-1.4-0.2-3.1,0.6-4.4
			c0.8-1.3,2-2.4,3-3.6c1.8-2.2,2.7-5.1,2.7-7.9c0-2.3-0.5-4.9,1-6.7c0.9-1.1,2.4-1.6,3.4-2.6c1.5-1.4,1.9-3.3,3.3-4.8
			c1.3-1.4,3-2.4,4.9-3c2.8-0.9,5.9-0.7,8.7,0.2c2.5,0.8,5,3,4.7,5.8c0,0.1,0,0.2-0.1,0.3s-0.2,0.2-0.3,0.2
			c-0.4,0.3-0.9,0.4-1.2,0.7c-0.4,0.3-0.5,0.9-0.7,1.3c-0.3,1-0.1,2.1-0.5,3.1c-0.2,0.5-0.7,1-1.3,1s-1.1-0.4-1.7-0.4
			c-0.4,0-0.8,0.3-1.1,0.6c-0.7,0.7-1.1,1.7-1,2.7c0.1,1,0.5,1.9,1.2,2.6c3.5,3.4-2.1,7.5-1.9,11c0,0.8,0.3,1.5,0.5,2.2
			c0.3,1.4,0.1,2.8-0.5,4c-0.4,0.9-1,1.6-1.3,2.6c-0.5,1.6,0,3.4,0.4,5.1c0.7,2.9,0.2,6.5-1,9.3c-0.6,1.5-1.6,3-2.9,4.1
			c-1.3,1.2-2.5,1.8-4.3,2.2c-1.7,0.3-3.1,0.7-4.8,0.6c-1.7-0.1-3.4-0.3-5-0.8C357,269.9,354.5,266.9,354.3,263.9z"/>
		<path class="st11" d="M387.3,223c0,0,0.4,2.2,2.1,3.9c1.4,1.4-2.8,2.5-2.8,2.5S386.6,223.8,387.3,223z"/>
		<path class="st14" d="M382.3,227.7c-0.2-0.4-0.5-0.8-0.9-1c-0.3-0.1-0.5,0.3-0.3,0.4c0.3,0.2,0.5,0.5,0.6,0.8
			c-0.2,0.1-0.5,0.1-0.7,0.2c-0.3,0.1-0.1,0.5,0.2,0.4c0.2-0.1,0.5-0.1,0.7-0.2c0.1,0.3,0.2,0.6,0.4,0.9c0.1,0.2,0.5,0.1,0.5-0.1
			C382.8,228.7,382.5,228.1,382.3,227.7z"/>
		<path class="st14" d="M388.2,230.8c0,0.2,0,0.3,0,0.5l-0.2,0c-0.4,0.1-1.2,0.1-1.5-0.3c0,0,0-0.1,0-0.1c0.4-0.2,0.8,0,1.2,0
			C387.9,230.9,388,230.9,388.2,230.8z"/>
		<path class="st14" d="M382.8,237.6c0,0.3-0.1,0.9-0.1,1.7c-1.4-0.9-1.5-2.3-1.5-2.3C381.7,237.4,382.4,237.5,382.8,237.6z"/>
		<path class="st17" d="M392.8,266.3c-0.8,2.6-0.9,5.3-0.8,8c-4.3-6.7-3.8-16.6-3.8-16.6c2.5-0.6,5.5,0.6,8,2.3
			C396.1,262.4,393.4,264.4,392.8,266.3z"/>
		<path class="st11" d="M385,252.5c0,0-2.6-10.3,5.2-8.4c7.6,1.8,11.5,19.2,18.9,19.6c1,0,18.3-18.1,18.3-18.1l2.9,2.5
			c0,0-13.7,21.9-19.4,23.5C405.6,273.2,393.9,267.8,385,252.5z"/>
		<path class="st16" d="M385.4,243.7c0,0,3.4-1.2,7.2,0.5c3.8,1.8,3.9,2.5,7.4,2.4c0,0-10,12.8-16.4,12.3
			C383.6,258.8,381.2,249.7,385.4,243.7z"/>
		<path class="st17" d="M391,284.1c-3.5,1.4-7,2.7-10.8,3c-3.7,0.3-8.4,0.2-11.3-2.4c-0.5-0.4-1.1,0.2-0.7,0.7
			c1.3,1.6,3.4,2.4,5.6,2.8c0,0,0,0.1,0,0.1c-1.6,0.6-2.9,2-3.5,3.7c-0.5,1.4-0.1,2.9-0.5,4.4c-0.4,1.6-1.3,3-1.9,4.6
			c-1,2.8-1.5,5.9-0.9,8.8c0.8,3.9,2.8,7,1.5,11.1c-0.1,0.3,0.3,0.4,0.5,0.2c1.1-1.8,1.1-4,0.7-6c-0.8-3.6-2.3-6.6-1.6-10.4
			c0.5-2.8,2.1-5.2,2.8-7.9c0.4-1.3,0-2.7,0.4-4.1c0.3-1.3,1.1-2.2,2-2.9c-0.5,2.3,0.1,4.6,1.2,6.8c1.3,2.6,0.7,4.6-0.1,7.3
			c-0.5,1.6-0.7,3.3-0.5,5c0.5,4,3.5,7,3.8,11c0.4,4.4-1,8.7-0.6,13.1c0,0.3,0.4,0.3,0.5,0c0.4-4.1,1.5-8.1,1.4-12.2
			c-0.1-3.9-2.2-6.5-3.4-10.1c-0.7-2.2-0.6-4.3,0-6.5c0.5-1.7,1.3-3.3,1.1-5.1c-0.1-1.5-0.9-2.5-1.5-3.8c-1-2.1-1-4.2-0.7-6.4
			c0.2-0.1,0.2-0.3,0.1-0.5c1.6,0.2,3.3,0.2,4.7,0.1c4.2-0.2,8.5-1.3,11.8-3.9C391.4,284.3,391.2,284,391,284.1z"/>
	</g>
</g>
</svg>
