<?xml version="1.0" encoding="utf-8"?>
<!-- Generator: Adobe Illustrator 16.0.0, SVG Export Plug-In . SVG Version: 6.00 Build 0)  -->
<!DOCTYPE svg PUBLIC "-//W3C//DTD SVG 1.1//EN" "http://www.w3.org/Graphics/SVG/1.1/DTD/svg11.dtd">
<svg version="1.1" id="Capa_1" xmlns="http://www.w3.org/2000/svg" xmlns:xlink="http://www.w3.org/1999/xlink" x="0px" y="0px"
	 width="34.069px" height="25.32px" viewBox="-1.464 3.145 34.069 25.32" enable-background="new -1.464 3.145 34.069 25.32"
	 xml:space="preserve">
<g>
	<g>
		<polygon fill="#FFFFFF" stroke="#FFFFFF" stroke-miterlimit="10" points="5.497,4.335 2.199,4.335 2.199,10.226 5.497,7.634 		"/>
		<path fill="#FFFFFF" stroke="#FFFFFF" stroke-miterlimit="10" d="M19.083,9.827c0.173-0.083,0.347-0.165,0.521-0.242l-7.508-5.808
			L0,13.131h2.199v14.834h6.597V16.97h3.422l0.271-0.583C13.867,13.398,16.159,11.25,19.083,9.827z"/>
		<path fill="#FFFFFF" stroke="#FFFFFF" stroke-miterlimit="10" d="M21.98,12.705c-0.929,0.122-3.013,0.875-4.607,1.967
			c-0.902,0.617-1.758,1.379-2.558,2.299h0.58v10.994h6.596V14.667l-0.011,0.005V12.705z"/>
		<path fill="#FFFFFF" stroke="#FFFFFF" stroke-miterlimit="10" d="M31.742,11.092l-4.908-4.576L26.48,9.037
			c-1.998,0.116-9.854,1.004-12.995,7.811c4.934-6.214,11.159-5.39,12.612-5.093l-0.335,2.384L31.742,11.092z"/>
	</g>
</g>
</svg>
